<svg id="Layer_1" data-name="Layer 1" xmlns="http://www.w3.org/2000/svg" width="348.206" height="48.996" viewBox="0 0 348.206 48.996">
  <g>
    <path d="M.593,1.9A.944.944,0,0,1,1.505.991H4.673a.911.911,0,0,1,.912.912V15.3h17.57V1.9a.911.911,0,0,1,.912-.912h3.168a.944.944,0,0,1,.912.912V33.682a.944.944,0,0,1-.912.912H24.067a.911.911,0,0,1-.912-.912V19.809H5.585V33.682a.911.911,0,0,1-.912.912H1.505a.944.944,0,0,1-.912-.912Z" fill="#f1f2f2"/>
    <path d="M43.17,14.913A8.644,8.644,0,0,1,52,23.793a11.767,11.767,0,0,1-.1,1.3.884.884,0,0,1-.865.816H37.985a5.559,5.559,0,0,0,5.521,5.137,8.189,8.189,0,0,0,4.272-1.392c.576-.336.912-.528,1.3-.048l1.344,1.824a.745.745,0,0,1-.1,1.248,11.03,11.03,0,0,1-7.1,2.4c-5.809,0-9.649-4.56-9.649-10.081C33.569,19.569,37.409,14.913,43.17,14.913Zm4.368,7.968a4.542,4.542,0,0,0-4.416-4.272,4.856,4.856,0,0,0-4.9,4.272Z" fill="#f1f2f2"/>
    <path d="M56.608,16.305a.945.945,0,0,1,.913-.912h1.392a.913.913,0,0,1,.816.671l.528,1.633a6.842,6.842,0,0,1,5.617-2.784c1.824,0,4.032.48,3.5,1.775l-1.151,2.353a.82.82,0,0,1-1.153.432,4.387,4.387,0,0,0-1.632-.336,5.059,5.059,0,0,0-4.32,2.352V33.682c0,.816-.528.912-1.3.912h-2.3a.945.945,0,0,1-.913-.912Z" fill="#f1f2f2"/>
    <path d="M71.584,32.1l1.008-1.872a.828.828,0,0,1,1.2-.24,9.952,9.952,0,0,0,4.465,1.248c1.44,0,2.352-.576,2.352-1.632,0-1.3-1.056-1.92-3.7-3.121-2.976-1.3-5.473-3.12-5.473-6.288,0-2.4,1.969-5.28,6.577-5.28A10.761,10.761,0,0,1,83.682,16.4a1.072,1.072,0,0,1,.383,1.392L83.2,19.425a1.009,1.009,0,0,1-1.248.384A10.971,10.971,0,0,0,78.017,18.8c-1.632,0-2.16.72-2.16,1.44,0,1.248,1.2,1.776,3.072,2.592,3.5,1.536,6.384,3.024,6.384,6.625,0,2.976-2.832,5.616-7.1,5.616a10.066,10.066,0,0,1-6.336-1.968A.808.808,0,0,1,71.584,32.1Z" fill="#f1f2f2"/>
    <path d="M89.92,1.9a.944.944,0,0,1,.912-.912h2.784a.944.944,0,0,1,.912.912V16.977a9.894,9.894,0,0,1,5.761-2.064c5.424,0,8.017,3.888,8.017,9.12v9.649a.944.944,0,0,1-.912.912h-2.688a.912.912,0,0,1-.913-.912V23.938c0-3.121-1.584-4.849-4.08-4.849a5.931,5.931,0,0,0-5.185,3.024V33.682a.87.87,0,0,1-.96.912H90.832a.944.944,0,0,1-.912-.912Z" fill="#f1f2f2"/>
    <path d="M122.512,14.913a8.645,8.645,0,0,1,8.833,8.88,12.017,12.017,0,0,1-.095,1.3.884.884,0,0,1-.865.816H117.328a5.559,5.559,0,0,0,5.52,5.137,8.2,8.2,0,0,0,4.274-1.392c.575-.336.912-.528,1.3-.048l1.344,1.824a.745.745,0,0,1-.1,1.248,11.03,11.03,0,0,1-7.1,2.4c-5.809,0-9.649-4.56-9.649-10.081C112.912,19.569,116.752,14.913,122.512,14.913Zm4.369,7.968a4.542,4.542,0,0,0-4.417-4.272,4.858,4.858,0,0,0-4.9,4.272Z" fill="#f1f2f2"/>
    <path d="M133.359,16.641a.848.848,0,0,1,.816-1.248h3.168a1.046,1.046,0,0,1,.817.527l5.952,12.77h.049l5.759-12.77a.968.968,0,0,1,1.008-.527h2.737a.822.822,0,0,1,.816,1.248L139.792,48.419a.96.96,0,0,1-.817.577H136.1a.859.859,0,0,1-.815-1.3l6.431-13.777Z" fill="#f1f2f2"/>
    <path d="M165.758,33.346,180.5,1.04a1.12,1.12,0,0,1,.815-.529h.481a1.123,1.123,0,0,1,.816.529l14.641,32.306a.847.847,0,0,1-.816,1.248h-3.024a1.118,1.118,0,0,1-1.1-.72L189.329,27.3h-15.7c-.961,2.208-1.968,4.368-2.928,6.576a1.208,1.208,0,0,1-1.1.72h-3.023A.848.848,0,0,1,165.758,33.346ZM187.5,23.169l-5.9-13.153h-.24L175.5,23.169Z" fill="#f1f2f2"/>
    <path d="M208.383,14.913a11.559,11.559,0,0,1,4.608,1.056V1.9A.944.944,0,0,1,213.9.991h2.785a.945.945,0,0,1,.912.912V33.682a.945.945,0,0,1-.912.912h-1.44c-.433,0-.72-.336-.865-.816L214,32.386a8.581,8.581,0,0,1-6.1,2.688c-5.088,0-8.977-4.56-8.977-10.081C198.926,19.377,203.054,14.913,208.383,14.913Zm.1,16.033a5.167,5.167,0,0,0,4.561-2.881V20.241a7.97,7.97,0,0,0-4.177-1.152c-3.216,0-5.473,2.64-5.473,5.9C203.39,28.209,205.407,30.946,208.479,30.946Z" fill="#f1f2f2"/>
    <path d="M221.245,16.5c-.287-.624,0-1.1.72-1.1H224.8a.885.885,0,0,1,.865.527l4.993,11.33h.047l5.185-11.33c.239-.527.768-.527,1.295-.527h2.209c.72,0,1.008.48.72,1.1l-8.5,18.1a.851.851,0,0,1-.816.48h-.24a.847.847,0,0,1-.815-.48Z" fill="#f1f2f2"/>
    <path d="M250.045,22.449a13.816,13.816,0,0,1,3.793.576c.048-3.024-.528-4.224-2.976-4.224a20.4,20.4,0,0,0-5.376.864c-.576.144-.912-.24-1.056-.768l-.385-1.776a.862.862,0,0,1,.624-1.1,19.807,19.807,0,0,1,6.624-1.1c6.145,0,6.721,3.744,6.721,8.544V33.682a.943.943,0,0,1-.912.912h-1.344c-.431,0-.624-.192-.816-.672l-.48-1.3a8.281,8.281,0,0,1-5.9,2.448c-3.6,0-6.192-2.448-6.192-6.432C242.366,25.137,245.149,22.449,250.045,22.449Zm-.575,9.217a5.683,5.683,0,0,0,4.321-2.4V26.193a7.23,7.23,0,0,0-3.361-.768c-2.305,0-3.888,1.2-3.888,3.169A2.887,2.887,0,0,0,249.47,31.666Z" fill="#f1f2f2"/>
    <path d="M264.061,16.305a.944.944,0,0,1,.912-.912h1.393a.776.776,0,0,1,.767.576l.576,1.632a9.822,9.822,0,0,1,6.721-2.688c5.857,0,8.017,4.128,8.017,9.12v9.649a.945.945,0,0,1-.912.912H278.8a.911.911,0,0,1-.912-.912V23.841c0-3.072-1.487-4.752-3.984-4.752a6.347,6.347,0,0,0-5.328,2.88V33.682c0,.624-.288.912-1.105.912h-2.5a.944.944,0,0,1-.912-.912Z" fill="#f1f2f2"/>
    <path d="M297.086,14.913a8.507,8.507,0,0,1,6.96,3.408.939.939,0,0,1-.192,1.344l-1.584,1.44c-.576.528-.912.144-1.3-.192a5.337,5.337,0,0,0-3.841-1.824,5.713,5.713,0,0,0-5.568,5.9,5.687,5.687,0,0,0,5.521,5.953c2.448,0,3.456-1.248,4.464-2.208a.878.878,0,0,1,1.3-.1l1.3,1.056c.481.384.673.864.337,1.344a8.517,8.517,0,0,1-7.441,4.032A10,10,0,0,1,287,25.042,10.215,10.215,0,0,1,297.086,14.913Z" fill="#f1f2f2"/>
    <path d="M317.485,14.913a8.645,8.645,0,0,1,8.833,8.88,11.769,11.769,0,0,1-.1,1.3.883.883,0,0,1-.864.816H312.3a5.559,5.559,0,0,0,5.52,5.137,8.2,8.2,0,0,0,4.273-1.392c.575-.336.912-.528,1.3-.048l1.345,1.824a.745.745,0,0,1-.1,1.248,11.024,11.024,0,0,1-7.1,2.4c-5.809,0-9.65-4.56-9.65-10.081C307.884,19.569,311.725,14.913,317.485,14.913Zm4.369,7.968a4.543,4.543,0,0,0-4.417-4.272,4.855,4.855,0,0,0-4.9,4.272Z" fill="#f1f2f2"/>
    <path d="M338.989,14.913a11.559,11.559,0,0,1,4.608,1.056V1.9a.945.945,0,0,1,.912-.912h2.784a.944.944,0,0,1,.913.912V33.682a.944.944,0,0,1-.913.912h-1.44c-.432,0-.72-.336-.864-.816l-.384-1.392a8.582,8.582,0,0,1-6.1,2.688c-5.088,0-8.976-4.56-8.976-10.081C329.532,19.377,333.661,14.913,338.989,14.913Zm.1,16.033a5.164,5.164,0,0,0,4.561-2.881V20.241a7.964,7.964,0,0,0-4.176-1.152c-3.217,0-5.472,2.64-5.472,5.9C334,28.209,336.012,30.946,339.084,30.946Z" fill="#f1f2f2"/>
  </g>
  <g>
    <path d="M0,1.392A.944.944,0,0,1,.912.48H4.081a.912.912,0,0,1,.912.912V14.785H22.562V1.392A.911.911,0,0,1,23.474.48h3.169a.944.944,0,0,1,.912.912V33.171a.944.944,0,0,1-.912.912H23.474a.911.911,0,0,1-.912-.912V19.3H4.993V33.171a.912.912,0,0,1-.912.912H.912A.944.944,0,0,1,0,33.171Z" fill="#00aeef"/>
    <path d="M42.577,14.4a8.645,8.645,0,0,1,8.833,8.881,11.769,11.769,0,0,1-.1,1.3.883.883,0,0,1-.864.816H37.393a5.559,5.559,0,0,0,5.52,5.137,8.2,8.2,0,0,0,4.273-1.392c.575-.336.912-.529,1.3-.049l1.345,1.825a.745.745,0,0,1-.1,1.248,11.03,11.03,0,0,1-7.1,2.4c-5.809,0-9.649-4.561-9.649-10.081C32.976,19.058,36.816,14.4,42.577,14.4Zm4.368,7.969A4.542,4.542,0,0,0,42.529,18.1a4.856,4.856,0,0,0-4.9,4.272Z" fill="#00aeef"/>
    <path d="M56.016,15.793a.944.944,0,0,1,.912-.912H58.32a.913.913,0,0,1,.816.672l.528,1.633A6.842,6.842,0,0,1,65.281,14.4c1.824,0,4.032.48,3.5,1.776L67.633,18.53a.819.819,0,0,1-1.153.432,4.379,4.379,0,0,0-1.631-.337,5.06,5.06,0,0,0-4.321,2.353V33.171c0,.816-.528.912-1.3.912h-2.3a.944.944,0,0,1-.912-.912Z" fill="#00aeef"/>
    <path d="M70.992,31.587,72,29.715a.828.828,0,0,1,1.2-.24,9.945,9.945,0,0,0,4.464,1.248c1.44,0,2.353-.577,2.353-1.633,0-1.3-1.057-1.92-3.7-3.12-2.976-1.3-5.472-3.12-5.472-6.288,0-2.4,1.968-5.281,6.576-5.281a10.76,10.76,0,0,1,5.665,1.489,1.072,1.072,0,0,1,.384,1.392l-.865,1.632a1.008,1.008,0,0,1-1.248.384,10.964,10.964,0,0,0-3.936-1.008c-1.632,0-2.16.72-2.16,1.44,0,1.248,1.2,1.776,3.072,2.592,3.5,1.536,6.385,3.024,6.385,6.625,0,2.976-2.832,5.616-7.105,5.616A10.068,10.068,0,0,1,71.28,32.6.808.808,0,0,1,70.992,31.587Z" fill="#00aeef"/>
    <path d="M89.327,1.392A.944.944,0,0,1,90.239.48h2.784a.945.945,0,0,1,.913.912V16.465A9.89,9.89,0,0,1,99.7,14.4c5.425,0,8.017,3.889,8.017,9.121v9.649a.944.944,0,0,1-.912.912h-2.688a.911.911,0,0,1-.912-.912V23.426c0-3.12-1.585-4.848-4.081-4.848A5.928,5.928,0,0,0,93.936,21.6V33.171a.87.87,0,0,1-.96.912H90.239a.944.944,0,0,1-.912-.912Z" fill="#00aeef"/>
    <path d="M121.919,14.4a8.645,8.645,0,0,1,8.833,8.881,11.767,11.767,0,0,1-.095,1.3.884.884,0,0,1-.865.816H116.735a5.56,5.56,0,0,0,5.52,5.137,8.189,8.189,0,0,0,4.273-1.392c.576-.336.912-.529,1.3-.049l1.344,1.825a.745.745,0,0,1-.1,1.248,11.031,11.031,0,0,1-7.105,2.4c-5.808,0-9.648-4.561-9.648-10.081C112.319,19.058,116.159,14.4,121.919,14.4Zm4.369,7.969a4.542,4.542,0,0,0-4.416-4.272,4.856,4.856,0,0,0-4.9,4.272Z" fill="#00aeef"/>
    <path d="M132.766,16.129a.848.848,0,0,1,.817-1.248h3.167a1.047,1.047,0,0,1,.817.528l5.952,12.77h.048l5.761-12.77a.967.967,0,0,1,1.007-.528h2.737a.822.822,0,0,1,.816,1.248L139.2,47.908a.961.961,0,0,1-.817.576H135.5a.86.86,0,0,1-.816-1.3l6.433-13.777Z" fill="#00aeef"/>
    <path d="M165.166,32.835,179.9.528A1.121,1.121,0,0,1,180.718,0h.481a1.123,1.123,0,0,1,.816.528l14.641,32.307a.847.847,0,0,1-.816,1.248h-3.024a1.121,1.121,0,0,1-1.1-.72l-2.976-6.576h-15.7c-.96,2.208-1.968,4.368-2.928,6.576a1.208,1.208,0,0,1-1.105.72h-3.024A.847.847,0,0,1,165.166,32.835Zm21.746-10.177L181.006,9.505h-.239L174.91,22.658Z" fill="#00aeef"/>
    <path d="M207.79,14.4a11.535,11.535,0,0,1,4.608,1.057V1.392A.945.945,0,0,1,213.31.48h2.784a.943.943,0,0,1,.912.912V33.171a.943.943,0,0,1-.912.912h-1.439c-.433,0-.721-.336-.864-.816l-.385-1.392a8.581,8.581,0,0,1-6.1,2.688c-5.089,0-8.977-4.561-8.977-10.081C198.333,18.866,202.461,14.4,207.79,14.4Zm.095,16.034a5.162,5.162,0,0,0,4.561-2.881V19.73a7.964,7.964,0,0,0-4.176-1.152c-3.217,0-5.473,2.64-5.473,5.9C202.8,27.7,204.813,30.435,207.885,30.435Z" fill="#00aeef"/>
    <path d="M220.652,15.985c-.287-.624,0-1.1.721-1.1h2.832a.886.886,0,0,1,.864.528l4.992,11.329h.048l5.184-11.329c.241-.528.769-.528,1.3-.528H238.8c.72,0,1.008.48.72,1.1l-8.5,18.1a.851.851,0,0,1-.815.48h-.241a.851.851,0,0,1-.816-.48Z" fill="#00aeef"/>
    <path d="M249.453,21.938a13.825,13.825,0,0,1,3.793.576c.047-3.024-.529-4.224-2.977-4.224a20.4,20.4,0,0,0-5.376.864c-.576.144-.912-.24-1.057-.768l-.383-1.777a.861.861,0,0,1,.624-1.1,19.8,19.8,0,0,1,6.624-1.1c6.144,0,6.72,3.745,6.72,8.545V33.171a.943.943,0,0,1-.912.912h-1.343c-.432,0-.624-.192-.817-.672l-.479-1.3a8.288,8.288,0,0,1-5.905,2.448c-3.6,0-6.193-2.448-6.193-6.433C241.772,24.626,244.556,21.938,249.453,21.938Zm-.576,9.217a5.679,5.679,0,0,0,4.321-2.4V25.682a7.23,7.23,0,0,0-3.361-.768c-2.3,0-3.888,1.2-3.888,3.169A2.887,2.887,0,0,0,248.877,31.155Z" fill="#00aeef"/>
    <path d="M263.468,15.793a.944.944,0,0,1,.912-.912h1.392a.779.779,0,0,1,.769.577l.576,1.631a9.823,9.823,0,0,1,6.72-2.688c5.857,0,8.017,4.129,8.017,9.121v9.649a.945.945,0,0,1-.912.912h-2.736a.912.912,0,0,1-.913-.912V23.33c0-3.072-1.488-4.752-3.984-4.752a6.349,6.349,0,0,0-5.328,2.88V33.171c0,.624-.288.912-1.105.912h-2.5a.944.944,0,0,1-.912-.912Z" fill="#00aeef"/>
    <path d="M296.493,14.4a8.511,8.511,0,0,1,6.961,3.409.939.939,0,0,1-.193,1.344l-1.584,1.44c-.576.528-.912.144-1.3-.192a5.335,5.335,0,0,0-3.84-1.824,5.713,5.713,0,0,0-5.569,5.9,5.689,5.689,0,0,0,5.521,5.953c2.448,0,3.456-1.248,4.465-2.208a.876.876,0,0,1,1.295-.1l1.3,1.057c.481.384.672.864.336,1.344a8.515,8.515,0,0,1-7.44,4.032A10,10,0,0,1,286.412,24.53,10.215,10.215,0,0,1,296.493,14.4Z" fill="#00aeef"/>
    <path d="M316.892,14.4a8.645,8.645,0,0,1,8.833,8.881,11.769,11.769,0,0,1-.1,1.3.883.883,0,0,1-.864.816H311.708a5.559,5.559,0,0,0,5.52,5.137,8.182,8.182,0,0,0,4.272-1.392c.577-.336.913-.529,1.3-.049l1.345,1.825a.745.745,0,0,1-.1,1.248,11.025,11.025,0,0,1-7.1,2.4c-5.809,0-9.648-4.561-9.648-10.081C307.292,19.058,311.131,14.4,316.892,14.4Zm4.368,7.969a4.54,4.54,0,0,0-4.416-4.272,4.857,4.857,0,0,0-4.9,4.272Z" fill="#00aeef"/>
    <path d="M338.4,14.4A11.535,11.535,0,0,1,343,15.458V1.392a.944.944,0,0,1,.913-.912H346.7a.945.945,0,0,1,.912.912V33.171a.945.945,0,0,1-.912.912H345.26c-.431,0-.719-.336-.864-.816l-.384-1.392a8.581,8.581,0,0,1-6.1,2.688c-5.088,0-8.977-4.561-8.977-10.081C328.939,18.866,333.067,14.4,338.4,14.4Zm.1,16.034a5.163,5.163,0,0,0,4.56-2.881V19.73a7.966,7.966,0,0,0-4.177-1.152c-3.215,0-5.472,2.64-5.472,5.9C333.4,27.7,335.419,30.435,338.492,30.435Z" fill="#00aeef"/>
  </g>
</svg>
