<svg id="Layer_1" data-name="Layer 1" xmlns="http://www.w3.org/2000/svg" width="382.413" height="33.502" viewBox="0 0 382.413 33.502">
  <g>
    <path d="M81.063.87a.57.57,0,0,1,.57-.57h8.16a6.473,6.473,0,0,1,6.54,6.42,6.659,6.659,0,0,1-4.44,6.09L96,20.429a.568.568,0,0,1-.51.87h-2.34a.552.552,0,0,1-.48-.27l-3.99-7.949h-4.53v7.649a.59.59,0,0,1-.57.57h-1.95a.57.57,0,0,1-.57-.57Zm8.49,9.63a3.727,3.727,0,0,0,3.66-3.72,3.677,3.677,0,0,0-3.66-3.57h-5.34V10.5Z" fill="#00aeef"/>
    <path d="M104.163,9a5.4,5.4,0,0,1,5.52,5.55,7.338,7.338,0,0,1-.06.809.553.553,0,0,1-.54.511h-8.16a3.475,3.475,0,0,0,3.45,3.21,5.109,5.109,0,0,0,2.67-.871c.36-.209.57-.33.81-.029l.84,1.139a.467.467,0,0,1-.06.781,6.9,6.9,0,0,1-4.44,1.5,6,6,0,0,1-6.03-6.3A6.029,6.029,0,0,1,104.163,9Zm2.73,4.979a2.838,2.838,0,0,0-2.76-2.669,3.035,3.035,0,0,0-3.06,2.669Z" fill="#00aeef"/>
    <path d="M112.563,9.87a.59.59,0,0,1,.57-.57H114a.486.486,0,0,1,.48.36l.36,1.02a6.136,6.136,0,0,1,4.2-1.68c3.659,0,5.009,2.58,5.009,5.7v6.029a.59.59,0,0,1-.569.57h-1.71a.57.57,0,0,1-.571-.57V14.58c0-1.92-.929-2.97-2.489-2.97a3.969,3.969,0,0,0-3.33,1.8v7.319c0,.39-.18.57-.69.57h-1.56a.59.59,0,0,1-.57-.57Z" fill="#00aeef"/>
    <path d="M132.842,9a7.225,7.225,0,0,1,2.88.66V.87a.59.59,0,0,1,.57-.57h1.74a.59.59,0,0,1,.57.57V20.729a.59.59,0,0,1-.57.57h-.9c-.271,0-.451-.21-.541-.509l-.24-.871a5.363,5.363,0,0,1-3.809,1.68c-3.181,0-5.61-2.849-5.61-6.3A6.052,6.052,0,0,1,132.842,9Zm.061,10.02a3.229,3.229,0,0,0,2.849-1.8V12.33a4.978,4.978,0,0,0-2.61-.72,3.485,3.485,0,0,0-3.42,3.69C129.722,17.31,130.983,19.02,132.9,19.02Z" fill="#00aeef"/>
    <path d="M147.632,9a5.4,5.4,0,0,1,5.52,5.55,7.338,7.338,0,0,1-.06.809.552.552,0,0,1-.54.511h-8.16a3.475,3.475,0,0,0,3.45,3.21,5.109,5.109,0,0,0,2.67-.871c.36-.209.57-.33.81-.029l.84,1.139a.467.467,0,0,1-.06.781,6.9,6.9,0,0,1-4.44,1.5,6,6,0,0,1-6.029-6.3A6.029,6.029,0,0,1,147.632,9Zm2.73,4.979a2.838,2.838,0,0,0-2.76-2.669,3.035,3.035,0,0,0-3.06,2.669Z" fill="#00aeef"/>
    <path d="M156.032,9.87a.59.59,0,0,1,.57-.57h.87a.57.57,0,0,1,.51.42l.33,1.02A4.276,4.276,0,0,1,161.822,9c1.14,0,2.52.3,2.189,1.11l-.719,1.47a.512.512,0,0,1-.72.27,2.746,2.746,0,0,0-1.021-.21,3.159,3.159,0,0,0-2.7,1.47v7.619c0,.51-.33.57-.81.57H156.6a.59.59,0,0,1-.57-.57Z" fill="#00aeef"/>
    <path d="M172.322,18.27c.27-.391.511-.84.78-1.23a.679.679,0,0,1,1.02-.241c.18.151,2.49,2.071,4.8,2.071,2.069,0,3.389-1.261,3.389-2.79,0-1.8-1.56-2.94-4.53-4.17-3.06-1.29-5.46-2.88-5.46-6.36,0-2.34,1.8-5.55,6.57-5.55a10.164,10.164,0,0,1,5.55,1.77.713.713,0,0,1,.18,1.02c-.24.36-.51.78-.75,1.14a.709.709,0,0,1-1.05.3,9.226,9.226,0,0,0-4.05-1.5c-2.519,0-3.389,1.59-3.389,2.7,0,1.71,1.319,2.76,3.809,3.78,3.48,1.41,6.449,3.06,6.449,6.72,0,3.119-2.789,5.669-6.689,5.669a9.712,9.712,0,0,1-6.449-2.37C172.232,18.989,172.022,18.779,172.322,18.27Z" fill="#00aeef"/>
    <path d="M189.121,11.79h-1.26a.569.569,0,0,1-.569-.57V9.87a.551.551,0,0,1,.569-.57h1.26V5.97a.59.59,0,0,1,.57-.57l1.71-.03a.564.564,0,0,1,.54.57V9.3H195a.552.552,0,0,1,.57.57v1.35a.57.57,0,0,1-.57.57h-3.06v5.939c0,1.021.39,1.2.96,1.2a4.906,4.906,0,0,0,1.83-.539.449.449,0,0,1,.69.269l.54,1.32a.5.5,0,0,1-.27.72,9.2,9.2,0,0,1-3.51.9c-2.37,0-3.06-1.44-3.06-3.57Z" fill="#00aeef"/>
    <path d="M198.721,9.87a.59.59,0,0,1,.57-.57h.87a.57.57,0,0,1,.51.42l.33,1.02A4.275,4.275,0,0,1,204.51,9c1.141,0,2.521.3,2.191,1.11l-.72,1.47a.512.512,0,0,1-.721.27,2.734,2.734,0,0,0-1.019-.21,3.16,3.16,0,0,0-2.7,1.47v7.619c0,.51-.33.57-.81.57h-1.44a.59.59,0,0,1-.57-.57Z" fill="#00aeef"/>
    <path d="M213.872,9a6.206,6.206,0,0,1,6.06,6.27,6.066,6.066,0,1,1-12.12,0A6.206,6.206,0,0,1,213.872,9Zm0,10.02a3.573,3.573,0,0,0,3.39-3.75,3.4,3.4,0,1,0-6.78,0A3.573,3.573,0,0,0,213.872,19.02Z" fill="#00aeef"/>
    <path d="M222.931.87A.59.59,0,0,1,223.5.3h1.74a.59.59,0,0,1,.57.57V13.859l4.68-4.2a1.184,1.184,0,0,1,.75-.36h2.1a.466.466,0,0,1,.33.81l-4.98,4.53,5.88,5.88a.444.444,0,0,1-.33.779h-2.46a.764.764,0,0,1-.54-.239l-5.43-5.581v5.25a.59.59,0,0,1-.57.57H223.5a.59.59,0,0,1-.57-.57Z" fill="#00aeef"/>
    <path d="M241.862,9a5.4,5.4,0,0,1,5.52,5.55,7.34,7.34,0,0,1-.061.809.551.551,0,0,1-.539.511h-8.16a3.475,3.475,0,0,0,3.45,3.21,5.112,5.112,0,0,0,2.67-.871c.359-.209.569-.33.809-.029l.84,1.139a.467.467,0,0,1-.059.781,6.9,6.9,0,0,1-4.441,1.5,6,6,0,0,1-6.029-6.3A6.029,6.029,0,0,1,241.862,9Zm2.73,4.979a2.839,2.839,0,0,0-2.76-2.669,3.035,3.035,0,0,0-3.06,2.669Z" fill="#00aeef"/>
    <path d="M260.7,3.12h-4.89a.57.57,0,0,1-.57-.57V.87a.57.57,0,0,1,.57-.57h12.9a.569.569,0,0,1,.569.57V2.55a.569.569,0,0,1-.569.57H263.82V20.729a.59.59,0,0,1-.569.57H261.27a.589.589,0,0,1-.569-.57Z" fill="#00aeef"/>
    <path d="M274.53,9a5.4,5.4,0,0,1,5.52,5.55,7.34,7.34,0,0,1-.061.809.551.551,0,0,1-.539.511h-8.16a3.475,3.475,0,0,0,3.45,3.21,5.112,5.112,0,0,0,2.67-.871c.359-.209.569-.33.809-.029l.84,1.139A.467.467,0,0,1,279,20.1a6.9,6.9,0,0,1-4.441,1.5,6,6,0,0,1-6.029-6.3A6.029,6.029,0,0,1,274.53,9Zm2.729,4.979A2.837,2.837,0,0,0,274.5,11.31a3.035,3.035,0,0,0-3.06,2.669Z" fill="#00aeef"/>
    <path d="M285.749,15.18l-3.78-5.07a.469.469,0,0,1,.36-.81h1.95a.864.864,0,0,1,.72.33l2.4,3.45h.03l2.459-3.45a.817.817,0,0,1,.691-.33h1.979c.511,0,.66.39.361.78l-3.78,5.069,3.81,5.371c.269.389.12.779-.36.779H290.7a.814.814,0,0,1-.63-.36l-2.64-3.719h-.03l-2.7,3.84a.579.579,0,0,1-.48.239h-2.01c-.51,0-.63-.39-.36-.779Z" fill="#00aeef"/>
    <path d="M296.608,11.79h-1.26a.569.569,0,0,1-.569-.57V9.87a.551.551,0,0,1,.569-.57h1.26V5.97a.591.591,0,0,1,.57-.57l1.71-.03a.564.564,0,0,1,.54.57V9.3h3.06a.552.552,0,0,1,.57.57v1.35a.57.57,0,0,1-.57.57h-3.06v5.939c0,1.021.39,1.2.96,1.2a4.906,4.906,0,0,0,1.83-.539.449.449,0,0,1,.69.269l.54,1.32a.5.5,0,0,1-.27.72,9.194,9.194,0,0,1-3.509.9c-2.37,0-3.061-1.44-3.061-3.57Z" fill="#00aeef"/>
  </g>
  <line x1="0.5" y1="33.002" x2="381.913" y2="33.002" fill="none" stroke="#00aeef" stroke-linecap="round" stroke-linejoin="round"/>
</svg>
