<svg id="Layer_1" data-name="Layer 1" xmlns="http://www.w3.org/2000/svg" width="382.413" height="33.502" viewBox="0 0 382.413 33.502">
  <g>
    <path d="M93.993,3.12H89.1a.57.57,0,0,1-.57-.57V.87A.57.57,0,0,1,89.1.3H102a.57.57,0,0,1,.57.57V2.55a.57.57,0,0,1-.57.57h-4.89V20.729a.59.59,0,0,1-.57.57h-1.98a.59.59,0,0,1-.57-.57Z" fill="#00aeef"/>
    <path d="M107.823,9a5.4,5.4,0,0,1,5.52,5.55,7.338,7.338,0,0,1-.06.809.552.552,0,0,1-.54.511h-8.16a3.475,3.475,0,0,0,3.45,3.21,5.109,5.109,0,0,0,2.67-.871c.36-.209.57-.33.81-.029l.84,1.139a.467.467,0,0,1-.06.781,6.9,6.9,0,0,1-4.44,1.5,6,6,0,0,1-6.03-6.3A6.029,6.029,0,0,1,107.823,9Zm2.73,4.979a2.838,2.838,0,0,0-2.76-2.669,3.035,3.035,0,0,0-3.06,2.669Z" fill="#00aeef"/>
    <path d="M119.043,15.18l-3.78-5.07a.468.468,0,0,1,.36-.81h1.95a.866.866,0,0,1,.72.33l2.4,3.45h.03l2.46-3.45a.814.814,0,0,1,.69-.33h1.98c.509,0,.659.39.36.78l-3.78,5.069,3.81,5.371c.269.389.119.779-.36.779h-1.89a.815.815,0,0,1-.63-.36l-2.64-3.719h-.03l-2.7,3.84a.579.579,0,0,1-.48.239H115.5c-.51,0-.63-.39-.36-.779Z" fill="#00aeef"/>
    <path d="M129.9,11.79h-1.26a.57.57,0,0,1-.57-.57V9.87a.552.552,0,0,1,.57-.57h1.26V5.97a.59.59,0,0,1,.57-.57l1.71-.03a.564.564,0,0,1,.54.57V9.3h3.06a.552.552,0,0,1,.57.57v1.35a.57.57,0,0,1-.57.57h-3.06v5.939c0,1.021.39,1.2.96,1.2a4.906,4.906,0,0,0,1.83-.539.449.449,0,0,1,.69.269l.54,1.32a.5.5,0,0,1-.27.72,9.2,9.2,0,0,1-3.51.9c-2.37,0-3.06-1.44-3.06-3.57Z" fill="#00aeef"/>
    <path d="M144.242,20.52,153.452.33a.7.7,0,0,1,.51-.33h.3a.7.7,0,0,1,.51.33l9.15,20.19a.529.529,0,0,1-.51.779h-1.89a.7.7,0,0,1-.69-.45l-1.86-4.11h-9.81c-.6,1.381-1.23,2.73-1.83,4.11a.751.751,0,0,1-.69.45h-1.889A.53.53,0,0,1,144.242,20.52Zm13.59-6.36-3.69-8.22h-.15l-3.66,8.22Z" fill="#00aeef"/>
    <path d="M170.882,9a7.212,7.212,0,0,1,2.879.66V.87a.591.591,0,0,1,.571-.57h1.74a.589.589,0,0,1,.569.57V20.729a.589.589,0,0,1-.569.57h-.9c-.27,0-.451-.21-.54-.509l-.24-.871a5.363,5.363,0,0,1-3.81,1.68c-3.18,0-5.61-2.849-5.61-6.3A6.053,6.053,0,0,1,170.882,9Zm.06,10.02a3.23,3.23,0,0,0,2.85-1.8V12.33a4.978,4.978,0,0,0-2.61-.72,3.485,3.485,0,0,0-3.42,3.69C167.762,17.31,169.022,19.02,170.942,19.02Z" fill="#00aeef"/>
    <path d="M180.543,9.87a.569.569,0,0,1,.569-.57h1.74a.57.57,0,0,1,.571.57V25.019c0,3.72-2.22,5.58-5.1,5.58a5.226,5.226,0,0,1-3.42-1.2.55.55,0,0,1-.12-.69l.75-1.35c.149-.27.449-.27.75-.09a4.092,4.092,0,0,0,1.979.75c1.35,0,2.281-.96,2.281-3Zm-.3-7.2A1.723,1.723,0,0,1,181.952.9a1.755,1.755,0,1,1,0,3.51A1.716,1.716,0,0,1,180.243,2.67Z" fill="#00aeef"/>
    <path d="M187.142,9.87a.591.591,0,0,1,.571-.57h1.71a.591.591,0,0,1,.57.57v6.15c0,1.949.93,3,2.46,3a3.2,3.2,0,0,0,2.97-1.98V9.87c0-.48.24-.57.66-.57h1.559a.591.591,0,0,1,.571.57V20.729a.591.591,0,0,1-.571.57h-.84c-.3,0-.45-.21-.54-.48l-.3-.87A5.435,5.435,0,0,1,192,21.6c-3.6,0-4.861-2.55-4.861-5.669Z" fill="#00aeef"/>
    <path d="M201.392,19.739l.631-1.17a.518.518,0,0,1,.75-.15,6.209,6.209,0,0,0,2.789.78c.9,0,1.471-.36,1.471-1.019,0-.81-.66-1.2-2.311-1.951-1.859-.81-3.42-1.949-3.42-3.929,0-1.5,1.231-3.3,4.111-3.3a6.733,6.733,0,0,1,3.54.93.67.67,0,0,1,.239.87l-.54,1.02a.629.629,0,0,1-.779.24,6.864,6.864,0,0,0-2.46-.63c-1.021,0-1.351.45-1.351.9,0,.78.75,1.109,1.92,1.62,2.191.96,3.99,1.889,3.99,4.139,0,1.86-1.769,3.51-4.439,3.51a6.29,6.29,0,0,1-3.96-1.23A.5.5,0,0,1,201.392,19.739Z" fill="#00aeef"/>
    <path d="M213.632,11.79h-1.26a.57.57,0,0,1-.57-.57V9.87a.552.552,0,0,1,.57-.57h1.26V5.97a.59.59,0,0,1,.57-.57l1.71-.03a.564.564,0,0,1,.54.57V9.3h3.059a.552.552,0,0,1,.571.57v1.35a.57.57,0,0,1-.571.57h-3.059v5.939c0,1.021.39,1.2.96,1.2a4.906,4.906,0,0,0,1.83-.539.448.448,0,0,1,.689.269l.54,1.32a.5.5,0,0,1-.269.72,9.2,9.2,0,0,1-3.51.9c-2.37,0-3.06-1.44-3.06-3.57Z" fill="#00aeef"/>
    <path d="M223.232,9.87a.59.59,0,0,1,.569-.57h.84a.523.523,0,0,1,.511.36l.33,1.02A5.573,5.573,0,0,1,229.442,9a4.452,4.452,0,0,1,3.869,1.92A6.685,6.685,0,0,1,237.661,9c3.66,0,4.95,2.58,4.95,5.7v6.029a.57.57,0,0,1-.57.57h-1.68a.57.57,0,0,1-.57-.57V14.58c0-1.891-.869-2.97-2.49-2.97a4.312,4.312,0,0,0-3.089,1.47,8.512,8.512,0,0,1,.089,1.44v6.209a.59.59,0,0,1-.57.57h-1.59a.569.569,0,0,1-.569-.57V14.58c0-1.92-.87-2.97-2.551-2.97a3.406,3.406,0,0,0-2.97,1.8v7.319a.589.589,0,0,1-.569.57H223.8a.59.59,0,0,1-.569-.57Z" fill="#00aeef"/>
    <path d="M251.492,9a5.4,5.4,0,0,1,5.519,5.55,7.338,7.338,0,0,1-.06.809.551.551,0,0,1-.54.511h-8.159a3.475,3.475,0,0,0,3.45,3.21,5.112,5.112,0,0,0,2.67-.871c.359-.209.569-.33.809-.029l.84,1.139a.467.467,0,0,1-.059.781,6.9,6.9,0,0,1-4.441,1.5,6,6,0,0,1-6.029-6.3A6.029,6.029,0,0,1,251.492,9Zm2.729,4.979a2.837,2.837,0,0,0-2.759-2.669,3.035,3.035,0,0,0-3.06,2.669Z" fill="#00aeef"/>
    <path d="M259.891,9.87a.59.59,0,0,1,.57-.57h.87a.486.486,0,0,1,.48.36l.36,1.02a6.134,6.134,0,0,1,4.2-1.68c3.66,0,5.01,2.58,5.01,5.7v6.029a.59.59,0,0,1-.571.57H269.1a.569.569,0,0,1-.569-.57V14.58c0-1.92-.931-2.97-2.49-2.97a3.969,3.969,0,0,0-3.33,1.8v7.319c0,.39-.18.57-.69.57h-1.56a.59.59,0,0,1-.57-.57Z" fill="#00aeef"/>
    <path d="M275.821,11.79h-1.26a.569.569,0,0,1-.569-.57V9.87a.551.551,0,0,1,.569-.57h1.26V5.97a.591.591,0,0,1,.57-.57l1.71-.03a.564.564,0,0,1,.54.57V9.3h3.06a.552.552,0,0,1,.57.57v1.35a.57.57,0,0,1-.57.57h-3.06v5.939c0,1.021.39,1.2.96,1.2a4.906,4.906,0,0,0,1.83-.539.449.449,0,0,1,.69.269l.54,1.32a.5.5,0,0,1-.27.72,9.194,9.194,0,0,1-3.509.9c-2.371,0-3.061-1.44-3.061-3.57Z" fill="#00aeef"/>
    <path d="M284.7,19.739l.631-1.17a.518.518,0,0,1,.75-.15,6.209,6.209,0,0,0,2.789.78c.9,0,1.471-.36,1.471-1.019,0-.81-.661-1.2-2.311-1.951-1.859-.81-3.42-1.949-3.42-3.929,0-1.5,1.231-3.3,4.11-3.3a6.727,6.727,0,0,1,3.54.93.67.67,0,0,1,.24.87l-.54,1.02a.631.631,0,0,1-.78.24,6.857,6.857,0,0,0-2.46-.63c-1.02,0-1.35.45-1.35.9,0,.78.75,1.109,1.92,1.62,2.19.96,3.99,1.889,3.99,4.139,0,1.86-1.77,3.51-4.439,3.51a6.288,6.288,0,0,1-3.96-1.23A.5.5,0,0,1,284.7,19.739Z" fill="#00aeef"/>
  </g>
  <line x1="0.5" y1="33.002" x2="381.913" y2="33.002" fill="none" stroke="#00aeef" stroke-linecap="round" stroke-linejoin="round"/>
</svg>
