<svg id="Layer_1" data-name="Layer 1" xmlns="http://www.w3.org/2000/svg" width="382.413" height="33.202" viewBox="0 0 382.413 33.202">
  <g>
    <path d="M94.428.57A.59.59,0,0,1,95,0h2.01a.57.57,0,0,1,.57.57V12.959c0,3,1.92,5.34,4.98,5.34a4.947,4.947,0,0,0,5.04-5.279V.57a.57.57,0,0,1,.57-.57h2.009a.59.59,0,0,1,.571.57v12.6a8.16,8.16,0,0,1-16.32,0Z" fill="#00aeef"/>
    <path d="M115.488,11.489h-1.26a.57.57,0,0,1-.57-.57V9.569a.551.551,0,0,1,.57-.569h1.26V5.669a.59.59,0,0,1,.57-.569l1.71-.03a.564.564,0,0,1,.54.57V9h3.06a.552.552,0,0,1,.57.569v1.35a.57.57,0,0,1-.57.57h-3.06v5.94c0,1.02.39,1.2.96,1.2a4.893,4.893,0,0,0,1.83-.54.449.449,0,0,1,.69.27l.54,1.32a.5.5,0,0,1-.27.72,9.206,9.206,0,0,1-3.51.9c-2.37,0-3.06-1.44-3.06-3.57Z" fill="#00aeef"/>
    <path d="M124.758,2.37A1.723,1.723,0,0,1,126.468.6a1.755,1.755,0,1,1,0,3.51A1.716,1.716,0,0,1,124.758,2.37Zm.33,7.2a.59.59,0,0,1,.57-.569h1.71a.59.59,0,0,1,.57.569v10.86a.59.59,0,0,1-.57.57h-1.71a.59.59,0,0,1-.57-.57Z" fill="#00aeef"/>
    <path d="M131.837.57a.59.59,0,0,1,.57-.57h1.71a.59.59,0,0,1,.57.57V20.429a.59.59,0,0,1-.57.57h-1.71a.59.59,0,0,1-.57-.57Z" fill="#00aeef"/>
    <path d="M138.257,2.37A1.723,1.723,0,0,1,139.967.6a1.755,1.755,0,1,1,0,3.51A1.716,1.716,0,0,1,138.257,2.37Zm.33,7.2a.59.59,0,0,1,.57-.569h1.71a.59.59,0,0,1,.57.569v10.86a.59.59,0,0,1-.57.57h-1.71a.59.59,0,0,1-.57-.57Z" fill="#00aeef"/>
    <path d="M146.116,11.489h-1.26a.57.57,0,0,1-.57-.57V9.569a.552.552,0,0,1,.57-.569h1.26V5.669a.59.59,0,0,1,.57-.569l1.71-.03a.564.564,0,0,1,.54.57V9H152a.551.551,0,0,1,.57.569v1.35a.57.57,0,0,1-.57.57h-3.06v5.94c0,1.02.39,1.2.96,1.2a4.887,4.887,0,0,0,1.83-.54.449.449,0,0,1,.69.27l.54,1.32a.5.5,0,0,1-.27.72,9.2,9.2,0,0,1-3.51.9c-2.37,0-3.06-1.44-3.06-3.57Z" fill="#00aeef"/>
    <path d="M154.1,9.779a.529.529,0,0,1,.51-.779h1.98a.65.65,0,0,1,.51.33l3.72,7.979h.03l3.6-7.979a.6.6,0,0,1,.63-.33h1.71a.514.514,0,0,1,.51.779l-9.18,19.86a.6.6,0,0,1-.51.36h-1.8a.538.538,0,0,1-.51-.811l4.02-8.609Z" fill="#00aeef"/>
    <path d="M177.166.57a.569.569,0,0,1,.569-.57h12a.57.57,0,0,1,.57.57V2.25a.57.57,0,0,1-.57.57h-9.479V9.75h8.009a.59.59,0,0,1,.57.569v1.65a.59.59,0,0,1-.57.571h-8.009v7.889a.591.591,0,0,1-.571.57h-1.95a.569.569,0,0,1-.569-.57Z" fill="#00aeef"/>
    <path d="M192.015,9.569A.591.591,0,0,1,192.586,9h1.71a.591.591,0,0,1,.57.569v6.15c0,1.95.93,3,2.46,3a3.2,3.2,0,0,0,2.97-1.98V9.569c0-.48.24-.569.66-.569h1.559a.591.591,0,0,1,.571.569v10.86a.591.591,0,0,1-.571.57h-.84c-.3,0-.45-.21-.54-.48l-.3-.87a5.435,5.435,0,0,1-3.96,1.65c-3.6,0-4.861-2.55-4.861-5.67Z" fill="#00aeef"/>
    <path d="M206.986,9.569A.59.59,0,0,1,207.555,9h.87a.487.487,0,0,1,.481.359l.359,1.02a6.143,6.143,0,0,1,4.2-1.679c3.66,0,5.009,2.579,5.009,5.7v6.03a.589.589,0,0,1-.57.57H216.2a.569.569,0,0,1-.569-.57v-6.15c0-1.92-.931-2.969-2.491-2.969a3.972,3.972,0,0,0-3.33,1.8v7.32c0,.39-.179.57-.689.57h-1.561a.59.59,0,0,1-.569-.57Z" fill="#00aeef"/>
    <path d="M227.626,8.7a5.314,5.314,0,0,1,4.349,2.13.585.585,0,0,1-.12.839l-.989.9c-.36.33-.57.09-.811-.12a3.335,3.335,0,0,0-2.4-1.139A3.57,3.57,0,0,0,224.175,15a3.476,3.476,0,0,0,6.241,2.339.548.548,0,0,1,.809-.06l.811.66c.3.24.42.54.21.84A5.322,5.322,0,0,1,227.6,21.3a6.247,6.247,0,0,1-6.269-6.27A6.382,6.382,0,0,1,227.626,8.7Z" fill="#00aeef"/>
    <path d="M236.025,11.489h-1.26a.569.569,0,0,1-.569-.57V9.569A.551.551,0,0,1,234.765,9h1.26V5.669a.591.591,0,0,1,.57-.569l1.71-.03a.564.564,0,0,1,.54.57V9h3.06a.551.551,0,0,1,.57.569v1.35a.57.57,0,0,1-.57.57h-3.06v5.94c0,1.02.39,1.2.96,1.2a4.887,4.887,0,0,0,1.83-.54.449.449,0,0,1,.69.27l.54,1.32a.5.5,0,0,1-.27.72,9.194,9.194,0,0,1-3.509.9c-2.37,0-3.061-1.44-3.061-3.57Z" fill="#00aeef"/>
    <path d="M245.3,2.37A1.723,1.723,0,0,1,247.006.6a1.755,1.755,0,1,1,0,3.51A1.716,1.716,0,0,1,245.3,2.37Zm.33,7.2A.589.589,0,0,1,246.2,9h1.71a.589.589,0,0,1,.57.569v10.86a.589.589,0,0,1-.57.57H246.2a.589.589,0,0,1-.569-.57Z" fill="#00aeef"/>
    <path d="M257.535,8.7a6.206,6.206,0,0,1,6.06,6.269,6.066,6.066,0,1,1-12.12,0A6.206,6.206,0,0,1,257.535,8.7Zm0,10.019a3.573,3.573,0,0,0,3.39-3.75,3.4,3.4,0,1,0-6.78,0A3.573,3.573,0,0,0,257.535,18.719Z" fill="#00aeef"/>
    <path d="M266.6,9.569a.59.59,0,0,1,.57-.569h.87a.486.486,0,0,1,.48.359l.36,1.02a6.142,6.142,0,0,1,4.2-1.679c3.66,0,5.01,2.579,5.01,5.7v6.03a.59.59,0,0,1-.571.57H275.8a.569.569,0,0,1-.569-.57v-6.15c0-1.92-.931-2.969-2.49-2.969a3.969,3.969,0,0,0-3.33,1.8v7.32c0,.39-.18.57-.69.57h-1.56a.59.59,0,0,1-.57-.57Z" fill="#00aeef"/>
    <path d="M281.115,19.439l.631-1.17a.517.517,0,0,1,.75-.15,6.209,6.209,0,0,0,2.789.78c.9,0,1.471-.36,1.471-1.02,0-.81-.661-1.2-2.311-1.95-1.859-.81-3.42-1.95-3.42-3.929,0-1.5,1.231-3.3,4.11-3.3a6.738,6.738,0,0,1,3.54.929.672.672,0,0,1,.24.871l-.54,1.02a.63.63,0,0,1-.78.239,6.857,6.857,0,0,0-2.46-.63c-1.02,0-1.35.451-1.35.9,0,.781.75,1.11,1.92,1.62,2.19.96,3.99,1.89,3.99,4.14,0,1.86-1.77,3.51-4.439,3.51a6.288,6.288,0,0,1-3.96-1.23A.505.505,0,0,1,281.115,19.439Z" fill="#00aeef"/>
  </g>
  <line x1="0.5" y1="32.702" x2="381.913" y2="32.702" fill="none" stroke="#00aeef" stroke-linecap="round" stroke-linejoin="round"/>
</svg>
