<svg id="Layer_1" data-name="Layer 1" xmlns="http://www.w3.org/2000/svg" width="382.413" height="33.502" viewBox="0 0 382.413 33.502">
  <g>
    <path d="M40.024,20.52,49.234.33a.7.7,0,0,1,.51-.33h.3a.7.7,0,0,1,.51.33L59.7,20.52a.529.529,0,0,1-.509.779H57.3a.7.7,0,0,1-.69-.45l-1.859-4.11h-9.81c-.6,1.381-1.23,2.73-1.83,4.11a.752.752,0,0,1-.69.45h-1.89A.529.529,0,0,1,40.024,20.52Zm13.59-6.36-3.69-8.22h-.15l-3.66,8.22Z" fill="#00aeef"/>
    <path d="M61.623.87A.59.59,0,0,1,62.194.3h1.739a.59.59,0,0,1,.57.57V9.66A7.225,7.225,0,0,1,67.383,9a6.053,6.053,0,0,1,5.91,6.3c0,3.45-2.43,6.3-5.61,6.3a5.363,5.363,0,0,1-3.81-1.68l-.24.871c-.09.3-.27.509-.54.509h-.9a.59.59,0,0,1-.571-.57Zm5.7,18.15c1.92,0,3.18-1.71,3.18-3.72a3.485,3.485,0,0,0-3.42-3.69,5.129,5.129,0,0,0-2.61.69v4.92A3.23,3.23,0,0,0,67.323,19.02Z" fill="#00aeef"/>
    <path d="M81.483,9a6.206,6.206,0,0,1,6.06,6.27,6.066,6.066,0,1,1-12.12,0A6.206,6.206,0,0,1,81.483,9Zm0,10.02a3.573,3.573,0,0,0,3.39-3.75,3.4,3.4,0,1,0-6.78,0A3.573,3.573,0,0,0,81.483,19.02Z" fill="#00aeef"/>
    <path d="M90.363,9.87a.59.59,0,0,1,.57-.57h1.71a.59.59,0,0,1,.57.57v6.15c0,1.949.93,3,2.46,3a3.2,3.2,0,0,0,2.97-1.98V9.87c0-.48.24-.57.66-.57h1.56a.59.59,0,0,1,.57.57V20.729a.59.59,0,0,1-.57.57h-.84c-.3,0-.45-.21-.54-.48l-.3-.87a5.43,5.43,0,0,1-3.96,1.65c-3.6,0-4.86-2.55-4.86-5.669Z" fill="#00aeef"/>
    <path d="M106.113,11.79h-1.26a.57.57,0,0,1-.57-.57V9.87a.552.552,0,0,1,.57-.57h1.26V5.97a.59.59,0,0,1,.57-.57l1.71-.03a.564.564,0,0,1,.54.57V9.3h3.06a.552.552,0,0,1,.57.57v1.35a.57.57,0,0,1-.57.57h-3.06v5.939c0,1.021.39,1.2.96,1.2a4.906,4.906,0,0,0,1.83-.539.449.449,0,0,1,.69.269l.54,1.32a.5.5,0,0,1-.27.72,9.2,9.2,0,0,1-3.51.9c-2.37,0-3.06-1.44-3.06-3.57Z" fill="#00aeef"/>
    <path d="M123.273.87a.59.59,0,0,1,.57-.57h1.98a.57.57,0,0,1,.57.57V9.24h10.979V.87a.57.57,0,0,1,.57-.57h1.98a.59.59,0,0,1,.57.57V20.729a.59.59,0,0,1-.57.57h-1.98a.57.57,0,0,1-.57-.57V12.06H126.393v8.669a.57.57,0,0,1-.57.57h-1.98a.59.59,0,0,1-.57-.57Z" fill="#00aeef"/>
    <path d="M149.883,9a5.4,5.4,0,0,1,5.52,5.55,7.34,7.34,0,0,1-.061.809.552.552,0,0,1-.54.511h-8.159a3.474,3.474,0,0,0,3.449,3.21,5.1,5.1,0,0,0,2.67-.871c.361-.209.571-.33.81-.029l.84,1.139a.466.466,0,0,1-.06.781,6.894,6.894,0,0,1-4.439,1.5,6,6,0,0,1-6.03-6.3A6.029,6.029,0,0,1,149.883,9Zm2.729,4.979a2.837,2.837,0,0,0-2.759-2.669,3.035,3.035,0,0,0-3.06,2.669Z" fill="#00aeef"/>
    <path d="M158.282,9.87a.59.59,0,0,1,.571-.57h.869a.569.569,0,0,1,.51.42l.33,1.02A4.278,4.278,0,0,1,164.072,9c1.141,0,2.52.3,2.19,1.11l-.719,1.47a.513.513,0,0,1-.721.27,2.745,2.745,0,0,0-1.02-.21,3.16,3.16,0,0,0-2.7,1.47v7.619c0,.51-.33.57-.809.57h-1.44a.59.59,0,0,1-.571-.57Z" fill="#00aeef"/>
    <path d="M167.642,19.739l.631-1.17a.518.518,0,0,1,.75-.15,6.209,6.209,0,0,0,2.789.78c.9,0,1.471-.36,1.471-1.019,0-.81-.66-1.2-2.311-1.951-1.859-.81-3.42-1.949-3.42-3.929,0-1.5,1.231-3.3,4.111-3.3a6.733,6.733,0,0,1,3.54.93.67.67,0,0,1,.239.87l-.54,1.02a.629.629,0,0,1-.779.24,6.864,6.864,0,0,0-2.46-.63c-1.021,0-1.351.45-1.351.9,0,.78.75,1.109,1.92,1.62,2.191.96,3.99,1.889,3.99,4.139,0,1.86-1.769,3.51-4.439,3.51a6.29,6.29,0,0,1-3.96-1.23A.5.5,0,0,1,167.642,19.739Z" fill="#00aeef"/>
    <path d="M179.1.87a.59.59,0,0,1,.57-.57h1.74a.59.59,0,0,1,.57.57v9.42a6.181,6.181,0,0,1,3.6-1.29c3.389,0,5.01,2.43,5.01,5.7v6.029a.59.59,0,0,1-.571.57h-1.679a.57.57,0,0,1-.571-.57V14.64c0-1.951-.989-3.03-2.55-3.03a3.7,3.7,0,0,0-3.239,1.89v7.229a.544.544,0,0,1-.6.57h-1.71a.59.59,0,0,1-.57-.57Z" fill="#00aeef"/>
    <path d="M199.472,9a5.4,5.4,0,0,1,5.52,5.55,7.1,7.1,0,0,1-.061.809.55.55,0,0,1-.54.511h-8.159a3.475,3.475,0,0,0,3.45,3.21,5.109,5.109,0,0,0,2.67-.871c.36-.209.57-.33.81-.029l.84,1.139a.467.467,0,0,1-.06.781,6.9,6.9,0,0,1-4.44,1.5,6,6,0,0,1-6.03-6.3A6.029,6.029,0,0,1,199.472,9Zm2.73,4.979a2.838,2.838,0,0,0-2.76-2.669,3.033,3.033,0,0,0-3.059,2.669Z" fill="#00aeef"/>
    <path d="M206.252,10.08a.529.529,0,0,1,.509-.78h1.981a.652.652,0,0,1,.51.33l3.719,7.979H213l3.6-7.979a.6.6,0,0,1,.63-.33h1.71a.514.514,0,0,1,.51.78l-9.18,19.859a.6.6,0,0,1-.51.36h-1.8a.537.537,0,0,1-.51-.81l4.019-8.61Z" fill="#00aeef"/>
    <path d="M226.5,20.52,235.711.33A.7.7,0,0,1,236.22,0h.3a.7.7,0,0,1,.51.33l9.15,20.19a.529.529,0,0,1-.51.779h-1.89a.7.7,0,0,1-.689-.45l-1.861-4.11h-9.809c-.6,1.381-1.23,2.73-1.83,4.11a.754.754,0,0,1-.69.45H227.01A.529.529,0,0,1,226.5,20.52Zm13.59-6.36L236.4,5.94h-.149l-3.66,8.22Z" fill="#00aeef"/>
    <path d="M253.139,9a7.214,7.214,0,0,1,2.88.66V.87A.591.591,0,0,1,256.59.3h1.74a.589.589,0,0,1,.569.57V20.729a.589.589,0,0,1-.569.57h-.9c-.269,0-.45-.21-.54-.509l-.239-.871a5.363,5.363,0,0,1-3.81,1.68c-3.18,0-5.61-2.849-5.61-6.3A6.053,6.053,0,0,1,253.139,9Zm.061,10.02a3.23,3.23,0,0,0,2.85-1.8V12.33a4.978,4.978,0,0,0-2.61-.72,3.485,3.485,0,0,0-3.42,3.69C250.02,17.31,251.28,19.02,253.2,19.02Z" fill="#00aeef"/>
    <path d="M261.18,9.99c-.179-.39,0-.69.451-.69H263.4a.552.552,0,0,1,.54.33l3.12,7.079h.031L270.33,9.63c.15-.33.48-.33.81-.33h1.38c.449,0,.63.3.449.69L267.66,21.3a.532.532,0,0,1-.51.3H267a.532.532,0,0,1-.51-.3Z" fill="#00aeef"/>
    <path d="M279.18,13.709a8.612,8.612,0,0,1,2.37.361c.03-1.89-.33-2.64-1.86-2.64a12.739,12.739,0,0,0-3.359.54c-.361.09-.571-.15-.66-.48l-.241-1.11a.539.539,0,0,1,.39-.69A12.378,12.378,0,0,1,279.961,9c3.839,0,4.2,2.34,4.2,5.34v6.389a.59.59,0,0,1-.569.57h-.841c-.27,0-.39-.12-.51-.42l-.3-.81a5.176,5.176,0,0,1-3.689,1.53,3.726,3.726,0,0,1-3.87-4.019C274.381,15.39,276.121,13.709,279.18,13.709Zm-.36,5.76a3.55,3.55,0,0,0,2.7-1.5v-1.92a4.519,4.519,0,0,0-2.1-.48c-1.441,0-2.431.75-2.431,1.98A1.805,1.805,0,0,0,278.82,19.469Z" fill="#00aeef"/>
    <path d="M287.94,9.87a.59.59,0,0,1,.569-.57h.871a.486.486,0,0,1,.48.36l.359,1.02A6.137,6.137,0,0,1,294.42,9c3.66,0,5.009,2.58,5.009,5.7v6.029a.589.589,0,0,1-.57.57h-1.71a.569.569,0,0,1-.569-.57V14.58c0-1.92-.931-2.97-2.49-2.97a3.973,3.973,0,0,0-3.331,1.8v7.319c0,.39-.179.57-.689.57h-1.561a.59.59,0,0,1-.569-.57Z" fill="#00aeef"/>
    <path d="M308.58,9a5.314,5.314,0,0,1,4.349,2.13.586.586,0,0,1-.12.84l-.989.9c-.36.33-.57.089-.811-.12a3.332,3.332,0,0,0-2.4-1.14,3.57,3.57,0,0,0-3.48,3.69,3.476,3.476,0,0,0,6.24,2.34.548.548,0,0,1,.809-.06l.811.659c.3.24.42.54.21.841a5.323,5.323,0,0,1-4.65,2.519,6.247,6.247,0,0,1-6.27-6.269A6.383,6.383,0,0,1,308.58,9Z" fill="#00aeef"/>
    <path d="M321.33,9a5.4,5.4,0,0,1,5.519,5.55,7.338,7.338,0,0,1-.06.809.552.552,0,0,1-.54.511H318.09a3.474,3.474,0,0,0,3.45,3.21,5.112,5.112,0,0,0,2.67-.871c.359-.209.569-.33.809-.029l.84,1.139a.467.467,0,0,1-.059.781,6.9,6.9,0,0,1-4.441,1.5,6,6,0,0,1-6.029-6.3A6.029,6.029,0,0,1,321.33,9Zm2.729,4.979A2.838,2.838,0,0,0,321.3,11.31a3.034,3.034,0,0,0-3.06,2.669Z" fill="#00aeef"/>
    <path d="M334.768,9a7.214,7.214,0,0,1,2.88.66V.87a.591.591,0,0,1,.57-.57h1.741a.59.59,0,0,1,.569.57V20.729a.59.59,0,0,1-.569.57h-.9c-.269,0-.45-.21-.54-.509l-.239-.871a5.364,5.364,0,0,1-3.811,1.68c-3.179,0-5.609-2.849-5.609-6.3A6.053,6.053,0,0,1,334.768,9Zm.061,10.02a3.226,3.226,0,0,0,2.849-1.8V12.33a4.972,4.972,0,0,0-2.609-.72,3.485,3.485,0,0,0-3.42,3.69C331.649,17.31,332.909,19.02,334.829,19.02Z" fill="#00aeef"/>
  </g>
  <line x1="0.5" y1="33.002" x2="381.913" y2="33.002" fill="none" stroke="#00aeef" stroke-linecap="round" stroke-linejoin="round"/>
</svg>
