<svg id="Layer_1" data-name="Layer 1" xmlns="http://www.w3.org/2000/svg" width="401" height="32.502" viewBox="0 0 401 32.502">
  <g>
    <path d="M104.952.87a.57.57,0,0,1,.57-.57h6.84a6.709,6.709,0,0,1,6.719,6.63,6.747,6.747,0,0,1-6.689,6.75h-4.35v7.049a.59.59,0,0,1-.57.57h-1.95a.57.57,0,0,1-.57-.57Zm7.23,9.87a3.822,3.822,0,0,0,3.81-3.84,3.7,3.7,0,0,0-3.81-3.6h-4.14v7.44Z" fill="#00aeef"/>
    <path d="M124.872,13.709a8.612,8.612,0,0,1,2.37.361c.03-1.89-.33-2.64-1.86-2.64a12.748,12.748,0,0,0-3.36.54c-.36.09-.57-.15-.659-.48l-.241-1.11a.539.539,0,0,1,.391-.69A12.36,12.36,0,0,1,125.652,9c3.84,0,4.2,2.34,4.2,5.34v6.389a.59.59,0,0,1-.57.57h-.84c-.27,0-.39-.12-.51-.42l-.3-.81a5.177,5.177,0,0,1-3.69,1.53,3.725,3.725,0,0,1-3.869-4.019C120.073,15.39,121.812,13.709,124.872,13.709Zm-.36,5.76a3.55,3.55,0,0,0,2.7-1.5v-1.92a4.528,4.528,0,0,0-2.1-.48c-1.44,0-2.43.75-2.43,1.98A1.8,1.8,0,0,0,124.512,19.469Z" fill="#00aeef"/>
    <path d="M133.452,9.87a.59.59,0,0,1,.57-.57h1.71a.59.59,0,0,1,.57.57v6.15c0,1.949.93,3,2.46,3a3.2,3.2,0,0,0,2.97-1.98V9.87c0-.48.239-.57.659-.57h1.56a.59.59,0,0,1,.57.57V20.729a.59.59,0,0,1-.57.57h-.839c-.3,0-.451-.21-.54-.48l-.3-.87a5.427,5.427,0,0,1-3.959,1.65c-3.6,0-4.86-2.55-4.86-5.669Z" fill="#00aeef"/>
    <path d="M147.7,19.739l.63-1.17a.518.518,0,0,1,.75-.15,6.216,6.216,0,0,0,2.79.78c.9,0,1.47-.36,1.47-1.019,0-.81-.66-1.2-2.31-1.951-1.86-.81-3.42-1.949-3.42-3.929,0-1.5,1.23-3.3,4.11-3.3a6.73,6.73,0,0,1,3.54.93.671.671,0,0,1,.24.87l-.54,1.02a.632.632,0,0,1-.781.24,6.849,6.849,0,0,0-2.459-.63c-1.02,0-1.35.45-1.35.9,0,.78.75,1.109,1.92,1.62,2.19.96,3.99,1.889,3.99,4.139,0,1.86-1.77,3.51-4.44,3.51a6.293,6.293,0,0,1-3.96-1.23A.5.5,0,0,1,147.7,19.739Z" fill="#00aeef"/>
    <path d="M164.291,9a5.4,5.4,0,0,1,5.52,5.55,7.1,7.1,0,0,1-.06.809.552.552,0,0,1-.54.511h-8.159a3.474,3.474,0,0,0,3.449,3.21,5.106,5.106,0,0,0,2.67-.871c.361-.209.571-.33.81-.029l.84,1.139a.467.467,0,0,1-.06.781,6.9,6.9,0,0,1-4.439,1.5,6,6,0,0,1-6.03-6.3A6.029,6.029,0,0,1,164.291,9Zm2.73,4.979a2.838,2.838,0,0,0-2.759-2.669,3.036,3.036,0,0,0-3.061,2.669Z" fill="#00aeef"/>
    <path d="M183.88,10.02V9.96l-.69-.75a6.072,6.072,0,0,1-2.07-4.35c0-2.28,1.8-4.86,5.49-4.86,3.3,0,5.37,2.16,5.37,4.77,0,2.88-2.88,4.8-4.05,5.61l4.2,4.2a10.861,10.861,0,0,0,1.141-4.32c.029-.66.269-.84.84-.72l1.229.24c.691.12.54.66.51.93a16.06,16.06,0,0,1-1.829,5.76l2.789,2.7c.36.36.631.69-.06,1.38l-.78.78a.842.842,0,0,1-1.29-.09l-2.369-2.4a8.577,8.577,0,0,1-6.54,2.76c-3.78,0-6.06-2.579-6.06-5.579C179.71,12.42,182.8,10.65,183.88,10.02Zm2.13,9.06a5.84,5.84,0,0,0,4.5-2.161L185.5,11.64c-.929.569-2.939,1.83-2.939,4.2A3.279,3.279,0,0,0,186.01,19.08Zm3.3-14.19a2.669,2.669,0,0,0-2.85-2.58,2.513,2.513,0,0,0-2.67,2.58c-.03,1.17.72,2.04,1.74,3.06l.66.66C187.09,8.07,189.31,6.9,189.31,4.89Z" fill="#00aeef"/>
    <path d="M207.219.87a.569.569,0,0,1,.569-.57h8.161a6.473,6.473,0,0,1,6.54,6.42,6.66,6.66,0,0,1-4.441,6.09l4.11,7.619a.568.568,0,0,1-.51.87h-2.34a.554.554,0,0,1-.48-.27l-3.99-7.949h-4.529v7.649a.591.591,0,0,1-.57.57h-1.951a.569.569,0,0,1-.569-.57Zm8.489,9.63a3.727,3.727,0,0,0,3.66-3.72,3.677,3.677,0,0,0-3.66-3.57h-5.34V10.5Z" fill="#00aeef"/>
    <path d="M230.32,9a5.4,5.4,0,0,1,5.519,5.55,7.338,7.338,0,0,1-.06.809.552.552,0,0,1-.539.511h-8.161a3.475,3.475,0,0,0,3.451,3.21,5.112,5.112,0,0,0,2.67-.871c.359-.209.569-.33.809-.029l.84,1.139a.467.467,0,0,1-.06.781,6.9,6.9,0,0,1-4.44,1.5,6,6,0,0,1-6.029-6.3A6.029,6.029,0,0,1,230.32,9Zm2.729,4.979a2.838,2.838,0,0,0-2.76-2.669,3.033,3.033,0,0,0-3.059,2.669Z" fill="#00aeef"/>
    <path d="M238,19.739l.631-1.17a.518.518,0,0,1,.75-.15,6.214,6.214,0,0,0,2.789.78c.9,0,1.471-.36,1.471-1.019,0-.81-.66-1.2-2.311-1.951-1.859-.81-3.42-1.949-3.42-3.929,0-1.5,1.231-3.3,4.111-3.3a6.73,6.73,0,0,1,3.54.93.67.67,0,0,1,.239.87l-.54,1.02a.629.629,0,0,1-.779.24,6.864,6.864,0,0,0-2.46-.63c-1.021,0-1.351.45-1.351.9,0,.78.75,1.109,1.92,1.62,2.191.96,3.99,1.889,3.99,4.139,0,1.86-1.769,3.51-4.439,3.51a6.29,6.29,0,0,1-3.96-1.23A.5.5,0,0,1,238,19.739Z" fill="#00aeef"/>
    <path d="M249.278,9.87a.59.59,0,0,1,.57-.57h1.71a.59.59,0,0,1,.57.57v6.15c0,1.949.93,3,2.46,3a3.2,3.2,0,0,0,2.97-1.98V9.87c0-.48.24-.57.66-.57h1.56a.591.591,0,0,1,.57.57V20.729a.591.591,0,0,1-.57.57h-.84c-.3,0-.45-.21-.54-.48l-.3-.87a5.432,5.432,0,0,1-3.96,1.65c-3.6,0-4.86-2.55-4.86-5.669Z" fill="#00aeef"/>
    <path d="M264.248,9.87a.59.59,0,0,1,.57-.57h.84a.523.523,0,0,1,.51.36l.33,1.02A5.573,5.573,0,0,1,270.458,9a4.451,4.451,0,0,1,3.869,1.92A6.688,6.688,0,0,1,278.677,9c3.66,0,4.95,2.58,4.95,5.7v6.029a.57.57,0,0,1-.57.57h-1.68a.57.57,0,0,1-.57-.57V14.58c0-1.891-.869-2.97-2.489-2.97a4.316,4.316,0,0,0-3.09,1.47,8.489,8.489,0,0,1,.09,1.44v6.209a.591.591,0,0,1-.571.57h-1.589a.569.569,0,0,1-.57-.57V14.58c0-1.92-.87-2.97-2.551-2.97a3.4,3.4,0,0,0-2.969,1.8v7.319a.59.59,0,0,1-.57.57h-1.68a.59.59,0,0,1-.57-.57Z" fill="#00aeef"/>
    <path d="M292.508,9a5.4,5.4,0,0,1,5.52,5.55,7.34,7.34,0,0,1-.061.809.55.55,0,0,1-.54.511h-8.159a3.475,3.475,0,0,0,3.45,3.21,5.112,5.112,0,0,0,2.67-.871c.359-.209.569-.33.81-.029l.839,1.139a.467.467,0,0,1-.059.781,6.9,6.9,0,0,1-4.441,1.5,6,6,0,0,1-6.029-6.3A6.029,6.029,0,0,1,292.508,9Zm2.73,4.979a2.838,2.838,0,0,0-2.76-2.669,3.035,3.035,0,0,0-3.06,2.669Z" fill="#00aeef"/>
  </g>
  <line x1="0.5" y1="32.002" x2="400.5" y2="32.002" fill="none" stroke="#00aeef" stroke-linecap="round" stroke-linejoin="round"/>
</svg>
