<svg id="Layer_1" data-name="Layer 1" xmlns="http://www.w3.org/2000/svg" width="401" height="34.502" viewBox="0 0 401 34.502">
  <g>
    <path d="M33.822,20.52,43.032.33a.7.7,0,0,1,.51-.33h.3a.7.7,0,0,1,.51.33L53.5,20.52a.529.529,0,0,1-.509.779H51.1a.7.7,0,0,1-.69-.45l-1.859-4.11h-9.81c-.6,1.381-1.23,2.73-1.83,4.11a.752.752,0,0,1-.69.45h-1.89A.529.529,0,0,1,33.822,20.52Zm13.589-6.36L43.722,5.94h-.15l-3.66,8.22Z" fill="#00aeef"/>
    <path d="M58.362,15.18l-3.78-5.07a.468.468,0,0,1,.36-.81h1.95a.866.866,0,0,1,.72.33l2.4,3.45h.03L62.5,9.63a.814.814,0,0,1,.69-.33h1.98c.509,0,.659.39.36.78l-3.78,5.069,3.81,5.371c.269.389.119.779-.361.779H63.312a.815.815,0,0,1-.63-.36l-2.64-3.719h-.03l-2.7,3.84a.579.579,0,0,1-.48.239h-2.01c-.51,0-.63-.39-.36-.779Z" fill="#00aeef"/>
    <path d="M68.112,2.67A1.723,1.723,0,0,1,69.822.9a1.755,1.755,0,1,1,0,3.51A1.716,1.716,0,0,1,68.112,2.67Zm.33,7.2a.59.59,0,0,1,.57-.57h1.71a.59.59,0,0,1,.57.57V20.729a.59.59,0,0,1-.57.57h-1.71a.59.59,0,0,1-.57-.57Z" fill="#00aeef"/>
    <path d="M75.731.87a.564.564,0,0,1,.54-.57h6.9a10.5,10.5,0,1,1,0,21h-6.9a.564.564,0,0,1-.54-.57Zm7.02,17.579a7.408,7.408,0,0,0,7.62-7.679,7.376,7.376,0,0,0-7.62-7.62h-3.96v15.3Z" fill="#00aeef"/>
    <path d="M96.612,9.87a.59.59,0,0,1,.57-.57h.87a.57.57,0,0,1,.51.42l.33,1.02A4.276,4.276,0,0,1,102.4,9c1.139,0,2.52.3,2.19,1.11l-.721,1.47a.511.511,0,0,1-.719.27,2.75,2.75,0,0,0-1.02-.21,3.16,3.16,0,0,0-2.7,1.47v7.619c0,.51-.33.57-.81.57h-1.44a.59.59,0,0,1-.57-.57Z" fill="#00aeef"/>
    <path d="M110.622,13.709a8.612,8.612,0,0,1,2.37.361c.03-1.89-.331-2.64-1.86-2.64a12.748,12.748,0,0,0-3.36.54c-.36.09-.57-.15-.66-.48l-.24-1.11a.539.539,0,0,1,.39-.69A12.375,12.375,0,0,1,111.4,9c3.84,0,4.2,2.34,4.2,5.34v6.389a.59.59,0,0,1-.569.57h-.84c-.27,0-.39-.12-.511-.42l-.3-.81a5.179,5.179,0,0,1-3.69,1.53,3.726,3.726,0,0,1-3.87-4.019C105.822,15.39,107.562,13.709,110.622,13.709Zm-.36,5.76a3.55,3.55,0,0,0,2.7-1.5v-1.92a4.528,4.528,0,0,0-2.1-.48c-1.44,0-2.43.75-2.43,1.98A1.8,1.8,0,0,0,110.262,19.469Z" fill="#00aeef"/>
    <path d="M118.152,9.99c-.181-.39,0-.69.42-.69h1.62a.59.59,0,0,1,.539.36l2.011,6.63h.029l3.21-6.99a.566.566,0,0,1,.51-.3h.18a.532.532,0,0,1,.51.3l3.18,7.019h.03l1.98-6.659c.15-.36.6-.36.93-.36h1.17a.45.45,0,0,1,.45.69L131.411,21.3a.534.534,0,0,1-.54.3h-.12a.547.547,0,0,1-.51-.27l-3.69-8.009h-.03l-3.659,8.009a.5.5,0,0,1-.481.27h-.15a.519.519,0,0,1-.51-.3Z" fill="#00aeef"/>
    <path d="M137.5,10.95A1.946,1.946,0,0,1,139.451,9a1.935,1.935,0,1,1-1.95,1.95Zm1.95,6.779a1.935,1.935,0,1,1-1.95,1.95A1.947,1.947,0,0,1,139.451,17.729Z" fill="#00aeef"/>
    <path d="M149.981,20.52,159.1.33a.539.539,0,0,1,.51-.33h.3a.539.539,0,0,1,.51.33l9.06,20.19a.529.529,0,0,1-.51.779h-1.2a.552.552,0,0,1-.51-.33l-2.22-4.949H154.39l-2.19,4.949a.551.551,0,0,1-.509.33h-1.2A.529.529,0,0,1,149.981,20.52Zm14.249-6.36c-1.47-3.27-2.91-6.57-4.38-9.84h-.24l-4.38,9.84Z" fill="#00aeef"/>
    <path d="M176.71,9a6.42,6.42,0,0,1,3.21.78V.87a.591.591,0,0,1,.571-.57h.929a.591.591,0,0,1,.571.57V20.729a.591.591,0,0,1-.571.57h-.63a.542.542,0,0,1-.509-.48l-.181-.81a5.368,5.368,0,0,1-3.69,1.59c-3.059,0-5.46-2.88-5.46-6.329C170.95,11.76,173.111,9,176.71,9Zm-.09,10.709a4.049,4.049,0,0,0,3.27-1.98v-6a6.452,6.452,0,0,0-2.909-.719c-2.611,0-3.931,1.889-3.931,4.29C173.05,17.64,174.431,19.709,176.62,19.709Z" fill="#00aeef"/>
    <path d="M184.63,9.99c-.18-.39,0-.69.45-.69h.931a.582.582,0,0,1,.539.33l3.721,8.579h.029l3.96-8.579a.573.573,0,0,1,.51-.33h.78c.45,0,.63.3.45.69L190.87,21.3a.53.53,0,0,1-.509.3h-.151a.533.533,0,0,1-.51-.3Z" fill="#00aeef"/>
    <path d="M202.54,13.68a9.859,9.859,0,0,1,2.55.39c.03-2.22-.239-3.24-1.949-3.24a10.557,10.557,0,0,0-3.6.66c-.3.12-.479-.03-.569-.3l-.24-.75a.482.482,0,0,1,.33-.66,11.275,11.275,0,0,1,4.17-.78c3.059,0,3.809,1.56,3.809,5.07v6.659a.589.589,0,0,1-.57.57H205.9c-.33,0-.42-.18-.511-.45l-.239-.809a5.207,5.207,0,0,1-3.72,1.559,3.643,3.643,0,0,1-3.69-3.93C197.741,15.39,199.45,13.68,202.54,13.68Zm-.779,6.119a4.258,4.258,0,0,0,3.3-1.679V15.75a5.376,5.376,0,0,0-2.521-.48c-1.679,0-2.88.839-2.88,2.4A2.024,2.024,0,0,0,201.761,19.8Z" fill="#00aeef"/>
    <path d="M211.21,9.87a.59.59,0,0,1,.571-.57h.569a.437.437,0,0,1,.48.36l.27.93A6.7,6.7,0,0,1,217.3,9c3.48,0,4.65,2.28,4.65,5.4v6.33a.59.59,0,0,1-.57.57h-.96a.59.59,0,0,1-.57-.57V14.4c0-2.279-1.02-3.389-2.7-3.389a5.906,5.906,0,0,0-3.869,1.71v8.009a.591.591,0,0,1-.571.57h-.929a.59.59,0,0,1-.571-.57Z" fill="#00aeef"/>
    <path d="M231.34,9a5.177,5.177,0,0,1,4.289,2.1.585.585,0,0,1-.12.839l-.569.481c-.45.42-.6.12-.87-.12a3.7,3.7,0,0,0-2.76-1.26,4.072,4.072,0,0,0-3.99,4.26,4.1,4.1,0,0,0,3.96,4.319,3.993,3.993,0,0,0,3.179-1.559c.361-.361.571-.3.9-.06l.33.239a.606.606,0,0,1,.21.841,5.378,5.378,0,0,1-4.59,2.519,6.167,6.167,0,0,1-6.151-6.269A6.322,6.322,0,0,1,231.34,9Z" fill="#00aeef"/>
    <path d="M244.3,9a5.3,5.3,0,0,1,5.43,5.49,7.374,7.374,0,0,1-.06.81.552.552,0,0,1-.54.51H240.49a4.211,4.211,0,0,0,4.019,3.9,5.718,5.718,0,0,0,2.97-.9c.42-.241.6-.391.84-.06.18.239.33.449.51.689.21.27.33.45-.12.78a7.449,7.449,0,0,1-4.41,1.38c-3.63,0-5.88-2.849-5.88-6.3C238.419,11.91,240.669,9,244.3,9Zm3.36,5.129a3.466,3.466,0,0,0-3.36-3.3,3.731,3.731,0,0,0-3.78,3.3Z" fill="#00aeef"/>
    <path d="M257.889,9a6.424,6.424,0,0,1,3.21.78V.87a.59.59,0,0,1,.57-.57h.93a.59.59,0,0,1,.57.57V20.729a.59.59,0,0,1-.57.57h-.63a.544.544,0,0,1-.51-.48l-.18-.81a5.368,5.368,0,0,1-3.69,1.59c-3.059,0-5.46-2.88-5.46-6.329C252.129,11.76,254.289,9,257.889,9Zm-.09,10.709a4.051,4.051,0,0,0,3.27-1.98v-6a6.454,6.454,0,0,0-2.91-.719c-2.61,0-3.929,1.889-3.929,4.29C254.23,17.64,255.61,19.709,257.8,19.709Z" fill="#00aeef"/>
    <path d="M284.288,0a10.8,10.8,0,0,1,0,21.6A10.7,10.7,0,0,1,273.519,10.83,10.754,10.754,0,0,1,284.288,0Zm0,19.5a8.7,8.7,0,1,0-8.67-8.67A8.719,8.719,0,0,0,284.288,19.5Z" fill="#00aeef"/>
    <path d="M300.458,29.729a.589.589,0,0,1-.569.57h-.931a.589.589,0,0,1-.569-.57V9.87a.589.589,0,0,1,.569-.57h.631c.27,0,.36.09.48.39l.21.57A5.349,5.349,0,0,1,303.758,9c3.271,0,5.67,2.88,5.67,6.33,0,3.509-2.46,6.269-5.76,6.269a5.455,5.455,0,0,1-3.21-.99Zm2.941-10.14a4.015,4.015,0,0,0,3.929-4.289c0-2.341-1.379-4.41-3.78-4.41a4.075,4.075,0,0,0-3.059,1.47v6.18A5.028,5.028,0,0,0,303.4,19.589Z" fill="#00aeef"/>
    <path d="M313.6,11.1h-1.53a.57.57,0,0,1-.571-.57V9.87a.552.552,0,0,1,.571-.57h1.53V5.97a.589.589,0,0,1,.569-.57l.96-.06a.563.563,0,0,1,.54.57V9.3h3.481a.551.551,0,0,1,.569.57v.66a.569.569,0,0,1-.569.57h-3.481v7.02c0,1.2.3,1.44.99,1.44a5.738,5.738,0,0,0,2.191-.661c.449-.24.569-.06.72.181l.45.75c.21.359.119.539-.211.749a7.833,7.833,0,0,1-3.449,1.02c-2.4,0-2.76-1.44-2.76-3.3Z" fill="#00aeef"/>
    <path d="M322.658,2.34a1.425,1.425,0,1,1,1.411,1.41A1.409,1.409,0,0,1,322.658,2.34Zm.42,7.53a.591.591,0,0,1,.571-.57h.929a.591.591,0,0,1,.571.57V20.729a.591.591,0,0,1-.571.57h-.929a.591.591,0,0,1-.571-.57Z" fill="#00aeef"/>
    <path d="M334.508,9a6.15,6.15,0,0,1,5.97,6.27,5.98,5.98,0,1,1-11.94,0A6.15,6.15,0,0,1,334.508,9Zm0,10.649a4.129,4.129,0,0,0,3.9-4.379,3.917,3.917,0,1,0-7.8,0A4.13,4.13,0,0,0,334.508,19.649Z" fill="#00aeef"/>
    <path d="M343.868,9.87a.59.59,0,0,1,.571-.57h.569a.438.438,0,0,1,.481.36l.269.93a6.7,6.7,0,0,1,4.2-1.59c3.48,0,4.65,2.28,4.65,5.4v6.33a.59.59,0,0,1-.57.57h-.96a.591.591,0,0,1-.57-.57V14.4c0-2.279-1.019-3.389-2.7-3.389a5.906,5.906,0,0,0-3.869,1.71v8.009a.591.591,0,0,1-.571.57h-.929a.59.59,0,0,1-.571-.57Z" fill="#00aeef"/>
    <path d="M358,19.619c.12-.18.33-.6.42-.749a.556.556,0,0,1,.81-.091,5.058,5.058,0,0,0,2.82,1.051c1.23,0,1.95-.631,1.95-1.44,0-1.051-.9-1.531-2.64-2.4-1.59-.781-3.42-1.83-3.42-3.87,0-1.26,1.02-3.12,3.81-3.12a6.119,6.119,0,0,1,3.329.93.722.722,0,0,1,.181.93l-.24.48a.66.66,0,0,1-.87.27,5.97,5.97,0,0,0-2.4-.72c-1.35,0-1.71.69-1.71,1.2,0,.99.99,1.44,2.22,2.039,2.069.991,3.93,1.92,3.93,4.08,0,1.74-1.68,3.39-4.14,3.39a6.091,6.091,0,0,1-3.9-1.349A.6.6,0,0,1,358,19.619Z" fill="#00aeef"/>
  </g>
  <line x1="0.5" y1="34.002" x2="400.5" y2="34.002" fill="none" stroke="#00aeef" stroke-linecap="round" stroke-linejoin="round"/>
</svg>
