<svg id="Layer_1" data-name="Layer 1" xmlns="http://www.w3.org/2000/svg" width="401" height="32.502" viewBox="0 0 401 32.502">
  <g>
    <path d="M117.492.87a.57.57,0,0,1,.57-.57h12a.57.57,0,0,1,.57.57V2.55a.57.57,0,0,1-.57.57h-9.48v6.93h8.01a.59.59,0,0,1,.57.57v1.65a.59.59,0,0,1-.57.57h-8.01v7.889a.589.589,0,0,1-.569.57h-1.95a.57.57,0,0,1-.57-.57Z" fill="#00aeef"/>
    <path d="M137.652,9a6.2,6.2,0,0,1,6.059,6.27,6.065,6.065,0,1,1-12.119,0A6.206,6.206,0,0,1,137.652,9Zm0,10.02a3.573,3.573,0,0,0,3.389-3.75,3.4,3.4,0,1,0-6.779,0A3.573,3.573,0,0,0,137.652,19.02Z" fill="#00aeef"/>
    <path d="M146.711,9.87a.59.59,0,0,1,.571-.57h.869a.486.486,0,0,1,.48.36l.361,1.02a6.13,6.13,0,0,1,4.2-1.68c3.66,0,5.01,2.58,5.01,5.7v6.029a.59.59,0,0,1-.57.57h-1.71a.57.57,0,0,1-.57-.57V14.58c0-1.92-.93-2.97-2.49-2.97a3.965,3.965,0,0,0-3.329,1.8v7.319c0,.39-.181.57-.691.57h-1.559a.59.59,0,0,1-.571-.57Z" fill="#00aeef"/>
    <path d="M162.641,11.79h-1.26a.57.57,0,0,1-.57-.57V9.87a.552.552,0,0,1,.57-.57h1.26V5.97a.59.59,0,0,1,.57-.57l1.71-.03a.564.564,0,0,1,.54.57V9.3h3.06a.552.552,0,0,1,.57.57v1.35a.57.57,0,0,1-.57.57h-3.06v5.939c0,1.021.39,1.2.96,1.2a4.906,4.906,0,0,0,1.83-.539.449.449,0,0,1,.69.269l.54,1.32a.5.5,0,0,1-.27.72,9.2,9.2,0,0,1-3.51.9c-2.37,0-3.06-1.44-3.06-3.57Z" fill="#00aeef"/>
    <path d="M178.45,18.27c.271-.391.511-.84.781-1.23a.679.679,0,0,1,1.02-.241c.18.151,2.49,2.071,4.8,2.071,2.07,0,3.391-1.261,3.391-2.79,0-1.8-1.561-2.94-4.531-4.17-3.059-1.29-5.46-2.88-5.46-6.36,0-2.34,1.8-5.55,6.571-5.55a10.164,10.164,0,0,1,5.55,1.77.714.714,0,0,1,.179,1.02c-.24.36-.509.78-.75,1.14a.709.709,0,0,1-1.05.3,9.215,9.215,0,0,0-4.049-1.5c-2.52,0-3.39,1.59-3.39,2.7,0,1.71,1.319,2.76,3.81,3.78,3.479,1.41,6.45,3.06,6.45,6.72,0,3.119-2.79,5.669-6.691,5.669a9.715,9.715,0,0,1-6.449-2.37A.631.631,0,0,1,178.45,18.27Z" fill="#00aeef"/>
    <path d="M200.08,9a5.4,5.4,0,0,1,5.52,5.55,7.1,7.1,0,0,1-.061.809.55.55,0,0,1-.54.511H196.84a3.475,3.475,0,0,0,3.45,3.21,5.109,5.109,0,0,0,2.67-.871c.36-.209.57-.33.81-.029l.84,1.139a.467.467,0,0,1-.06.781,6.9,6.9,0,0,1-4.44,1.5,6,6,0,0,1-6.03-6.3A6.029,6.029,0,0,1,200.08,9Zm2.73,4.979a2.838,2.838,0,0,0-2.76-2.669,3.033,3.033,0,0,0-3.059,2.669Z" fill="#00aeef"/>
    <path d="M208.48.87a.589.589,0,0,1,.569-.57h1.71a.589.589,0,0,1,.57.57V20.729a.589.589,0,0,1-.57.57h-1.71a.589.589,0,0,1-.569-.57Z" fill="#00aeef"/>
    <path d="M220.36,9a5.4,5.4,0,0,1,5.519,5.55,7.338,7.338,0,0,1-.06.809.552.552,0,0,1-.54.511h-8.16a3.475,3.475,0,0,0,3.451,3.21,5.112,5.112,0,0,0,2.67-.871c.359-.209.569-.33.809-.029l.84,1.139a.467.467,0,0,1-.06.781,6.9,6.9,0,0,1-4.44,1.5,6,6,0,0,1-6.029-6.3A6.029,6.029,0,0,1,220.36,9Zm2.729,4.979a2.838,2.838,0,0,0-2.76-2.669,3.034,3.034,0,0,0-3.059,2.669Z" fill="#00aeef"/>
    <path d="M234.158,9a5.314,5.314,0,0,1,4.35,2.13.587.587,0,0,1-.12.84l-.989.9c-.361.33-.571.089-.811-.12a3.332,3.332,0,0,0-2.4-1.14,3.571,3.571,0,0,0-3.481,3.69,3.476,3.476,0,0,0,6.241,2.34.548.548,0,0,1,.809-.06l.811.659c.3.24.42.54.21.841a5.323,5.323,0,0,1-4.651,2.519,6.247,6.247,0,0,1-6.269-6.269A6.383,6.383,0,0,1,234.158,9Z" fill="#00aeef"/>
    <path d="M242.558,11.79H241.3a.569.569,0,0,1-.569-.57V9.87a.551.551,0,0,1,.569-.57h1.26V5.97a.59.59,0,0,1,.57-.57l1.71-.03a.564.564,0,0,1,.54.57V9.3h3.06a.552.552,0,0,1,.57.57v1.35a.57.57,0,0,1-.57.57h-3.06v5.939c0,1.021.39,1.2.96,1.2a4.906,4.906,0,0,0,1.83-.539.449.449,0,0,1,.69.269l.54,1.32a.5.5,0,0,1-.27.72,9.2,9.2,0,0,1-3.51.9c-2.37,0-3.06-1.44-3.06-3.57Z" fill="#00aeef"/>
    <path d="M251.828,2.67A1.723,1.723,0,0,1,253.538.9a1.755,1.755,0,1,1,0,3.51A1.716,1.716,0,0,1,251.828,2.67Zm.33,7.2a.59.59,0,0,1,.57-.57h1.71a.589.589,0,0,1,.57.57V20.729a.589.589,0,0,1-.57.57h-1.71a.59.59,0,0,1-.57-.57Z" fill="#00aeef"/>
    <path d="M264.068,9a6.206,6.206,0,0,1,6.06,6.27,6.066,6.066,0,1,1-12.12,0A6.206,6.206,0,0,1,264.068,9Zm0,10.02a3.573,3.573,0,0,0,3.39-3.75,3.4,3.4,0,1,0-6.78,0A3.573,3.573,0,0,0,264.068,19.02Z" fill="#00aeef"/>
    <path d="M273.128,9.87a.59.59,0,0,1,.57-.57h.87a.486.486,0,0,1,.48.36l.36,1.02a6.131,6.131,0,0,1,4.2-1.68c3.66,0,5.009,2.58,5.009,5.7v6.029a.589.589,0,0,1-.57.57h-1.71a.569.569,0,0,1-.569-.57V14.58c0-1.92-.931-2.97-2.49-2.97a3.969,3.969,0,0,0-3.33,1.8v7.319c0,.39-.18.57-.69.57H273.7a.59.59,0,0,1-.57-.57Z" fill="#00aeef"/>
  </g>
  <line x1="0.5" y1="32.002" x2="400.5" y2="32.002" fill="none" stroke="#00aeef" stroke-linecap="round" stroke-linejoin="round"/>
</svg>
