<svg id="Layer_1" data-name="Layer 1" xmlns="http://www.w3.org/2000/svg" width="401" height="32.502" viewBox="0 0 401 32.502">
  <g>
    <path d="M103.286,3.12H98.4a.57.57,0,0,1-.57-.57V.87A.57.57,0,0,1,98.4.3h12.9a.57.57,0,0,1,.571.57V2.55a.57.57,0,0,1-.571.57h-4.889V20.729a.59.59,0,0,1-.57.57h-1.98a.59.59,0,0,1-.571-.57Z" fill="#00aeef"/>
    <path d="M117.117,9a5.4,5.4,0,0,1,5.52,5.55,7.34,7.34,0,0,1-.061.809.552.552,0,0,1-.54.511h-8.159a3.474,3.474,0,0,0,3.449,3.21,5.1,5.1,0,0,0,2.67-.871c.361-.209.571-.33.81-.029l.84,1.139a.466.466,0,0,1-.06.781,6.894,6.894,0,0,1-4.439,1.5,6,6,0,0,1-6.03-6.3A6.029,6.029,0,0,1,117.117,9Zm2.729,4.979a2.837,2.837,0,0,0-2.759-2.669,3.035,3.035,0,0,0-3.06,2.669Z" fill="#00aeef"/>
    <path d="M128.337,15.18l-3.781-5.07a.469.469,0,0,1,.361-.81h1.95a.866.866,0,0,1,.72.33l2.4,3.45h.029l2.46-3.45a.815.815,0,0,1,.69-.33h1.98c.51,0,.66.39.36.78l-3.78,5.069,3.81,5.371c.27.389.12.779-.36.779h-1.89a.812.812,0,0,1-.629-.36l-2.641-3.719h-.029l-2.7,3.84a.576.576,0,0,1-.48.239H124.8c-.511,0-.63-.39-.36-.779Z" fill="#00aeef"/>
    <path d="M139.2,11.79h-1.261a.569.569,0,0,1-.569-.57V9.87a.551.551,0,0,1,.569-.57H139.2V5.97a.59.59,0,0,1,.569-.57l1.71-.03a.564.564,0,0,1,.54.57V9.3h3.06a.552.552,0,0,1,.57.57v1.35a.57.57,0,0,1-.57.57h-3.06v5.939c0,1.021.391,1.2.96,1.2a4.906,4.906,0,0,0,1.83-.539.449.449,0,0,1,.69.269l.54,1.32a.5.5,0,0,1-.27.72,9.2,9.2,0,0,1-3.51.9c-2.369,0-3.059-1.44-3.059-3.57Z" fill="#00aeef"/>
    <path d="M153.536,20.52,162.746.33a.7.7,0,0,1,.51-.33h.3a.7.7,0,0,1,.511.33l9.149,20.19a.529.529,0,0,1-.51.779h-1.889a.7.7,0,0,1-.691-.45l-1.86-4.11h-9.809c-.6,1.381-1.23,2.73-1.83,4.11a.752.752,0,0,1-.69.45h-1.89A.529.529,0,0,1,153.536,20.52Zm13.589-6.36-3.689-8.22h-.151l-3.659,8.22Z" fill="#00aeef"/>
    <path d="M180.175,9a7.225,7.225,0,0,1,2.88.66V.87a.59.59,0,0,1,.57-.57h1.741a.59.59,0,0,1,.569.57V20.729a.59.59,0,0,1-.569.57h-.9c-.269,0-.45-.21-.54-.509l-.239-.871a5.367,5.367,0,0,1-3.811,1.68c-3.179,0-5.609-2.849-5.609-6.3A6.053,6.053,0,0,1,180.175,9Zm.061,10.02a3.226,3.226,0,0,0,2.849-1.8V12.33a4.976,4.976,0,0,0-2.609-.72,3.485,3.485,0,0,0-3.42,3.69C177.056,17.31,178.316,19.02,180.236,19.02Z" fill="#00aeef"/>
    <path d="M189.836,9.87a.57.57,0,0,1,.57-.57h1.74a.57.57,0,0,1,.57.57V25.019c0,3.72-2.22,5.58-5.1,5.58a5.223,5.223,0,0,1-3.42-1.2.551.551,0,0,1-.121-.69l.75-1.35c.15-.27.45-.27.75-.09a4.092,4.092,0,0,0,1.98.75c1.35,0,2.28-.96,2.28-3Zm-.3-7.2A1.723,1.723,0,0,1,191.245.9a1.755,1.755,0,1,1,0,3.51A1.716,1.716,0,0,1,189.536,2.67Z" fill="#00aeef"/>
    <path d="M196.436,9.87a.59.59,0,0,1,.57-.57h1.71a.59.59,0,0,1,.57.57v6.15c0,1.949.93,3,2.46,3a3.2,3.2,0,0,0,2.97-1.98V9.87c0-.48.24-.57.66-.57h1.56a.59.59,0,0,1,.57.57V20.729a.59.59,0,0,1-.57.57h-.84c-.3,0-.45-.21-.54-.48l-.3-.87a5.43,5.43,0,0,1-3.96,1.65c-3.6,0-4.86-2.55-4.86-5.669Z" fill="#00aeef"/>
    <path d="M210.686,19.739l.631-1.17a.518.518,0,0,1,.75-.15,6.209,6.209,0,0,0,2.789.78c.9,0,1.47-.36,1.47-1.019,0-.81-.66-1.2-2.31-1.951-1.859-.81-3.42-1.949-3.42-3.929,0-1.5,1.23-3.3,4.11-3.3a6.727,6.727,0,0,1,3.54.93.67.67,0,0,1,.24.87l-.54,1.02a.631.631,0,0,1-.78.24,6.857,6.857,0,0,0-2.46-.63c-1.02,0-1.35.45-1.35.9,0,.78.75,1.109,1.92,1.62,2.19.96,3.99,1.889,3.99,4.139,0,1.86-1.77,3.51-4.44,3.51a6.287,6.287,0,0,1-3.959-1.23A.5.5,0,0,1,210.686,19.739Z" fill="#00aeef"/>
    <path d="M222.925,11.79h-1.26a.569.569,0,0,1-.569-.57V9.87a.551.551,0,0,1,.569-.57h1.26V5.97a.591.591,0,0,1,.57-.57l1.71-.03a.564.564,0,0,1,.54.57V9.3h3.06a.552.552,0,0,1,.57.57v1.35a.57.57,0,0,1-.57.57h-3.06v5.939c0,1.021.39,1.2.96,1.2a4.906,4.906,0,0,0,1.83-.539.449.449,0,0,1,.69.269l.54,1.32a.5.5,0,0,1-.27.72,9.194,9.194,0,0,1-3.509.9c-2.37,0-3.061-1.44-3.061-3.57Z" fill="#00aeef"/>
    <path d="M232.526,9.87a.589.589,0,0,1,.569-.57h.84a.524.524,0,0,1,.511.36l.33,1.02A5.568,5.568,0,0,1,238.736,9a4.452,4.452,0,0,1,3.869,1.92A6.682,6.682,0,0,1,246.954,9c3.661,0,4.951,2.58,4.951,5.7v6.029a.57.57,0,0,1-.571.57h-1.679a.57.57,0,0,1-.571-.57V14.58c0-1.891-.869-2.97-2.489-2.97a4.316,4.316,0,0,0-3.09,1.47,8.384,8.384,0,0,1,.09,1.44v6.209a.59.59,0,0,1-.57.57h-1.59a.569.569,0,0,1-.569-.57V14.58c0-1.92-.871-2.97-2.551-2.97a3.4,3.4,0,0,0-2.97,1.8v7.319a.59.59,0,0,1-.569.57H233.1a.589.589,0,0,1-.569-.57Z" fill="#00aeef"/>
    <path d="M260.785,9a5.4,5.4,0,0,1,5.52,5.55,7.1,7.1,0,0,1-.061.809.55.55,0,0,1-.54.511h-8.159A3.475,3.475,0,0,0,261,19.08a5.109,5.109,0,0,0,2.67-.871c.36-.209.57-.33.81-.029l.84,1.139a.467.467,0,0,1-.06.781,6.9,6.9,0,0,1-4.44,1.5,6,6,0,0,1-6.03-6.3A6.029,6.029,0,0,1,260.785,9Zm2.73,4.979a2.838,2.838,0,0,0-2.76-2.669,3.033,3.033,0,0,0-3.059,2.669Z" fill="#00aeef"/>
    <path d="M269.185,9.87a.589.589,0,0,1,.569-.57h.87a.488.488,0,0,1,.481.36l.359,1.02a6.136,6.136,0,0,1,4.2-1.68c3.661,0,5.01,2.58,5.01,5.7v6.029a.589.589,0,0,1-.57.57h-1.71a.569.569,0,0,1-.569-.57V14.58c0-1.92-.931-2.97-2.491-2.97a3.972,3.972,0,0,0-3.33,1.8v7.319c0,.39-.179.57-.689.57h-1.561a.589.589,0,0,1-.569-.57Z" fill="#00aeef"/>
    <path d="M285.115,11.79h-1.26a.57.57,0,0,1-.57-.57V9.87a.552.552,0,0,1,.57-.57h1.26V5.97a.59.59,0,0,1,.57-.57l1.71-.03a.564.564,0,0,1,.54.57V9.3h3.059a.552.552,0,0,1,.571.57v1.35a.57.57,0,0,1-.571.57h-3.059v5.939c0,1.021.39,1.2.96,1.2a4.906,4.906,0,0,0,1.83-.539.448.448,0,0,1,.689.269l.54,1.32a.5.5,0,0,1-.269.72,9.2,9.2,0,0,1-3.51.9c-2.37,0-3.06-1.44-3.06-3.57Z" fill="#00aeef"/>
    <path d="M293.994,19.739l.631-1.17a.518.518,0,0,1,.75-.15,6.214,6.214,0,0,0,2.789.78c.9,0,1.471-.36,1.471-1.019,0-.81-.66-1.2-2.31-1.951-1.86-.81-3.42-1.949-3.42-3.929,0-1.5,1.23-3.3,4.11-3.3a6.73,6.73,0,0,1,3.54.93.669.669,0,0,1,.239.87l-.54,1.02a.629.629,0,0,1-.779.24,6.857,6.857,0,0,0-2.46-.63c-1.021,0-1.351.45-1.351.9,0,.78.75,1.109,1.92,1.62,2.191.96,3.991,1.889,3.991,4.139,0,1.86-1.77,3.51-4.44,3.51a6.29,6.29,0,0,1-3.96-1.23A.5.5,0,0,1,293.994,19.739Z" fill="#00aeef"/>
  </g>
  <line x1="0.5" y1="32.002" x2="400.5" y2="32.002" fill="none" stroke="#00aeef" stroke-linecap="round" stroke-linejoin="round"/>
</svg>
