<svg id="Layer_1" data-name="Layer 1" xmlns="http://www.w3.org/2000/svg" width="401" height="34.502" viewBox="0 0 401 34.502">
  <g>
    <path d="M94.107,0a10.414,10.414,0,0,1,7.26,2.79.558.558,0,0,1,.03.84l-1.32,1.35c-.21.27-.48.27-.75,0a8.13,8.13,0,0,0-5.19-2.01,7.651,7.651,0,0,0-7.529,7.8,7.65,7.65,0,0,0,7.559,7.77,8.04,8.04,0,0,0,5.16-1.98.549.549,0,0,1,.72-.031l1.38,1.35a.571.571,0,0,1-.03.81,10.3,10.3,0,0,1-7.29,2.91,10.8,10.8,0,1,1,0-21.6Z" fill="#00aeef"/>
    <path d="M104.338,18.27c.27-.391.509-.84.779-1.23a.68.68,0,0,1,1.021-.241c.18.151,2.489,2.071,4.8,2.071,2.07,0,3.39-1.261,3.39-2.79,0-1.8-1.56-2.94-4.53-4.17-3.059-1.29-5.459-2.88-5.459-6.36,0-2.34,1.8-5.55,6.57-5.55a10.163,10.163,0,0,1,5.549,1.77.713.713,0,0,1,.18,1.02c-.24.36-.51.78-.75,1.14a.709.709,0,0,1-1.05.3,9.226,9.226,0,0,0-4.05-1.5c-2.52,0-3.39,1.59-3.39,2.7,0,1.71,1.321,2.76,3.81,3.78,3.48,1.41,6.45,3.06,6.45,6.72,0,3.119-2.79,5.669-6.69,5.669a9.716,9.716,0,0,1-6.45-2.37A.629.629,0,0,1,104.338,18.27Z" fill="#00aeef"/>
    <path d="M119.007,1.08a.53.53,0,0,1,.51-.78h2.13a.588.588,0,0,1,.51.33l6.6,14.849h.18L135.536.63a.552.552,0,0,1,.51-.33h2.13a.53.53,0,0,1,.51.78l-9.21,20.19a.571.571,0,0,1-.509.329h-.3a.609.609,0,0,1-.51-.329Z" fill="#00aeef"/>
    <path d="M148.316.87a.564.564,0,0,1,.54-.57h6.9a10.5,10.5,0,1,1,0,21h-6.9a.564.564,0,0,1-.54-.57Zm7.02,17.579a7.408,7.408,0,0,0,7.619-7.679,7.376,7.376,0,0,0-7.619-7.62h-3.96v15.3Z" fill="#00aeef"/>
    <path d="M173.1,13.709a8.612,8.612,0,0,1,2.37.361c.029-1.89-.33-2.64-1.86-2.64a12.748,12.748,0,0,0-3.36.54c-.36.09-.57-.15-.66-.48l-.24-1.11a.539.539,0,0,1,.39-.69,12.375,12.375,0,0,1,4.14-.69c3.84,0,4.2,2.34,4.2,5.34v6.389a.589.589,0,0,1-.569.57h-.841c-.269,0-.389-.12-.509-.42l-.3-.81a5.177,5.177,0,0,1-3.69,1.53,3.726,3.726,0,0,1-3.87-4.019C168.3,15.39,170.036,13.709,173.1,13.709Zm-.36,5.76a3.552,3.552,0,0,0,2.7-1.5v-1.92a4.532,4.532,0,0,0-2.1-.48c-1.44,0-2.43.75-2.43,1.98A1.8,1.8,0,0,0,172.736,19.469Z" fill="#00aeef"/>
    <path d="M182.636,11.79h-1.26a.569.569,0,0,1-.569-.57V9.87a.551.551,0,0,1,.569-.57h1.26V5.97a.591.591,0,0,1,.57-.57l1.71-.03a.564.564,0,0,1,.54.57V9.3h3.06a.552.552,0,0,1,.57.57v1.35a.57.57,0,0,1-.57.57h-3.06v5.939c0,1.021.39,1.2.96,1.2a4.906,4.906,0,0,0,1.83-.539.449.449,0,0,1,.69.269l.54,1.32a.5.5,0,0,1-.27.72,9.194,9.194,0,0,1-3.509.9c-2.371,0-3.061-1.44-3.061-3.57Z" fill="#00aeef"/>
    <path d="M196.166,13.709a8.612,8.612,0,0,1,2.37.361c.03-1.89-.33-2.64-1.86-2.64a12.739,12.739,0,0,0-3.359.54c-.361.09-.571-.15-.66-.48l-.241-1.11a.539.539,0,0,1,.39-.69A12.378,12.378,0,0,1,196.947,9c3.839,0,4.2,2.34,4.2,5.34v6.389a.59.59,0,0,1-.57.57h-.84c-.27,0-.39-.12-.51-.42l-.3-.81a5.176,5.176,0,0,1-3.689,1.53,3.726,3.726,0,0,1-3.87-4.019C191.367,15.39,193.107,13.709,196.166,13.709Zm-.36,5.76a3.55,3.55,0,0,0,2.7-1.5v-1.92a4.527,4.527,0,0,0-2.1-.48c-1.441,0-2.431.75-2.431,1.98A1.805,1.805,0,0,0,195.806,19.469Z" fill="#00aeef"/>
    <path d="M211.135,18.27c.271-.391.511-.84.78-1.23a.679.679,0,0,1,1.02-.241c.181.151,2.49,2.071,4.8,2.071,2.069,0,3.389-1.261,3.389-2.79,0-1.8-1.56-2.94-4.53-4.17-3.06-1.29-5.46-2.88-5.46-6.36,0-2.34,1.8-5.55,6.57-5.55a10.164,10.164,0,0,1,5.55,1.77.713.713,0,0,1,.18,1.02c-.24.36-.51.78-.75,1.14a.709.709,0,0,1-1.05.3,9.226,9.226,0,0,0-4.05-1.5c-2.519,0-3.389,1.59-3.389,2.7,0,1.71,1.319,2.76,3.809,3.78,3.48,1.41,6.449,3.06,6.449,6.72,0,3.119-2.789,5.669-6.689,5.669a9.712,9.712,0,0,1-6.449-2.37C211.045,18.989,210.835,18.779,211.135,18.27Z" fill="#00aeef"/>
    <path d="M232.765,9a5.4,5.4,0,0,1,5.519,5.55,7.338,7.338,0,0,1-.06.809.551.551,0,0,1-.539.511h-8.16a3.475,3.475,0,0,0,3.45,3.21,5.112,5.112,0,0,0,2.67-.871c.359-.209.569-.33.809-.029l.84,1.139a.467.467,0,0,1-.059.781,6.9,6.9,0,0,1-4.441,1.5,6,6,0,0,1-6.029-6.3A6.029,6.029,0,0,1,232.765,9Zm2.729,4.979a2.837,2.837,0,0,0-2.759-2.669,3.035,3.035,0,0,0-3.06,2.669Z" fill="#00aeef"/>
    <path d="M241.164.87a.59.59,0,0,1,.57-.57h1.71a.59.59,0,0,1,.57.57V20.729a.59.59,0,0,1-.57.57h-1.71a.59.59,0,0,1-.57-.57Z" fill="#00aeef"/>
    <path d="M253.044,9a5.4,5.4,0,0,1,5.52,5.55,7.34,7.34,0,0,1-.061.809.55.55,0,0,1-.539.511H249.8a3.475,3.475,0,0,0,3.45,3.21,5.109,5.109,0,0,0,2.67-.871c.359-.209.569-.33.81-.029l.84,1.139a.467.467,0,0,1-.06.781,6.9,6.9,0,0,1-4.44,1.5,6,6,0,0,1-6.03-6.3A6.029,6.029,0,0,1,253.044,9Zm2.73,4.979a2.838,2.838,0,0,0-2.76-2.669,3.035,3.035,0,0,0-3.06,2.669Z" fill="#00aeef"/>
    <path d="M266.843,9a5.317,5.317,0,0,1,4.35,2.13.587.587,0,0,1-.12.84l-.99.9c-.36.33-.57.089-.81-.12a3.332,3.332,0,0,0-2.4-1.14,3.57,3.57,0,0,0-3.48,3.69,3.476,3.476,0,0,0,6.24,2.34.549.549,0,0,1,.81-.06l.81.659c.3.24.42.54.21.841a5.323,5.323,0,0,1-4.65,2.519,6.247,6.247,0,0,1-6.27-6.269A6.383,6.383,0,0,1,266.843,9Z" fill="#00aeef"/>
    <path d="M275.242,11.79h-1.259a.57.57,0,0,1-.57-.57V9.87a.552.552,0,0,1,.57-.57h1.259V5.97a.591.591,0,0,1,.571-.57l1.71-.03a.564.564,0,0,1,.54.57V9.3h3.059a.552.552,0,0,1,.571.57v1.35a.57.57,0,0,1-.571.57h-3.059v5.939c0,1.021.389,1.2.96,1.2a4.912,4.912,0,0,0,1.83-.539.448.448,0,0,1,.689.269l.54,1.32a.5.5,0,0,1-.269.72,9.206,9.206,0,0,1-3.51.9c-2.37,0-3.061-1.44-3.061-3.57Z" fill="#00aeef"/>
    <path d="M284.513,2.67A1.723,1.723,0,0,1,286.223.9a1.755,1.755,0,1,1,0,3.51A1.716,1.716,0,0,1,284.513,2.67Zm.33,7.2a.59.59,0,0,1,.569-.57h1.71a.59.59,0,0,1,.571.57V20.729a.59.59,0,0,1-.571.57h-1.71a.59.59,0,0,1-.569-.57Z" fill="#00aeef"/>
    <path d="M296.752,9a6.206,6.206,0,0,1,6.061,6.27,6.066,6.066,0,1,1-12.12,0A6.206,6.206,0,0,1,296.752,9Zm0,10.02a3.573,3.573,0,0,0,3.391-3.75,3.4,3.4,0,1,0-6.78,0A3.573,3.573,0,0,0,296.752,19.02Z" fill="#00aeef"/>
    <path d="M305.813,9.87a.589.589,0,0,1,.569-.57h.87a.488.488,0,0,1,.481.36l.359,1.02a6.136,6.136,0,0,1,4.2-1.68c3.66,0,5.01,2.58,5.01,5.7v6.029a.589.589,0,0,1-.57.57h-1.71a.57.57,0,0,1-.57-.57V14.58c0-1.92-.93-2.97-2.49-2.97a3.972,3.972,0,0,0-3.33,1.8v7.319c0,.39-.18.57-.689.57h-1.561a.589.589,0,0,1-.569-.57Z" fill="#00aeef"/>
  </g>
  <line x1="0.5" y1="34.002" x2="400.5" y2="34.002" fill="none" stroke="#00aeef" stroke-linecap="round" stroke-linejoin="round"/>
</svg>
