<svg
   viewBox="0 0 401.00001 34.5"
   width="401"
   height="34.5"
   xmlns="http://www.w3.org/2000/svg">
<g
   id="g174"
   transform="translate(-39,-1.4)">
	<path
   fill="#00aeef"
   d="m 105.5,21.9 9.2,-20.2 c 0.1,-0.2 0.4,-0.3 0.5,-0.3 h 0.3 c 0.2,0 0.4,0.2 0.5,0.3 l 9.1,20.2 c 0.2,0.4 -0.1,0.8 -0.5,0.8 h -1.9 c -0.4,0 -0.6,-0.2 -0.7,-0.5 l -1.9,-4.1 h -9.8 c -0.6,1.4 -1.2,2.7 -1.8,4.1 -0.1,0.2 -0.3,0.5 -0.7,0.5 h -1.9 c -0.3,0 -0.5,-0.4 -0.4,-0.8 z m 13.6,-6.3 -3.7,-8.2 h -0.1 l -3.7,8.2 z"
   id="path134" />
	<path
   fill="#00aeef"
   d="m 130.1,16.6 -3.8,-5.1 c -0.3,-0.4 -0.1,-0.8 0.4,-0.8 h 1.9 c 0.3,0 0.5,0.1 0.7,0.3 l 2.4,3.4 v 0 l 2.5,-3.4 c 0.1,-0.2 0.4,-0.3 0.7,-0.3 h 2 c 0.5,0 0.7,0.4 0.4,0.8 l -3.8,5.1 3.8,5.4 c 0.3,0.4 0.1,0.8 -0.4,0.8 H 135 c -0.2,0 -0.5,-0.1 -0.6,-0.4 l -2.6,-3.7 v 0 l -2.7,3.8 c -0.1,0.1 -0.2,0.2 -0.5,0.2 h -2 c -0.5,0 -0.6,-0.4 -0.4,-0.8 z"
   id="path136" />
	<path
   fill="#00aeef"
   d="m 139.8,4.1 c 0,-1 0.8,-1.8 1.7,-1.8 1,0 1.8,0.8 1.8,1.8 0,1 -0.8,1.7 -1.8,1.7 -0.9,0 -1.7,-0.8 -1.7,-1.7 z m 0.4,7.2 c 0,-0.3 0.3,-0.6 0.6,-0.6 h 1.7 c 0.3,0 0.6,0.3 0.6,0.6 v 10.9 c 0,0.3 -0.3,0.6 -0.6,0.6 h -1.7 c -0.3,0 -0.6,-0.3 -0.6,-0.6 z"
   id="path138" />
	<path
   fill="#00aeef"
   d="m 147.5,2.3 c 0,-0.3 0.2,-0.6 0.5,-0.6 h 6.9 c 5.8,0 10.5,4.7 10.5,10.5 0,5.8 -4.7,10.5 -10.5,10.5 H 148 c -0.3,0 -0.5,-0.3 -0.5,-0.6 z m 7,17.6 c 4.4,0 7.6,-3.2 7.6,-7.7 0,-4.4 -3.2,-7.6 -7.6,-7.6 h -4 v 15.3 z"
   id="path140" />
	<path
   fill="#00aeef"
   d="m 168.3,11.3 c 0,-0.3 0.3,-0.6 0.6,-0.6 h 0.9 c 0.2,0 0.5,0.2 0.5,0.4 l 0.3,1 c 0.2,-0.3 1.3,-1.7 3.5,-1.7 1.1,0 2.5,0.3 2.2,1.1 l -0.7,1.5 c -0.1,0.3 -0.4,0.4 -0.7,0.3 -0.2,-0.1 -0.6,-0.2 -1,-0.2 -1.7,0 -2.6,1.3 -2.7,1.5 v 7.6 c 0,0.5 -0.3,0.6 -0.8,0.6 H 169 c -0.3,0 -0.6,-0.3 -0.6,-0.6 V 11.3 Z"
   id="path142" />
	<path
   fill="#00aeef"
   d="m 182.3,15.1 c 1.3,0 2.4,0.4 2.4,0.4 0,-1.9 -0.3,-2.6 -1.9,-2.6 -1.4,0 -2.7,0.4 -3.4,0.5 -0.4,0.1 -0.6,-0.1 -0.7,-0.5 l -0.2,-1.1 c -0.1,-0.4 0.1,-0.6 0.4,-0.7 0.2,-0.1 1.9,-0.7 4.1,-0.7 3.8,0 4.2,2.3 4.2,5.3 v 6.4 c 0,0.3 -0.3,0.6 -0.6,0.6 h -0.8 c -0.3,0 -0.4,-0.1 -0.5,-0.4 L 185,21.5 c -0.7,0.6 -1.8,1.5 -3.7,1.5 -2.2,0 -3.9,-1.5 -3.9,-4 0.1,-2.2 1.9,-3.9 4.9,-3.9 z m -0.3,5.8 c 1.2,0 2.3,-0.9 2.7,-1.5 v -1.9 c -0.2,-0.1 -1,-0.5 -2.1,-0.5 -1.4,0 -2.4,0.8 -2.4,2 0,1 0.7,1.9 1.8,1.9 z"
   id="path144" />
	<path
   fill="#00aeef"
   d="m 189.9,11.4 c -0.2,-0.4 0,-0.7 0.4,-0.7 h 1.6 c 0.2,0 0.5,0.1 0.5,0.4 l 2,6.6 v 0 l 3.2,-7 c 0.1,-0.1 0.3,-0.3 0.5,-0.3 h 0.2 c 0.3,0 0.5,0.1 0.5,0.3 l 3.2,7 v 0 l 2,-6.7 c 0.1,-0.4 0.6,-0.4 0.9,-0.4 h 1.2 c 0.4,0 0.6,0.3 0.4,0.7 L 203,22.6 c -0.1,0.2 -0.3,0.3 -0.5,0.3 h -0.1 c -0.2,0 -0.5,-0.1 -0.5,-0.3 l -3.7,-8 v 0 l -3.7,8 c -0.1,0.2 -0.2,0.3 -0.5,0.3 v 0 c -0.2,0 -0.4,-0.1 -0.5,-0.3 z"
   id="path146" />
	<path
   fill="#00aeef"
   d="m 209.2,12.4 c 0,-1.1 0.9,-1.9 2,-1.9 1.1,0 1.9,0.9 1.9,1.9 0,1 -0.8,1.9 -1.9,1.9 -1.1,0 -2,-0.9 -2,-1.9 z m 2,6.7 c 1.1,0 1.9,0.9 1.9,1.9 0,1.1 -0.8,1.9 -1.9,1.9 -1.1,0 -2,-0.9 -2,-1.9 0,-1 0.9,-1.9 2,-1.9 z"
   id="path148" />
	<path
   fill="#00aeef"
   d="m 224.6,1.9 c 0,-0.3 0.3,-0.5 0.6,-0.5 h 0.8 l 13.5,16.9 c 0,0 0,0 0.1,0 v -16 c 0,-0.3 0.2,-0.6 0.6,-0.6 h 1 c 0.3,0 0.6,0.3 0.6,0.6 v 20.2 c 0,0.3 -0.3,0.5 -0.6,0.5 h -0.5 L 226.8,5.8 v 0 16.3 c 0,0.3 -0.2,0.6 -0.6,0.6 h -1 c -0.3,0 -0.6,-0.3 -0.6,-0.6 z"
   id="path150" />
	<path
   fill="#00aeef"
   d="m 251.4,10.4 c 3.3,0 6,2.9 6,6.3 0,3.4 -2.6,6.3 -6,6.3 -3.4,0 -6,-2.9 -6,-6.3 0,-3.4 2.7,-6.3 6,-6.3 z m 0,10.7 c 2.2,0 3.9,-2 3.9,-4.4 0,-2.4 -1.7,-4.3 -3.9,-4.3 -2.2,0 -3.9,1.9 -3.9,4.3 0,2.4 1.7,4.4 3.9,4.4 z"
   id="path152" />
	<path
   fill="#00aeef"
   d="M 261.5,12.5 H 260 c -0.3,0 -0.6,-0.3 -0.6,-0.6 v -0.7 c 0,-0.3 0.2,-0.6 0.6,-0.6 h 1.5 V 7.4 c 0,-0.3 0.3,-0.6 0.6,-0.6 l 1,-0.1 c 0.3,0 0.5,0.3 0.5,0.6 v 3.4 h 3.5 c 0.3,0 0.6,0.2 0.6,0.6 V 12 c 0,0.3 -0.2,0.6 -0.6,0.6 h -3.5 v 7 c 0,1.2 0.3,1.4 1,1.4 0.8,0 1.8,-0.5 2.2,-0.7 0.5,-0.2 0.6,-0.1 0.7,0.2 l 0.5,0.8 c 0.2,0.4 0.1,0.5 -0.2,0.7 -0.4,0.3 -2,1 -3.5,1 -2.4,0 -2.8,-1.4 -2.8,-3.3 z"
   id="path154" />
	<path
   fill="#00aeef"
   d="m 270.6,3.7 c 0,-0.8 0.6,-1.4 1.4,-1.4 0.8,0 1.4,0.6 1.4,1.4 0,0.8 -0.6,1.4 -1.4,1.4 -0.8,0.1 -1.4,-0.6 -1.4,-1.4 z m 0.4,7.6 c 0,-0.3 0.3,-0.6 0.6,-0.6 h 0.9 c 0.3,0 0.6,0.3 0.6,0.6 v 10.9 c 0,0.3 -0.3,0.6 -0.6,0.6 h -0.9 c -0.3,0 -0.6,-0.3 -0.6,-0.6 z"
   id="path156" />
	<path
   fill="#00aeef"
   d="m 278.3,12.5 h -1.8 c -0.3,0 -0.6,-0.3 -0.6,-0.6 v -0.7 c 0,-0.3 0.2,-0.6 0.6,-0.6 h 1.8 V 6.5 c 0,-3.5 2.3,-5.1 4.9,-5.1 2,0 3.9,1 4.4,1.4 0.2,0.1 0.2,0.5 0.1,0.7 l -0.5,0.8 c -0.2,0.3 -0.5,0.2 -0.8,0 -0.4,-0.2 -1.9,-1.1 -3.3,-1.1 -1.4,0 -2.8,0.9 -2.8,3.2 v 4.2 h 7.9 c 0.3,0 0.6,0.3 0.6,0.6 v 10.9 c 0,0.3 -0.3,0.6 -0.6,0.6 h -0.9 c -0.3,0 -0.6,-0.3 -0.6,-0.6 v -9.6 h -6.4 v 9.6 c 0,0.3 -0.3,0.6 -0.6,0.6 h -0.9 c -0.3,0 -0.6,-0.3 -0.6,-0.6 v -9.6 z"
   id="path158" />
	<path
   fill="#00aeef"
   d="m 298.4,10.4 c 1.8,0 3.2,0.7 4.3,2.1 0.2,0.3 0.2,0.6 -0.1,0.8 l -0.6,0.5 c -0.5,0.4 -0.6,0.1 -0.9,-0.1 -0.6,-0.7 -1.6,-1.3 -2.8,-1.3 -2.2,0 -4,1.9 -4,4.3 0,2.4 1.7,4.3 4,4.3 1.8,0 2.5,-0.9 3.2,-1.6 0.4,-0.4 0.6,-0.3 0.9,-0.1 l 0.3,0.2 c 0.3,0.2 0.4,0.5 0.2,0.8 -0.9,1.4 -2.5,2.5 -4.6,2.5 -3.3,0 -6.2,-2.7 -6.2,-6.3 0.2,-3.3 3.1,-6.1 6.3,-6.1 z"
   id="path160" />
	<path
   fill="#00aeef"
   d="m 310.3,15.1 c 1.3,0 2.5,0.4 2.5,0.4 0,-2.2 -0.2,-3.2 -1.9,-3.2 -1.7,0 -3.1,0.5 -3.6,0.7 -0.3,0.1 -0.5,0 -0.6,-0.3 l -0.2,-0.8 c -0.1,-0.4 0.1,-0.5 0.3,-0.7 0.2,-0.1 1.9,-0.8 4.2,-0.8 3.1,0 3.8,1.6 3.8,5.1 v 6.7 c 0,0.3 -0.3,0.6 -0.6,0.6 h -0.6 c -0.3,0 -0.4,-0.2 -0.5,-0.5 l -0.2,-0.8 c -0.6,0.6 -1.9,1.6 -3.7,1.6 -2.1,0 -3.7,-1.5 -3.7,-3.9 0,-2.4 1.7,-4.1 4.8,-4.1 z m -0.8,6.1 c 1.5,0 2.8,-0.9 3.3,-1.7 v -2.4 c -0.4,-0.2 -1.2,-0.5 -2.5,-0.5 -1.7,0 -2.9,0.8 -2.9,2.4 0,1.3 0.9,2.2 2.1,2.2 z"
   id="path162" />
	<path
   fill="#00aeef"
   d="m 319.8,12.5 h -1.5 c -0.3,0 -0.6,-0.3 -0.6,-0.6 v -0.7 c 0,-0.3 0.2,-0.6 0.6,-0.6 h 1.5 V 7.4 c 0,-0.3 0.3,-0.6 0.6,-0.6 l 1,-0.1 c 0.3,0 0.5,0.3 0.5,0.6 v 3.4 h 3.5 c 0.3,0 0.6,0.2 0.6,0.6 V 12 c 0,0.3 -0.2,0.6 -0.6,0.6 h -3.5 v 7 c 0,1.2 0.3,1.4 1,1.4 0.8,0 1.8,-0.5 2.2,-0.7 0.5,-0.2 0.6,-0.1 0.7,0.2 l 0.5,0.8 c 0.2,0.4 0.1,0.5 -0.2,0.7 -0.4,0.3 -2,1 -3.5,1 -2.4,0 -2.8,-1.4 -2.8,-3.3 z"
   id="path164" />
	<path
   fill="#00aeef"
   d="m 328.8,3.7 c 0,-0.8 0.6,-1.4 1.4,-1.4 0.8,0 1.4,0.6 1.4,1.4 0,0.8 -0.6,1.4 -1.4,1.4 -0.7,0.1 -1.4,-0.6 -1.4,-1.4 z m 0.5,7.6 c 0,-0.3 0.3,-0.6 0.6,-0.6 h 0.9 c 0.3,0 0.6,0.3 0.6,0.6 v 10.9 c 0,0.3 -0.3,0.6 -0.6,0.6 h -0.9 c -0.3,0 -0.6,-0.3 -0.6,-0.6 z"
   id="path166" />
	<path
   fill="#00aeef"
   d="m 340.7,10.4 c 3.3,0 6,2.9 6,6.3 0,3.4 -2.6,6.3 -6,6.3 -3.4,0 -6,-2.9 -6,-6.3 0,-3.4 2.7,-6.3 6,-6.3 z m 0,10.7 c 2.2,0 3.9,-2 3.9,-4.4 0,-2.4 -1.7,-4.3 -3.9,-4.3 -2.2,0 -3.9,1.9 -3.9,4.3 0,2.4 1.7,4.4 3.9,4.4 z"
   id="path168" />
	<path
   fill="#00aeef"
   d="m 350,11.3 c 0,-0.3 0.3,-0.6 0.6,-0.6 h 0.6 c 0.3,0 0.4,0.1 0.5,0.4 L 352,12 c 0,0 1.7,-1.6 4.2,-1.6 3.5,0 4.6,2.3 4.6,5.4 v 6.3 c 0,0.3 -0.3,0.6 -0.6,0.6 h -1 c -0.3,0 -0.6,-0.3 -0.6,-0.6 v -6.3 c 0,-2.3 -1,-3.4 -2.7,-3.4 -2.2,0 -3.9,1.7 -3.9,1.7 v 8 c 0,0.3 -0.3,0.6 -0.6,0.6 h -0.9 c -0.3,0 -0.6,-0.3 -0.6,-0.6 V 11.3 Z"
   id="path170" />
	<path
   fill="#00aeef"
   d="m 364.2,21 c 0.1,-0.2 0.3,-0.6 0.4,-0.7 0.1,-0.2 0.5,-0.3 0.8,-0.1 0,0 1.3,1.1 2.8,1.1 1.2,0 2,-0.6 2,-1.4 0,-1.1 -0.9,-1.5 -2.6,-2.4 -1.6,-0.8 -3.4,-1.8 -3.4,-3.9 0,-1.3 1,-3.1 3.8,-3.1 1.6,0 2.8,0.5 3.3,0.9 0.3,0.2 0.4,0.6 0.2,0.9 l -0.2,0.5 c -0.2,0.3 -0.6,0.4 -0.9,0.3 0,0 -1.3,-0.7 -2.4,-0.7 -1.4,0 -1.7,0.7 -1.7,1.2 0,1 1,1.4 2.2,2 2.1,1 3.9,1.9 3.9,4.1 0,1.7 -1.7,3.4 -4.1,3.4 -2,0 -3.2,-0.8 -3.9,-1.3 -0.2,-0.3 -0.3,-0.6 -0.2,-0.8 z"
   id="path172" />
</g>
<line
   x1="0.5"
   y1="34"
   x2="400.5"
   y2="34"
   id="line176"
fill="none" stroke="#00aeef" stroke-linecap="round" stroke-linejoin="round" />
</svg>
