<svg id="Layer_1" data-name="Layer 1" xmlns="http://www.w3.org/2000/svg" width="285.279" height="49.412" viewBox="0 0 285.279 49.412">
  <g>
    <path d="M.544,33.283,15.281.976A1.123,1.123,0,0,1,16.1.448h.48a1.125,1.125,0,0,1,.817.528L32.035,33.283a.848.848,0,0,1-.816,1.248H28.194a1.118,1.118,0,0,1-1.1-.72l-2.976-6.577H8.417c-.96,2.208-1.969,4.369-2.929,6.577a1.208,1.208,0,0,1-1.1.72H1.36A.847.847,0,0,1,.544,33.283ZM22.29,23.106l-5.9-13.153h-.24L10.289,23.106Z" fill="#f1f2f2"/>
    <path d="M39.808,24.738l-6.049-8.113a.749.749,0,0,1,.576-1.3h3.121a1.385,1.385,0,0,1,1.152.528l3.84,5.52H42.5l3.937-5.52a1.3,1.3,0,0,1,1.1-.528h3.168c.816,0,1.056.624.576,1.248L45.232,24.69l6.1,8.593c.432.624.192,1.248-.576,1.248H47.729a1.3,1.3,0,0,1-1.008-.576L42.5,28h-.048l-4.32,6.144a.921.921,0,0,1-.768.385H34.144c-.816,0-1.009-.624-.577-1.248Z" fill="#f1f2f2"/>
    <path d="M54.447,4.72a2.757,2.757,0,0,1,2.737-2.832,2.808,2.808,0,1,1,0,5.616A2.746,2.746,0,0,1,54.447,4.72Zm.528,11.521a.944.944,0,0,1,.912-.912h2.737a.944.944,0,0,1,.912.912V33.619a.944.944,0,0,1-.912.912H55.887a.944.944,0,0,1-.912-.912Z" fill="#f1f2f2"/>
    <path d="M64.719,1.84a.9.9,0,0,1,.864-.912H76.625a16.8,16.8,0,1,1,0,33.6H65.583a.9.9,0,0,1-.864-.912ZM75.952,29.97A11.854,11.854,0,0,0,88.146,17.681,11.8,11.8,0,0,0,75.952,5.488H69.616V29.97Z" fill="#f1f2f2"/>
    <path d="M97.167,16.241a.944.944,0,0,1,.912-.912h1.392a.915.915,0,0,1,.817.672l.527,1.632a6.844,6.844,0,0,1,5.617-2.784c1.824,0,4.032.48,3.5,1.776l-1.152,2.353a.819.819,0,0,1-1.152.432A4.389,4.389,0,0,0,106,19.073a5.059,5.059,0,0,0-4.32,2.353V33.619c0,.816-.529.912-1.3.912h-2.3a.944.944,0,0,1-.912-.912Z" fill="#f1f2f2"/>
    <path d="M119.583,22.386a13.816,13.816,0,0,1,3.793.576c.048-3.024-.528-4.225-2.976-4.225a20.349,20.349,0,0,0-5.377.865c-.576.144-.912-.241-1.056-.769l-.384-1.776a.862.862,0,0,1,.624-1.1,19.8,19.8,0,0,1,6.625-1.1c6.144,0,6.72,3.744,6.72,8.545V33.619a.944.944,0,0,1-.912.912H125.3c-.432,0-.624-.192-.816-.672l-.48-1.3a8.279,8.279,0,0,1-5.9,2.449c-3.6,0-6.193-2.449-6.193-6.433C111.9,25.074,114.687,22.386,119.583,22.386Zm-.576,9.217a5.678,5.678,0,0,0,4.321-2.4V26.13a7.224,7.224,0,0,0-3.36-.768c-2.3,0-3.889,1.2-3.889,3.168A2.888,2.888,0,0,0,119.007,31.6Z" fill="#f1f2f2"/>
    <path d="M130.67,16.433c-.287-.624,0-1.1.673-1.1h2.592a.948.948,0,0,1,.864.576l3.216,10.609h.048L143.2,15.329a.905.905,0,0,1,.816-.48h.288a.851.851,0,0,1,.816.48l5.088,11.233h.048l3.169-10.657c.24-.576.96-.576,1.488-.576h1.872a.72.72,0,0,1,.72,1.1l-5.616,18.1a.855.855,0,0,1-.865.48h-.191a.876.876,0,0,1-.817-.432l-5.9-12.817h-.048l-5.856,12.817a.8.8,0,0,1-.769.432h-.24a.828.828,0,0,1-.816-.48Z" fill="#f1f2f2"/>
    <path d="M177.663,1.168a.969.969,0,0,1,.864-.72h.768a.975.975,0,0,1,.816.528l10.033,24.53h.192L200.321.976a.915.915,0,0,1,.816-.528h.768a.969.969,0,0,1,.864.72l5.9,32.259a.818.818,0,0,1-.864,1.1h-3.12a1,1,0,0,1-.912-.672L200.225,12.4h-.144L191.44,34.483a.816.816,0,0,1-.816.528h-.864a.861.861,0,0,1-.816-.528L180.255,12.4h-.192l-3.457,21.458a.933.933,0,0,1-.863.672h-3.121a.861.861,0,0,1-.912-1.1Z" fill="#f1f2f2"/>
    <path d="M220.91,14.849a8.645,8.645,0,0,1,8.833,8.881,11.771,11.771,0,0,1-.1,1.3.881.881,0,0,1-.864.816H215.726a5.558,5.558,0,0,0,5.52,5.137,8.189,8.189,0,0,0,4.273-1.393c.576-.336.912-.528,1.295-.048l1.344,1.824a.744.744,0,0,1-.1,1.248,11.02,11.02,0,0,1-7.1,2.4c-5.809,0-9.648-4.561-9.648-10.081C211.31,19.505,215.149,14.849,220.91,14.849Zm4.368,7.969a4.542,4.542,0,0,0-4.416-4.273,4.857,4.857,0,0,0-4.9,4.273Z" fill="#f1f2f2"/>
    <path d="M233.389,16.241a.944.944,0,0,1,.912-.912h1.392a.913.913,0,0,1,.816.672l.528,1.632a6.841,6.841,0,0,1,5.616-2.784c1.825,0,4.033.48,3.5,1.776l-1.152,2.353a.819.819,0,0,1-1.152.432,4.394,4.394,0,0,0-1.632-.337,5.06,5.06,0,0,0-4.321,2.353V33.619c0,.816-.528.912-1.3.912h-2.3a.944.944,0,0,1-.912-.912Z" fill="#f1f2f2"/>
    <path d="M248.605,27.906a7.708,7.708,0,0,1-1.488-4.656,8.225,8.225,0,0,1,8.257-8.4h8.4a.883.883,0,0,1,.913.912v1.2c0,.336-.192.768-.528.816l-2.64.721a6.424,6.424,0,0,1,2.064,5.136,7.845,7.845,0,0,1-8.161,7.824,14.118,14.118,0,0,1-4.176-.768,2.639,2.639,0,0,0-1.969,2.352,2.049,2.049,0,0,0,2.305,1.969h6.528c4.177,0,7.536,2.256,7.536,6.432,0,4.225-3.839,7.969-10.224,7.969-6.769,0-9.5-3.456-9.5-6.577a5.292,5.292,0,0,1,2.832-4.512v-.144a4.954,4.954,0,0,1-3.552-4.8A6.617,6.617,0,0,1,248.605,27.906Zm6.769,17.57c2.929,0,5.473-1.488,5.473-3.792,0-.768-.481-2.737-3.6-2.737-1.392,0-2.832,0-4.225.1-.288.1-2.639.864-2.639,3.024C250.382,44.036,252.446,45.476,255.374,45.476Zm4.128-22.13c0-2.593-1.632-4.417-4.032-4.417a4.162,4.162,0,0,0-4.224,4.417,4.162,4.162,0,0,0,4.224,4.416C257.87,27.762,259.5,25.938,259.5,23.346Z" fill="#f1f2f2"/>
    <path d="M276.446,14.849a8.645,8.645,0,0,1,8.833,8.881,12.019,12.019,0,0,1-.1,1.3.883.883,0,0,1-.864.816H271.262a5.558,5.558,0,0,0,5.52,5.137,8.189,8.189,0,0,0,4.273-1.393c.576-.336.912-.528,1.3-.048l1.343,1.824a.744.744,0,0,1-.1,1.248,11.027,11.027,0,0,1-7.1,2.4c-5.808,0-9.648-4.561-9.648-10.081C266.846,19.505,270.686,14.849,276.446,14.849Zm4.368,7.969a4.542,4.542,0,0,0-4.416-4.273,4.857,4.857,0,0,0-4.9,4.273Z" fill="#f1f2f2"/>
  </g>
  <g>
    <path d="M.1,32.835,14.833.528A1.127,1.127,0,0,1,15.649,0h.48a1.123,1.123,0,0,1,.817.528L31.587,32.835a.847.847,0,0,1-.816,1.248H27.747a1.116,1.116,0,0,1-1.1-.72l-2.977-6.576H7.969C7.009,29,6,31.155,5.041,33.363a1.208,1.208,0,0,1-1.1.72H.912A.847.847,0,0,1,.1,32.835ZM21.842,22.658l-5.9-13.153H15.7L9.841,22.658Z" fill="#00aeef"/>
    <path d="M39.36,24.29l-6.048-8.113a.749.749,0,0,1,.576-1.3h3.12a1.385,1.385,0,0,1,1.152.528L42,20.93h.048l3.937-5.521a1.3,1.3,0,0,1,1.1-.528h3.168c.816,0,1.056.624.576,1.248l-6.048,8.113,6.1,8.593c.432.624.192,1.248-.576,1.248H47.281a1.3,1.3,0,0,1-1.008-.576l-4.225-5.953H42L37.68,33.7a.923.923,0,0,1-.768.384H33.7c-.816,0-1.009-.624-.576-1.248Z" fill="#00aeef"/>
    <path d="M54,4.272A2.757,2.757,0,0,1,56.736,1.44a2.809,2.809,0,1,1,0,5.617A2.746,2.746,0,0,1,54,4.272Zm.527,11.521a.944.944,0,0,1,.912-.912h2.737a.944.944,0,0,1,.912.912V33.171a.944.944,0,0,1-.912.912H55.439a.944.944,0,0,1-.912-.912Z" fill="#00aeef"/>
    <path d="M64.271,1.392A.9.9,0,0,1,65.136.48H76.177a16.8,16.8,0,1,1,0,33.6H65.136a.9.9,0,0,1-.865-.912ZM75.5,29.522A11.854,11.854,0,0,0,87.7,17.233,11.8,11.8,0,0,0,75.5,5.041H69.168V29.522Z" fill="#00aeef"/>
    <path d="M96.719,15.793a.944.944,0,0,1,.912-.912h1.392a.914.914,0,0,1,.817.672l.528,1.633a6.841,6.841,0,0,1,5.616-2.785c1.825,0,4.033.48,3.5,1.776l-1.152,2.353a.819.819,0,0,1-1.152.432,4.389,4.389,0,0,0-1.632-.337,5.059,5.059,0,0,0-4.32,2.353V33.171c0,.816-.528.912-1.3.912H97.631a.944.944,0,0,1-.912-.912Z" fill="#00aeef"/>
    <path d="M119.136,21.938a13.814,13.814,0,0,1,3.792.576c.048-3.024-.528-4.224-2.976-4.224a20.389,20.389,0,0,0-5.376.864c-.576.144-.912-.24-1.056-.768l-.385-1.777a.862.862,0,0,1,.624-1.1,19.809,19.809,0,0,1,6.625-1.1c6.144,0,6.72,3.745,6.72,8.545V33.171a.944.944,0,0,1-.912.912h-1.344c-.431,0-.624-.192-.816-.672l-.48-1.3a8.283,8.283,0,0,1-5.9,2.448c-3.6,0-6.193-2.448-6.193-6.433C111.455,24.626,114.239,21.938,119.136,21.938Zm-.576,9.217a5.677,5.677,0,0,0,4.32-2.4V25.682a7.224,7.224,0,0,0-3.36-.768c-2.3,0-3.889,1.2-3.889,3.169A2.888,2.888,0,0,0,118.56,31.155Z" fill="#00aeef"/>
    <path d="M130.223,15.985c-.288-.624,0-1.1.672-1.1h2.592a.949.949,0,0,1,.864.577l3.216,10.608h.049l5.136-11.185a.905.905,0,0,1,.816-.48h.288a.851.851,0,0,1,.816.48l5.089,11.233h.048l3.168-10.656c.24-.577.96-.577,1.488-.577h1.872a.72.72,0,0,1,.72,1.1l-5.616,18.1a.854.854,0,0,1-.864.48h-.192a.877.877,0,0,1-.817-.432l-5.9-12.817h-.048L137.76,34.131a.8.8,0,0,1-.769.432h-.24a.825.825,0,0,1-.815-.48Z" fill="#00aeef"/>
    <path d="M177.215.72a.969.969,0,0,1,.864-.72h.768a.975.975,0,0,1,.816.528L189.7,25.058h.192L199.873.528A.915.915,0,0,1,200.689,0h.768a.969.969,0,0,1,.864.72l5.905,32.259a.819.819,0,0,1-.865,1.1h-3.12a1,1,0,0,1-.912-.672l-3.552-21.458h-.144l-8.641,22.082a.816.816,0,0,1-.816.528h-.864a.862.862,0,0,1-.816-.528l-8.689-22.082h-.192l-3.456,21.458a.934.934,0,0,1-.864.672h-3.121a.862.862,0,0,1-.912-1.1Z" fill="#00aeef"/>
    <path d="M220.463,14.4a8.645,8.645,0,0,1,8.833,8.881,11.771,11.771,0,0,1-.1,1.3.882.882,0,0,1-.864.816H215.278a5.56,5.56,0,0,0,5.521,5.137,8.189,8.189,0,0,0,4.272-1.392c.576-.336.912-.529,1.3-.049l1.344,1.825a.745.745,0,0,1-.1,1.248,11.025,11.025,0,0,1-7.1,2.4c-5.809,0-9.649-4.561-9.649-10.081C210.862,19.058,214.7,14.4,220.463,14.4Zm4.368,7.969a4.542,4.542,0,0,0-4.416-4.272,4.856,4.856,0,0,0-4.9,4.272Z" fill="#00aeef"/>
    <path d="M232.941,15.793a.945.945,0,0,1,.913-.912h1.392a.913.913,0,0,1,.816.672l.528,1.633a6.841,6.841,0,0,1,5.616-2.785c1.824,0,4.032.48,3.505,1.776l-1.152,2.353a.82.82,0,0,1-1.153.432,4.389,4.389,0,0,0-1.632-.337,5.059,5.059,0,0,0-4.32,2.353V33.171c0,.816-.528.912-1.3.912h-2.3a.945.945,0,0,1-.913-.912Z" fill="#00aeef"/>
    <path d="M248.158,27.458A7.708,7.708,0,0,1,246.67,22.8a8.225,8.225,0,0,1,8.257-8.4h8.4a.883.883,0,0,1,.912.912v1.2c0,.336-.191.768-.527.816l-2.641.72a6.423,6.423,0,0,1,2.065,5.136,7.845,7.845,0,0,1-8.161,7.825,14.11,14.11,0,0,1-4.176-.768A2.639,2.639,0,0,0,248.83,32.6a2.047,2.047,0,0,0,2.3,1.968h6.528c4.177,0,7.536,2.256,7.536,6.433,0,4.224-3.84,7.968-10.224,7.968-6.769,0-9.5-3.456-9.5-6.576a5.292,5.292,0,0,1,2.832-4.513v-.144a4.954,4.954,0,0,1-3.552-4.8A6.617,6.617,0,0,1,248.158,27.458Zm6.769,17.57c2.928,0,5.472-1.488,5.472-3.792,0-.768-.48-2.736-3.6-2.736-1.392,0-2.832,0-4.225.095-.288.1-2.639.864-2.639,3.025C249.935,43.588,252,45.028,254.927,45.028Zm4.128-22.13c0-2.592-1.632-4.417-4.033-4.417A4.162,4.162,0,0,0,250.8,22.9a4.162,4.162,0,0,0,4.223,4.416C257.423,27.314,259.055,25.49,259.055,22.9Z" fill="#00aeef"/>
    <path d="M276,14.4a8.645,8.645,0,0,1,8.833,8.881,11.771,11.771,0,0,1-.1,1.3.882.882,0,0,1-.863.816H270.814a5.56,5.56,0,0,0,5.521,5.137,8.189,8.189,0,0,0,4.272-1.392c.577-.336.913-.529,1.3-.049l1.344,1.825a.744.744,0,0,1-.1,1.248,11.028,11.028,0,0,1-7.1,2.4c-5.809,0-9.649-4.561-9.649-10.081C266.4,19.058,270.238,14.4,276,14.4Zm4.368,7.969a4.541,4.541,0,0,0-4.416-4.272,4.856,4.856,0,0,0-4.9,4.272Z" fill="#00aeef"/>
  </g>
</svg>
