<svg id="Layer_1" data-name="Layer 1" xmlns="http://www.w3.org/2000/svg" width="401" height="33.502" viewBox="0 0 401 33.502">
  <g>
    <path d="M77.471,20.52,86.681.33a.7.7,0,0,1,.51-.33h.3A.7.7,0,0,1,88,.33l9.15,20.19a.529.529,0,0,1-.51.779h-1.89a.7.7,0,0,1-.69-.45l-1.86-4.11h-9.81c-.6,1.381-1.23,2.73-1.83,4.11a.751.751,0,0,1-.69.45H77.982A.53.53,0,0,1,77.471,20.52Zm13.59-6.36-3.69-8.22h-.15l-3.66,8.22Z" fill="#00aeef"/>
    <path d="M102.012,15.18l-3.781-5.07a.469.469,0,0,1,.361-.81h1.949a.869.869,0,0,1,.721.33l2.4,3.45h.03l2.46-3.45a.814.814,0,0,1,.69-.33h1.98c.51,0,.66.39.36.78l-3.78,5.069,3.81,5.371c.27.389.12.779-.36.779h-1.89a.815.815,0,0,1-.63-.36l-2.64-3.719h-.03l-2.7,3.84a.579.579,0,0,1-.48.239h-2.01c-.51,0-.629-.39-.359-.779Z" fill="#00aeef"/>
    <path d="M111.762,2.67A1.723,1.723,0,0,1,113.471.9a1.755,1.755,0,1,1,0,3.51A1.716,1.716,0,0,1,111.762,2.67Zm.329,7.2a.59.59,0,0,1,.57-.57h1.71a.59.59,0,0,1,.57.57V20.729a.59.59,0,0,1-.57.57h-1.71a.59.59,0,0,1-.57-.57Z" fill="#00aeef"/>
    <path d="M119.381.87a.564.564,0,0,1,.54-.57h6.9a10.5,10.5,0,1,1,0,21h-6.9a.564.564,0,0,1-.54-.57Zm7.02,17.579a7.408,7.408,0,0,0,7.619-7.679A7.376,7.376,0,0,0,126.4,3.15h-3.96v15.3Z" fill="#00aeef"/>
    <path d="M140.261,9.87a.59.59,0,0,1,.57-.57h.87a.57.57,0,0,1,.51.42l.33,1.02A4.276,4.276,0,0,1,146.051,9c1.14,0,2.52.3,2.19,1.11l-.72,1.47a.512.512,0,0,1-.72.27,2.745,2.745,0,0,0-1.02-.21,3.16,3.16,0,0,0-2.7,1.47v7.619c0,.51-.33.57-.81.57h-1.44a.59.59,0,0,1-.57-.57Z" fill="#00aeef"/>
    <path d="M154.271,13.709a8.612,8.612,0,0,1,2.37.361c.03-1.89-.33-2.64-1.86-2.64a12.748,12.748,0,0,0-3.36.54c-.36.09-.57-.15-.659-.48l-.241-1.11a.539.539,0,0,1,.39-.69,12.375,12.375,0,0,1,4.14-.69c3.84,0,4.2,2.34,4.2,5.34v6.389a.59.59,0,0,1-.57.57h-.84c-.27,0-.39-.12-.51-.42l-.3-.81a5.177,5.177,0,0,1-3.69,1.53,3.726,3.726,0,0,1-3.87-4.019C149.471,15.39,151.211,13.709,154.271,13.709Zm-.36,5.76a3.55,3.55,0,0,0,2.7-1.5v-1.92a4.528,4.528,0,0,0-2.1-.48c-1.44,0-2.43.75-2.43,1.98A1.8,1.8,0,0,0,153.911,19.469Z" fill="#00aeef"/>
    <path d="M161.8,9.99c-.18-.39,0-.69.42-.69h1.62a.593.593,0,0,1,.54.36l2.01,6.63h.03L169.63,9.3a.569.569,0,0,1,.511-.3h.18a.529.529,0,0,1,.509.3l3.18,7.019h.03l1.981-6.659c.149-.36.6-.36.929-.36h1.17a.451.451,0,0,1,.451.69L175.061,21.3a.535.535,0,0,1-.54.3h-.12a.545.545,0,0,1-.51-.27L170.2,13.32h-.03l-3.659,8.009a.5.5,0,0,1-.48.27h-.15a.517.517,0,0,1-.51-.3Z" fill="#00aeef"/>
    <path d="M181.15,10.95A1.946,1.946,0,0,1,183.1,9a1.935,1.935,0,1,1-1.95,1.95Zm1.95,6.779a1.935,1.935,0,1,1-1.95,1.95A1.947,1.947,0,0,1,183.1,17.729Z" fill="#00aeef"/>
    <path d="M196.509.87a.57.57,0,0,1,.57-.57h6.63a6.71,6.71,0,0,1,6.72,6.63,6.748,6.748,0,0,1-6.689,6.75h-4.951v7.049a.59.59,0,0,1-.57.57h-1.14a.57.57,0,0,1-.57-.57Zm7.05,10.59a4.583,4.583,0,0,0,4.559-4.59,4.428,4.428,0,0,0-4.559-4.29h-4.77v8.88Z" fill="#00aeef"/>
    <path d="M217.3,9a5.3,5.3,0,0,1,5.43,5.49,7.374,7.374,0,0,1-.06.81.552.552,0,0,1-.54.51H213.49a4.211,4.211,0,0,0,4.019,3.9,5.718,5.718,0,0,0,2.97-.9c.42-.241.6-.391.84-.06.18.239.33.449.51.689.21.27.33.45-.12.78a7.449,7.449,0,0,1-4.41,1.38c-3.63,0-5.88-2.849-5.88-6.3C211.419,11.91,213.669,9,217.3,9Zm3.36,5.129a3.466,3.466,0,0,0-3.36-3.3,3.731,3.731,0,0,0-3.78,3.3Z" fill="#00aeef"/>
    <path d="M226,9.87a.59.59,0,0,1,.571-.57h.569a.437.437,0,0,1,.48.36l.27.93a6.7,6.7,0,0,1,4.2-1.59c3.48,0,4.65,2.28,4.65,5.4v6.33a.59.59,0,0,1-.57.57h-.96a.59.59,0,0,1-.57-.57V14.4c0-2.279-1.02-3.389-2.7-3.389a5.906,5.906,0,0,0-3.869,1.71v8.009a.591.591,0,0,1-.571.57h-.929a.59.59,0,0,1-.571-.57Z" fill="#00aeef"/>
    <path d="M251.408,2.31h-5.22a.57.57,0,0,1-.57-.57V.87a.57.57,0,0,1,.57-.57h12.72a.57.57,0,0,1,.57.57v.87a.57.57,0,0,1-.57.57h-5.22V20.729a.59.59,0,0,1-.571.57h-1.139a.59.59,0,0,1-.57-.57Z" fill="#00aeef"/>
    <path d="M261.189,2.34a1.425,1.425,0,1,1,1.41,1.41A1.408,1.408,0,0,1,261.189,2.34Zm.42,7.53a.589.589,0,0,1,.57-.57h.93a.591.591,0,0,1,.57.57V20.729a.591.591,0,0,1-.57.57h-.93a.589.589,0,0,1-.57-.57Z" fill="#00aeef"/>
    <path d="M267.939,9.87a.589.589,0,0,1,.57-.57h.569a.438.438,0,0,1,.481.36l.269.93a5.478,5.478,0,0,1,3.9-1.59,4.221,4.221,0,0,1,3.84,1.95A7.319,7.319,0,0,1,282.038,9c3.48,0,4.65,2.28,4.65,5.4v6.33a.59.59,0,0,1-.57.57h-.96a.59.59,0,0,1-.57-.57V14.4c0-2.249-.96-3.389-2.7-3.389a5.371,5.371,0,0,0-3.659,1.679,9.827,9.827,0,0,1,.149,1.71v6.33a.589.589,0,0,1-.57.57h-.959a.589.589,0,0,1-.57-.57V14.4c0-2.279-1.021-3.389-2.85-3.389a4.636,4.636,0,0,0-3.42,1.71v8.009a.59.59,0,0,1-.57.57h-.93a.589.589,0,0,1-.57-.57Z" fill="#00aeef"/>
    <path d="M290.378,2.34a1.425,1.425,0,1,1,1.41,1.41A1.408,1.408,0,0,1,290.378,2.34Zm.42,7.53a.59.59,0,0,1,.57-.57h.93a.59.59,0,0,1,.57.57V20.729a.59.59,0,0,1-.57.57h-.93a.59.59,0,0,1-.57-.57Z" fill="#00aeef"/>
    <path d="M297.128,9.87a.59.59,0,0,1,.571-.57h.569a.437.437,0,0,1,.48.36l.27.93a6.7,6.7,0,0,1,4.2-1.59c3.48,0,4.649,2.28,4.649,5.4v6.33a.589.589,0,0,1-.569.57h-.96a.59.59,0,0,1-.57-.57V14.4c0-2.279-1.02-3.389-2.7-3.389a5.906,5.906,0,0,0-3.869,1.71v8.009a.591.591,0,0,1-.571.57H297.7a.59.59,0,0,1-.571-.57Z" fill="#00aeef"/>
    <path d="M312.787,17.279a5.281,5.281,0,0,1-.96-3A5.054,5.054,0,0,1,316.9,9h5.069a.552.552,0,0,1,.57.57v.51c0,.21-.12.48-.33.51l-1.62.33a4.167,4.167,0,0,1,1.351,3.36,4.933,4.933,0,0,1-5.04,5.1,4.745,4.745,0,0,1-2.85-.75,2.255,2.255,0,0,0-1.32,1.8,1.487,1.487,0,0,0,1.65,1.47h4.32c2.519,0,4.5,1.23,4.5,3.84,0,2.49-2.581,4.86-6.21,4.86-4.02,0-5.76-2.16-5.76-4.14a3.233,3.233,0,0,1,1.74-2.79v-.09a2.893,2.893,0,0,1-2.19-2.85A4.276,4.276,0,0,1,312.787,17.279Zm4.17,11.37c1.981,0,4.021-1.11,4.021-2.85,0-.39-.181-1.95-2.28-1.95h-3.331s-2.009.54-2.009,2.31C313.358,27.6,314.917,28.649,316.957,28.649Zm2.97-14.429c0-1.98-1.2-3.36-3-3.36a3.132,3.132,0,0,0-3.15,3.36,3.132,3.132,0,0,0,3.15,3.36C318.728,17.58,319.927,16.2,319.927,14.22Z" fill="#00aeef"/>
  </g>
  <line x1="0.5" y1="33.002" x2="400.5" y2="33.002" fill="none" stroke="#00aeef" stroke-linecap="round" stroke-linejoin="round"/>
</svg>
