<svg id="Layer_1" data-name="Layer 1" xmlns="http://www.w3.org/2000/svg" width="401" height="34.502" viewBox="0 0 401 34.502">
  <g>
    <path d="M17.908.87a.57.57,0,0,1,.57-.57h6.84a6.709,6.709,0,0,1,6.719,6.63,6.748,6.748,0,0,1-6.69,6.75H21v7.049a.589.589,0,0,1-.569.57h-1.95a.57.57,0,0,1-.57-.57Zm7.23,9.87A3.822,3.822,0,0,0,28.947,6.9a3.7,3.7,0,0,0-3.809-3.6H21v7.44Z" fill="#00aeef"/>
    <path d="M34.438.87a.59.59,0,0,1,.57-.57h1.71a.59.59,0,0,1,.57.57V20.729a.59.59,0,0,1-.57.57h-1.71a.59.59,0,0,1-.57-.57Z" fill="#00aeef"/>
    <path d="M46.347,9a6.206,6.206,0,0,1,6.06,6.27,6.066,6.066,0,1,1-12.12,0A6.206,6.206,0,0,1,46.347,9Zm0,10.02a3.573,3.573,0,0,0,3.39-3.75,3.4,3.4,0,1,0-6.78,0A3.573,3.573,0,0,0,46.347,19.02Z" fill="#00aeef"/>
    <path d="M56.188,11.79h-1.26a.57.57,0,0,1-.57-.57V9.87a.552.552,0,0,1,.57-.57h1.26V5.97a.59.59,0,0,1,.57-.57l1.71-.03a.565.565,0,0,1,.54.57V9.3h3.06a.552.552,0,0,1,.57.57v1.35a.57.57,0,0,1-.57.57h-3.06v5.939c0,1.021.39,1.2.96,1.2a4.918,4.918,0,0,0,1.83-.539.449.449,0,0,1,.69.269l.54,1.32a.5.5,0,0,1-.27.72,9.213,9.213,0,0,1-3.511.9c-2.369,0-3.059-1.44-3.059-3.57Z" fill="#00aeef"/>
    <path d="M65.608,10.95A1.946,1.946,0,0,1,67.557,9a1.935,1.935,0,0,1,0,3.87A1.94,1.94,0,0,1,65.608,10.95Zm1.949,6.779a1.935,1.935,0,1,1-1.949,1.95A1.947,1.947,0,0,1,67.557,17.729Z" fill="#00aeef"/>
    <path d="M78.087,20.52,87.207.33a.539.539,0,0,1,.51-.33h.3a.54.54,0,0,1,.511.33l9.059,20.19a.529.529,0,0,1-.51.779h-1.2a.549.549,0,0,1-.509-.33L93.146,16.02H82.5l-2.19,4.949a.552.552,0,0,1-.51.33H78.6A.529.529,0,0,1,78.087,20.52Zm14.249-6.36c-1.469-3.27-2.909-6.57-4.379-9.84h-.24l-4.38,9.84Z" fill="#00aeef"/>
    <path d="M99.567,9.87a.59.59,0,0,1,.57-.57h.96a.59.59,0,0,1,.57.57V16.2c0,2.279,1.02,3.389,2.7,3.389a4.746,4.746,0,0,0,3.57-1.71V9.87a.59.59,0,0,1,.57-.57h.93a.59.59,0,0,1,.57.57V20.729a.59.59,0,0,1-.57.57h-.57c-.33,0-.45-.21-.54-.509l-.21-.781a5.474,5.474,0,0,1-3.9,1.59c-3.48,0-4.65-2.249-4.65-5.43Z" fill="#00aeef"/>
    <path d="M115.046,11.1h-1.53a.569.569,0,0,1-.569-.57V9.87a.551.551,0,0,1,.569-.57h1.53V5.97a.59.59,0,0,1,.571-.57l.959-.06a.565.565,0,0,1,.541.57V9.3H120.6a.552.552,0,0,1,.57.57v.66a.57.57,0,0,1-.57.57h-3.479v7.02c0,1.2.3,1.44.989,1.44a5.727,5.727,0,0,0,2.19-.661c.45-.24.57-.06.72.181l.45.75c.21.359.12.539-.21.749a7.839,7.839,0,0,1-3.45,1.02c-2.4,0-2.76-1.44-2.76-3.3Z" fill="#00aeef"/>
    <path d="M129.626,9a6.15,6.15,0,0,1,5.97,6.27,5.98,5.98,0,1,1-11.94,0A6.15,6.15,0,0,1,129.626,9Zm0,10.649a4.13,4.13,0,0,0,3.9-4.379,3.918,3.918,0,1,0-7.8,0A4.13,4.13,0,0,0,129.626,19.649Z" fill="#00aeef"/>
    <path d="M138.986,9.87a.59.59,0,0,1,.57-.57h.57a.437.437,0,0,1,.48.36l.27.93a5.474,5.474,0,0,1,3.9-1.59,4.218,4.218,0,0,1,3.84,1.95A7.327,7.327,0,0,1,153.086,9c3.479,0,4.65,2.28,4.65,5.4v6.33a.59.59,0,0,1-.571.57h-.96a.59.59,0,0,1-.569-.57V14.4c0-2.249-.96-3.389-2.7-3.389a5.371,5.371,0,0,0-3.66,1.679,9.822,9.822,0,0,1,.15,1.71v6.33a.59.59,0,0,1-.57.57h-.96a.59.59,0,0,1-.57-.57V14.4c0-2.279-1.02-3.389-2.85-3.389a4.636,4.636,0,0,0-3.42,1.71v8.009a.59.59,0,0,1-.57.57h-.93a.59.59,0,0,1-.57-.57Z" fill="#00aeef"/>
    <path d="M165.776,13.68a9.859,9.859,0,0,1,2.55.39c.03-2.22-.24-3.24-1.95-3.24a10.55,10.55,0,0,0-3.6.66c-.3.12-.48-.03-.57-.3l-.24-.75a.483.483,0,0,1,.33-.66,11.275,11.275,0,0,1,4.17-.78c3.06,0,3.81,1.56,3.81,5.07v6.659a.59.59,0,0,1-.571.57h-.569c-.33,0-.42-.18-.51-.45l-.24-.809a5.205,5.205,0,0,1-3.72,1.559,3.643,3.643,0,0,1-3.69-3.93C160.976,15.39,162.686,13.68,165.776,13.68ZM165,19.8a4.255,4.255,0,0,0,3.3-1.679V15.75a5.37,5.37,0,0,0-2.52-.48c-1.68,0-2.88.839-2.88,2.4A2.023,2.023,0,0,0,165,19.8Z" fill="#00aeef"/>
    <path d="M175.226,11.1H173.7a.57.57,0,0,1-.571-.57V9.87a.552.552,0,0,1,.571-.57h1.53V5.97a.589.589,0,0,1,.569-.57l.96-.06a.563.563,0,0,1,.54.57V9.3h3.481a.551.551,0,0,1,.569.57v.66a.569.569,0,0,1-.569.57H177.3v7.02c0,1.2.3,1.44.99,1.44a5.738,5.738,0,0,0,2.191-.661c.449-.24.569-.06.72.181l.45.75c.21.359.119.539-.211.749a7.833,7.833,0,0,1-3.449,1.02c-2.4,0-2.76-1.44-2.76-3.3Z" fill="#00aeef"/>
    <path d="M184.285,2.34A1.425,1.425,0,1,1,185.7,3.75,1.409,1.409,0,0,1,184.285,2.34Zm.42,7.53a.591.591,0,0,1,.571-.57h.929a.591.591,0,0,1,.571.57V20.729a.591.591,0,0,1-.571.57h-.929a.591.591,0,0,1-.571-.57Z" fill="#00aeef"/>
    <path d="M196.316,9a5.177,5.177,0,0,1,4.289,2.1.586.586,0,0,1-.12.839l-.57.481c-.45.42-.6.12-.87-.12a3.7,3.7,0,0,0-2.76-1.26,4.072,4.072,0,0,0-3.99,4.26,4.1,4.1,0,0,0,3.96,4.319,4,4,0,0,0,3.18-1.559c.36-.361.57-.3.9-.06l.33.239a.6.6,0,0,1,.21.841,5.377,5.377,0,0,1-4.59,2.519,6.166,6.166,0,0,1-6.15-6.269A6.321,6.321,0,0,1,196.316,9Z" fill="#00aeef"/>
    <path d="M209.784,9.99c-.12-.42,0-.69.45-.69h.93a.552.552,0,0,1,.54.33l2.19,7.919h.03l3.39-8.249a.532.532,0,0,1,.51-.3h.15a.533.533,0,0,1,.51.3l3.36,8.28h.029l2.16-7.95a.541.541,0,0,1,.51-.33h.931c.449,0,.569.27.449.69L222.654,21.3a.517.517,0,0,1-.51.3h-.151a.53.53,0,0,1-.509-.3l-3.66-9-3.54,9a.532.532,0,0,1-.51.3h-.15a.488.488,0,0,1-.509-.3Z" fill="#00aeef"/>
    <path d="M228.624,2.34a1.425,1.425,0,1,1,1.41,1.41A1.408,1.408,0,0,1,228.624,2.34Zm.42,7.53a.59.59,0,0,1,.571-.57h.929a.591.591,0,0,1,.571.57V20.729a.591.591,0,0,1-.571.57h-.929a.59.59,0,0,1-.571-.57Z" fill="#00aeef"/>
    <path d="M236.155,11.1h-1.531a.57.57,0,0,1-.57-.57V9.87a.552.552,0,0,1,.57-.57h1.531V5.97a.589.589,0,0,1,.569-.57l.96-.06a.563.563,0,0,1,.54.57V9.3h3.48a.552.552,0,0,1,.57.57v.66a.57.57,0,0,1-.57.57h-3.48v7.02c0,1.2.3,1.44.99,1.44a5.727,5.727,0,0,0,2.19-.661c.45-.24.57-.06.72.181l.451.75c.209.359.119.539-.21.749a7.844,7.844,0,0,1-3.451,1.02c-2.4,0-2.759-1.44-2.759-3.3Z" fill="#00aeef"/>
    <path d="M245.664.87a.59.59,0,0,1,.57-.57h.93a.59.59,0,0,1,.57.57v9.72A6.125,6.125,0,0,1,251.754,9c2.97,0,4.65,1.89,4.65,5.4v6.33a.59.59,0,0,1-.571.57h-.96a.59.59,0,0,1-.569-.57V14.4c0-2.279-1.021-3.389-2.7-3.389a5.856,5.856,0,0,0-3.87,1.679v8.04a.59.59,0,0,1-.57.57h-.93a.59.59,0,0,1-.57-.57Z" fill="#00aeef"/>
    <path d="M267.953,11.1h-1.53a.57.57,0,0,1-.57-.57V9.87a.552.552,0,0,1,.57-.57h1.53V5.97a.59.59,0,0,1,.57-.57l.96-.06a.564.564,0,0,1,.54.57V9.3h3.48a.552.552,0,0,1,.57.57v.66a.57.57,0,0,1-.57.57h-3.48v7.02c0,1.2.3,1.44.99,1.44A5.716,5.716,0,0,0,273.2,18.9c.451-.24.571-.06.721.181l.45.75c.21.359.119.539-.21.749a7.843,7.843,0,0,1-3.45,1.02c-2.4,0-2.76-1.44-2.76-3.3Z" fill="#00aeef"/>
    <path d="M277.013,2.34a1.425,1.425,0,1,1,1.41,1.41A1.408,1.408,0,0,1,277.013,2.34Zm.42,7.53A.589.589,0,0,1,278,9.3h.93a.59.59,0,0,1,.57.57V20.729a.59.59,0,0,1-.57.57H278a.589.589,0,0,1-.57-.57Z" fill="#00aeef"/>
    <path d="M283.763,9.87a.59.59,0,0,1,.57-.57h.57a.437.437,0,0,1,.48.36l.27.93a5.474,5.474,0,0,1,3.9-1.59,4.218,4.218,0,0,1,3.84,1.95A7.32,7.32,0,0,1,297.863,9c3.479,0,4.649,2.28,4.649,5.4v6.33a.59.59,0,0,1-.569.57h-.96a.59.59,0,0,1-.571-.57V14.4c0-2.249-.96-3.389-2.7-3.389a5.371,5.371,0,0,0-3.659,1.679,9.827,9.827,0,0,1,.149,1.71v6.33a.589.589,0,0,1-.57.57h-.959a.589.589,0,0,1-.57-.57V14.4c0-2.279-1.021-3.389-2.85-3.389a4.636,4.636,0,0,0-3.42,1.71v8.009a.59.59,0,0,1-.57.57h-.93a.59.59,0,0,1-.57-.57Z" fill="#00aeef"/>
    <path d="M311.632,9a5.3,5.3,0,0,1,5.43,5.49,7.374,7.374,0,0,1-.06.81.552.552,0,0,1-.54.51h-8.639a4.211,4.211,0,0,0,4.019,3.9,5.718,5.718,0,0,0,2.97-.9c.42-.241.6-.391.84-.06.18.239.33.449.51.689.21.27.33.45-.12.78a7.449,7.449,0,0,1-4.41,1.38c-3.63,0-5.88-2.849-5.88-6.3C305.752,11.91,308,9,311.632,9Zm3.36,5.129a3.466,3.466,0,0,0-3.36-3.3,3.729,3.729,0,0,0-3.779,3.3Z" fill="#00aeef"/>
    <path d="M331.881,9a6.42,6.42,0,0,1,3.21.78V.87a.591.591,0,0,1,.57-.57h.93a.59.59,0,0,1,.57.57V20.729a.59.59,0,0,1-.57.57h-.63a.544.544,0,0,1-.51-.48l-.18-.81a5.368,5.368,0,0,1-3.69,1.59c-3.059,0-5.46-2.88-5.46-6.329C326.121,11.76,328.282,9,331.881,9Zm-.09,10.709a4.051,4.051,0,0,0,3.27-1.98v-6a6.452,6.452,0,0,0-2.909-.719c-2.611,0-3.93,1.889-3.93,4.29C328.222,17.64,329.6,19.709,331.791,19.709Z" fill="#00aeef"/>
    <path d="M346.461,9a5.3,5.3,0,0,1,5.43,5.49,7.374,7.374,0,0,1-.06.81.552.552,0,0,1-.54.51h-8.639a4.211,4.211,0,0,0,4.019,3.9,5.718,5.718,0,0,0,2.97-.9c.42-.241.6-.391.84-.06.18.239.33.449.511.689.209.27.33.45-.121.78a7.447,7.447,0,0,1-4.41,1.38c-3.63,0-5.88-2.849-5.88-6.3C340.581,11.91,342.831,9,346.461,9Zm3.361,5.129a3.467,3.467,0,0,0-3.361-3.3,3.731,3.731,0,0,0-3.78,3.3Z" fill="#00aeef"/>
    <path d="M355.192.87a.589.589,0,0,1,.569-.57h.931a.589.589,0,0,1,.569.57V20.729a.589.589,0,0,1-.569.57h-.931a.589.589,0,0,1-.569-.57Z" fill="#00aeef"/>
    <path d="M365.481,13.68a9.859,9.859,0,0,1,2.55.39c.03-2.22-.24-3.24-1.95-3.24a10.55,10.55,0,0,0-3.6.66c-.3.12-.48-.03-.57-.3l-.24-.75a.483.483,0,0,1,.33-.66,11.275,11.275,0,0,1,4.17-.78c3.06,0,3.81,1.56,3.81,5.07v6.659a.59.59,0,0,1-.571.57h-.569c-.33,0-.42-.18-.511-.45l-.239-.809a5.205,5.205,0,0,1-3.72,1.559,3.643,3.643,0,0,1-3.69-3.93C360.681,15.39,362.391,13.68,365.481,13.68ZM364.7,19.8A4.257,4.257,0,0,0,368,18.12V15.75a5.37,5.37,0,0,0-2.52-.48c-1.68,0-2.88.839-2.88,2.4A2.023,2.023,0,0,0,364.7,19.8Z" fill="#00aeef"/>
    <path d="M372.441,9.96c-.18-.39,0-.66.45-.66h1.319a.573.573,0,0,1,.511.33l4.439,9.18h.031l4.2-9.18a.612.612,0,0,1,.511-.33h1.139c.451,0,.66.3.451.69l-9.21,19.949a.641.641,0,0,1-.51.36H374.66a.484.484,0,0,1-.479-.75l3.84-8.279Z" fill="#00aeef"/>
  </g>
  <line x1="0.5" y1="34.002" x2="400.5" y2="34.002" fill="none" stroke="#00aeef" stroke-linecap="round" stroke-linejoin="round"/>
</svg>
