<svg id="Layer_1" data-name="Layer 1" xmlns="http://www.w3.org/2000/svg" width="382.413" height="33.502" viewBox="0 0 382.413 33.502">
  <g>
    <path d="M44.764.87a.59.59,0,0,1,.57-.57h1.98a.57.57,0,0,1,.57.57V9.24H58.863V.87a.57.57,0,0,1,.57-.57h1.98a.59.59,0,0,1,.571.57V20.729a.59.59,0,0,1-.571.57h-1.98a.57.57,0,0,1-.57-.57V12.06H47.884v8.669a.57.57,0,0,1-.57.57h-1.98a.59.59,0,0,1-.57-.57Z" fill="#00aeef"/>
    <path d="M70.144,13.709a8.6,8.6,0,0,1,2.369.361c.031-1.89-.33-2.64-1.859-2.64a12.748,12.748,0,0,0-3.36.54c-.36.09-.57-.15-.66-.48l-.24-1.11a.539.539,0,0,1,.39-.69A12.375,12.375,0,0,1,70.924,9c3.839,0,4.2,2.34,4.2,5.34v6.389a.59.59,0,0,1-.57.57h-.839c-.27,0-.391-.12-.511-.42l-.3-.81a5.181,5.181,0,0,1-3.69,1.53,3.726,3.726,0,0,1-3.87-4.019C65.344,15.39,67.084,13.709,70.144,13.709Zm-.36,5.76a3.55,3.55,0,0,0,2.7-1.5v-1.92a4.534,4.534,0,0,0-2.1-.48c-1.439,0-2.429.75-2.429,1.98A1.8,1.8,0,0,0,69.784,19.469Z" fill="#00aeef"/>
    <path d="M78.9,9.87a.59.59,0,0,1,.57-.57h.87a.486.486,0,0,1,.48.36l.36,1.02A6.136,6.136,0,0,1,85.383,9c3.66,0,5.01,2.58,5.01,5.7v6.029a.59.59,0,0,1-.57.57h-1.71a.57.57,0,0,1-.57-.57V14.58c0-1.92-.93-2.97-2.49-2.97a3.969,3.969,0,0,0-3.33,1.8v7.319c0,.39-.18.57-.69.57h-1.56a.59.59,0,0,1-.57-.57Z" fill="#00aeef"/>
    <path d="M99.183,9a7.225,7.225,0,0,1,2.88.66V.87a.59.59,0,0,1,.57-.57h1.74a.59.59,0,0,1,.57.57V20.729a.59.59,0,0,1-.57.57h-.9c-.269,0-.449-.21-.539-.509l-.24-.871a5.363,5.363,0,0,1-3.81,1.68c-3.18,0-5.61-2.849-5.61-6.3A6.053,6.053,0,0,1,99.183,9Zm.06,10.02a3.226,3.226,0,0,0,2.849-1.8V12.33a4.972,4.972,0,0,0-2.609-.72,3.485,3.485,0,0,0-3.42,3.69C96.063,17.31,97.323,19.02,99.243,19.02Z" fill="#00aeef"/>
    <path d="M107.7,9.99c-.18-.39,0-.69.42-.69h1.62a.59.59,0,0,1,.539.36l2.011,6.63h.029l3.21-6.99a.566.566,0,0,1,.51-.3h.18a.531.531,0,0,1,.51.3l3.18,7.019h.03l1.98-6.659c.15-.36.6-.36.93-.36h1.17a.45.45,0,0,1,.45.69L120.962,21.3a.534.534,0,0,1-.54.3h-.12a.547.547,0,0,1-.51-.27L116.1,13.32h-.03l-3.659,8.009a.5.5,0,0,1-.481.27h-.15a.517.517,0,0,1-.509-.3Z" fill="#00aeef"/>
    <path d="M127.232,9.87a.59.59,0,0,1,.57-.57h.87a.569.569,0,0,1,.51.42l.33,1.02A4.276,4.276,0,0,1,133.022,9c1.14,0,2.52.3,2.19,1.11l-.72,1.47a.512.512,0,0,1-.72.27,2.745,2.745,0,0,0-1.02-.21,3.16,3.16,0,0,0-2.7,1.47v7.619c0,.51-.33.57-.81.57H127.8a.59.59,0,0,1-.57-.57Z" fill="#00aeef"/>
    <path d="M136.983,2.67A1.723,1.723,0,0,1,138.693.9a1.755,1.755,0,1,1,0,3.51A1.716,1.716,0,0,1,136.983,2.67Zm.329,7.2a.59.59,0,0,1,.571-.57h1.709a.59.59,0,0,1,.57.57V20.729a.59.59,0,0,1-.57.57h-1.709a.59.59,0,0,1-.571-.57Z" fill="#00aeef"/>
    <path d="M144.842,11.79h-1.26a.57.57,0,0,1-.57-.57V9.87a.552.552,0,0,1,.57-.57h1.26V5.97a.59.59,0,0,1,.57-.57l1.71-.03a.564.564,0,0,1,.54.57V9.3h3.06a.552.552,0,0,1,.57.57v1.35a.57.57,0,0,1-.57.57h-3.06v5.939c0,1.021.39,1.2.96,1.2a4.906,4.906,0,0,0,1.83-.539.449.449,0,0,1,.69.269l.54,1.32a.5.5,0,0,1-.27.72,9.2,9.2,0,0,1-3.51.9c-2.37,0-3.06-1.44-3.06-3.57Z" fill="#00aeef"/>
    <path d="M154.112,2.67A1.723,1.723,0,0,1,155.822.9a1.755,1.755,0,1,1,0,3.51A1.716,1.716,0,0,1,154.112,2.67Zm.33,7.2a.59.59,0,0,1,.57-.57h1.71a.59.59,0,0,1,.57.57V20.729a.59.59,0,0,1-.57.57h-1.71a.59.59,0,0,1-.57-.57Z" fill="#00aeef"/>
    <path d="M161.191,9.87a.591.591,0,0,1,.57-.57h.871a.486.486,0,0,1,.479.36l.36,1.02a6.136,6.136,0,0,1,4.2-1.68c3.66,0,5.009,2.58,5.009,5.7v6.029a.589.589,0,0,1-.569.57H170.4a.57.57,0,0,1-.57-.57V14.58c0-1.92-.93-2.97-2.489-2.97a3.97,3.97,0,0,0-3.331,1.8v7.319c0,.39-.18.57-.69.57h-1.56a.591.591,0,0,1-.57-.57Z" fill="#00aeef"/>
    <path d="M177.361,17.16a4.821,4.821,0,0,1-.93-2.91A5.14,5.14,0,0,1,181.591,9h5.25a.552.552,0,0,1,.57.57v.75c0,.21-.12.48-.33.51l-1.651.45a4.015,4.015,0,0,1,1.29,3.21,4.9,4.9,0,0,1-5.1,4.889,8.824,8.824,0,0,1-2.61-.48,1.65,1.65,0,0,0-1.23,1.47,1.279,1.279,0,0,0,1.44,1.23H183.3c2.611,0,4.71,1.41,4.71,4.02,0,2.64-2.4,4.98-6.389,4.98-4.23,0-5.94-2.16-5.94-4.11a3.306,3.306,0,0,1,1.77-2.82v-.09a3.1,3.1,0,0,1-2.22-3A4.135,4.135,0,0,1,177.361,17.16Zm4.23,10.979c1.83,0,3.419-.93,3.419-2.37,0-.48-.3-1.71-2.25-1.71-.869,0-1.769,0-2.639.06-.18.06-1.65.54-1.65,1.89C178.471,27.239,179.76,28.139,181.591,28.139Zm2.58-13.829a2.526,2.526,0,0,0-2.52-2.76,2.6,2.6,0,0,0-2.64,2.76,2.6,2.6,0,0,0,2.64,2.759A2.526,2.526,0,0,0,184.171,14.31Z" fill="#00aeef"/>
    <path d="M190.321,14.58V13.29a.551.551,0,0,1,.57-.57h6.48a.55.55,0,0,1,.569.57v1.29a.545.545,0,0,1-.569.54h-6.48A.546.546,0,0,1,190.321,14.58Z" fill="#00aeef"/>
    <path d="M201.931.87A.59.59,0,0,1,202.5.3h1.71a.59.59,0,0,1,.57.57V20.729a.59.59,0,0,1-.57.57H202.5a.59.59,0,0,1-.57-.57Z" fill="#00aeef"/>
    <path d="M208.351,2.67A1.723,1.723,0,0,1,210.061.9a1.755,1.755,0,1,1,0,3.51A1.716,1.716,0,0,1,208.351,2.67Zm.33,7.2a.59.59,0,0,1,.57-.57h1.71a.59.59,0,0,1,.57.57V20.729a.59.59,0,0,1-.57.57h-1.71a.59.59,0,0,1-.57-.57Z" fill="#00aeef"/>
    <path d="M215.431.87A.59.59,0,0,1,216,.3h1.74a.59.59,0,0,1,.57.57V13.859l4.68-4.2a1.184,1.184,0,0,1,.75-.36h2.1a.466.466,0,0,1,.33.81l-4.98,4.53,5.88,5.88a.444.444,0,0,1-.33.779h-2.46a.764.764,0,0,1-.54-.239l-5.43-5.581v5.25a.59.59,0,0,1-.57.57H216a.59.59,0,0,1-.57-.57Z" fill="#00aeef"/>
    <path d="M234.361,9a5.4,5.4,0,0,1,5.52,5.55,7.34,7.34,0,0,1-.061.809.551.551,0,0,1-.54.511h-8.159a3.475,3.475,0,0,0,3.45,3.21,5.112,5.112,0,0,0,2.67-.871c.359-.209.569-.33.809-.029l.84,1.139a.467.467,0,0,1-.059.781,6.9,6.9,0,0,1-4.441,1.5,6,6,0,0,1-6.029-6.3A6.029,6.029,0,0,1,234.361,9Zm2.73,4.979a2.839,2.839,0,0,0-2.76-2.669,3.035,3.035,0,0,0-3.06,2.669Z" fill="#00aeef"/>
    <path d="M250.32.87a.563.563,0,0,1,.54-.57h6.9a10.5,10.5,0,1,1,0,21h-6.9a.563.563,0,0,1-.54-.57Zm7.02,17.579a7.407,7.407,0,0,0,7.619-7.679,7.375,7.375,0,0,0-7.619-7.62h-3.96v15.3Z" fill="#00aeef"/>
    <path d="M276.39,9a5.4,5.4,0,0,1,5.52,5.55,7.1,7.1,0,0,1-.061.809.55.55,0,0,1-.54.511H273.15a3.475,3.475,0,0,0,3.45,3.21,5.109,5.109,0,0,0,2.67-.871c.36-.209.57-.33.81-.029l.84,1.139a.467.467,0,0,1-.06.781,6.9,6.9,0,0,1-4.44,1.5,6,6,0,0,1-6.03-6.3A6.029,6.029,0,0,1,276.39,9Zm2.73,4.979a2.838,2.838,0,0,0-2.76-2.669,3.035,3.035,0,0,0-3.06,2.669Z" fill="#00aeef"/>
    <path d="M285.719,11.79h-1.41a.569.569,0,0,1-.569-.57V9.87a.551.551,0,0,1,.569-.57h1.41V5.58c0-3.72,2.22-5.58,5.1-5.58a5.393,5.393,0,0,1,3.42,1.2.557.557,0,0,1,.12.69l-.75,1.35c-.15.27-.45.3-.75.09a4.082,4.082,0,0,0-1.979-.72c-1.321,0-2.25.96-2.25,2.97V9.3h3.239a.552.552,0,0,1,.57.57v1.35a.57.57,0,0,1-.57.57H288.63v8.939a.591.591,0,0,1-.571.57H286.29a.59.59,0,0,1-.571-.57Z" fill="#00aeef"/>
    <path d="M299.969,9a5.4,5.4,0,0,1,5.52,5.55,7.1,7.1,0,0,1-.061.809.55.55,0,0,1-.539.511h-8.16a3.475,3.475,0,0,0,3.45,3.21,5.109,5.109,0,0,0,2.67-.871c.36-.209.57-.33.81-.029l.84,1.139a.467.467,0,0,1-.06.781A6.9,6.9,0,0,1,300,21.6a6,6,0,0,1-6.03-6.3A6.029,6.029,0,0,1,299.969,9Zm2.73,4.979a2.838,2.838,0,0,0-2.76-2.669,3.033,3.033,0,0,0-3.059,2.669Z" fill="#00aeef"/>
    <path d="M313.768,9a5.317,5.317,0,0,1,4.35,2.13.587.587,0,0,1-.12.84l-.99.9c-.36.33-.57.089-.81-.12a3.332,3.332,0,0,0-2.4-1.14,3.57,3.57,0,0,0-3.481,3.69,3.476,3.476,0,0,0,6.24,2.34.549.549,0,0,1,.81-.06l.81.659c.3.24.42.54.21.841a5.323,5.323,0,0,1-4.65,2.519,6.248,6.248,0,0,1-6.27-6.269A6.383,6.383,0,0,1,313.768,9Z" fill="#00aeef"/>
    <path d="M322.168,11.79h-1.26a.569.569,0,0,1-.569-.57V9.87a.551.551,0,0,1,.569-.57h1.26V5.97a.59.59,0,0,1,.57-.57l1.71-.03a.564.564,0,0,1,.54.57V9.3h3.06a.552.552,0,0,1,.57.57v1.35a.57.57,0,0,1-.57.57h-3.06v5.939c0,1.021.39,1.2.96,1.2a4.906,4.906,0,0,0,1.83-.539.448.448,0,0,1,.689.269l.541,1.32a.5.5,0,0,1-.27.72,9.2,9.2,0,0,1-3.51.9c-2.37,0-3.06-1.44-3.06-3.57Z" fill="#00aeef"/>
    <path d="M331.048,19.739l.63-1.17a.518.518,0,0,1,.75-.15,6.214,6.214,0,0,0,2.789.78c.9,0,1.471-.36,1.471-1.019,0-.81-.66-1.2-2.31-1.951-1.86-.81-3.42-1.949-3.42-3.929,0-1.5,1.23-3.3,4.11-3.3a6.727,6.727,0,0,1,3.54.93.669.669,0,0,1,.239.87l-.54,1.02a.629.629,0,0,1-.779.24,6.857,6.857,0,0,0-2.46-.63c-1.02,0-1.351.45-1.351.9,0,.78.75,1.109,1.92,1.62,2.191.96,3.991,1.889,3.991,4.139,0,1.86-1.77,3.51-4.44,3.51a6.293,6.293,0,0,1-3.96-1.23A.5.5,0,0,1,331.048,19.739Z" fill="#00aeef"/>
  </g>
  <line x1="0.5" y1="33.002" x2="381.913" y2="33.002" fill="none" stroke="#00aeef" stroke-linecap="round" stroke-linejoin="round"/>
</svg>
