<svg id="Layer_1" data-name="Layer 1" xmlns="http://www.w3.org/2000/svg" width="401" height="33.502" viewBox="0 0 401 33.502">
  <g>
    <path d="M33.958,20.52,43.168.33a.7.7,0,0,1,.51-.33h.3a.7.7,0,0,1,.511.33l9.149,20.19a.529.529,0,0,1-.51.779h-1.89a.7.7,0,0,1-.69-.45l-1.86-4.11H38.878c-.6,1.381-1.23,2.73-1.83,4.11a.752.752,0,0,1-.69.45h-1.89A.529.529,0,0,1,33.958,20.52Zm13.589-6.36L43.858,5.94h-.151l-3.659,8.22Z" fill="#00aeef"/>
    <path d="M58.5,15.18l-3.78-5.07a.468.468,0,0,1,.36-.81h1.95a.866.866,0,0,1,.72.33l2.4,3.45h.03l2.46-3.45a.812.812,0,0,1,.689-.33h1.98c.51,0,.66.39.36.78l-3.779,5.069L65.7,20.52c.269.389.119.779-.361.779H63.448a.814.814,0,0,1-.63-.36l-2.64-3.719h-.03l-2.7,3.84a.579.579,0,0,1-.48.239h-2.01c-.51,0-.63-.39-.36-.779Z" fill="#00aeef"/>
    <path d="M68.248,2.67A1.723,1.723,0,0,1,69.958.9a1.755,1.755,0,1,1,0,3.51A1.716,1.716,0,0,1,68.248,2.67Zm.329,7.2a.59.59,0,0,1,.571-.57h1.71a.59.59,0,0,1,.57.57V20.729a.59.59,0,0,1-.57.57h-1.71a.59.59,0,0,1-.571-.57Z" fill="#00aeef"/>
    <path d="M75.867.87a.564.564,0,0,1,.54-.57h6.9a10.5,10.5,0,1,1,0,21h-6.9a.564.564,0,0,1-.54-.57Zm7.02,17.579a7.408,7.408,0,0,0,7.62-7.679,7.376,7.376,0,0,0-7.62-7.62h-3.96v15.3Z" fill="#00aeef"/>
    <path d="M96.747,9.87a.59.59,0,0,1,.571-.57h.869a.571.571,0,0,1,.511.42l.33,1.02A4.273,4.273,0,0,1,102.537,9c1.14,0,2.52.3,2.19,1.11l-.72,1.47a.512.512,0,0,1-.72.27,2.74,2.74,0,0,0-1.02-.21,3.157,3.157,0,0,0-2.7,1.47v7.619c0,.51-.33.57-.81.57h-1.44a.59.59,0,0,1-.571-.57Z" fill="#00aeef"/>
    <path d="M110.758,13.709a8.609,8.609,0,0,1,2.369.361c.031-1.89-.33-2.64-1.86-2.64a12.739,12.739,0,0,0-3.359.54c-.36.09-.57-.15-.66-.48l-.24-1.11a.539.539,0,0,1,.39-.69A12.373,12.373,0,0,1,111.537,9c3.84,0,4.2,2.34,4.2,5.34v6.389a.59.59,0,0,1-.57.57h-.84c-.27,0-.39-.12-.51-.42l-.3-.81a5.177,5.177,0,0,1-3.69,1.53,3.725,3.725,0,0,1-3.869-4.019C105.958,15.39,107.7,13.709,110.758,13.709Zm-.36,5.76a3.548,3.548,0,0,0,2.7-1.5v-1.92a4.528,4.528,0,0,0-2.1-.48c-1.44,0-2.429.75-2.429,1.98A1.8,1.8,0,0,0,110.4,19.469Z" fill="#00aeef"/>
    <path d="M118.287,9.99c-.18-.39,0-.69.42-.69h1.62a.593.593,0,0,1,.54.36l2.01,6.63h.03l3.21-6.99a.566.566,0,0,1,.51-.3h.18a.532.532,0,0,1,.51.3l3.18,7.019h.03l1.98-6.659c.15-.36.6-.36.93-.36h1.17a.45.45,0,0,1,.449.69L131.547,21.3a.534.534,0,0,1-.54.3h-.12a.547.547,0,0,1-.51-.27l-3.69-8.009h-.03L123,21.329a.5.5,0,0,1-.48.27h-.15a.517.517,0,0,1-.51-.3Z" fill="#00aeef"/>
    <path d="M137.637,10.95A1.946,1.946,0,0,1,139.587,9a1.935,1.935,0,1,1-1.95,1.95Zm1.95,6.779a1.935,1.935,0,1,1-1.95,1.95A1.947,1.947,0,0,1,139.587,17.729Z" fill="#00aeef"/>
    <path d="M155.366.42a.576.576,0,0,1,.54-.42h.48a.572.572,0,0,1,.51.33l5.94,16.529h.15L168.836.33a.572.572,0,0,1,.51-.33h.479a.577.577,0,0,1,.541.42l3.87,20.159c.089.421-.09.72-.54.72h-1.2a.616.616,0,0,1-.54-.42L169.285,5.43h-.12l-5.519,15.84a.61.61,0,0,1-.51.329h-.54a.61.61,0,0,1-.51-.329l-5.58-15.84h-.12l-2.61,15.449a.584.584,0,0,1-.54.42h-1.2c-.45,0-.63-.3-.54-.72Z" fill="#00aeef"/>
    <path d="M182.756,9a6.15,6.15,0,0,1,5.97,6.27,5.98,5.98,0,1,1-11.94,0A6.15,6.15,0,0,1,182.756,9Zm0,10.649a4.13,4.13,0,0,0,3.9-4.379,3.918,3.918,0,1,0-7.8,0A4.13,4.13,0,0,0,182.756,19.649Z" fill="#00aeef"/>
    <path d="M190.466,9.99c-.18-.39,0-.69.45-.69h.931a.582.582,0,0,1,.539.33l3.721,8.579h.029L200.1,9.63a.573.573,0,0,1,.51-.33h.78c.45,0,.63.3.45.69L196.706,21.3a.53.53,0,0,1-.509.3h-.151a.533.533,0,0,1-.51-.3Z" fill="#00aeef"/>
    <path d="M209.456,9a5.3,5.3,0,0,1,5.43,5.49,7.374,7.374,0,0,1-.06.81.552.552,0,0,1-.54.51h-8.639a4.211,4.211,0,0,0,4.019,3.9,5.715,5.715,0,0,0,2.97-.9c.42-.241.6-.391.84-.06.181.239.33.449.511.689.21.27.329.45-.12.78a7.453,7.453,0,0,1-4.411,1.38c-3.63,0-5.88-2.849-5.88-6.3C203.576,11.91,205.826,9,209.456,9Zm3.361,5.129a3.467,3.467,0,0,0-3.361-3.3,3.73,3.73,0,0,0-3.779,3.3Z" fill="#00aeef"/>
    <path d="M218.157,9.87a.59.59,0,0,1,.57-.57h.569a.438.438,0,0,1,.481.36l.269.93a5.475,5.475,0,0,1,3.9-1.59,4.218,4.218,0,0,1,3.839,1.95A7.327,7.327,0,0,1,232.256,9c3.48,0,4.65,2.28,4.65,5.4v6.33a.59.59,0,0,1-.57.57h-.96a.589.589,0,0,1-.57-.57V14.4c0-2.249-.96-3.389-2.7-3.389a5.371,5.371,0,0,0-3.659,1.679,9.925,9.925,0,0,1,.149,1.71v6.33a.59.59,0,0,1-.569.57h-.961a.59.59,0,0,1-.57-.57V14.4c0-2.279-1.02-3.389-2.849-3.389a4.636,4.636,0,0,0-3.42,1.71v8.009a.591.591,0,0,1-.57.57h-.93a.59.59,0,0,1-.57-.57Z" fill="#00aeef"/>
    <path d="M246.026,9a5.3,5.3,0,0,1,5.429,5.49,7.626,7.626,0,0,1-.059.81.552.552,0,0,1-.54.51h-8.64a4.212,4.212,0,0,0,4.02,3.9,5.714,5.714,0,0,0,2.969-.9c.42-.241.6-.391.84-.06.181.239.33.449.511.689.21.27.33.45-.12.78a7.452,7.452,0,0,1-4.41,1.38c-3.63,0-5.88-2.849-5.88-6.3C240.146,11.91,242.4,9,246.026,9Zm3.36,5.129a3.467,3.467,0,0,0-3.36-3.3,3.732,3.732,0,0,0-3.781,3.3Z" fill="#00aeef"/>
    <path d="M254.726,9.87a.589.589,0,0,1,.57-.57h.57a.437.437,0,0,1,.48.36l.27.93a6.691,6.691,0,0,1,4.2-1.59c3.479,0,4.649,2.28,4.649,5.4v6.33a.589.589,0,0,1-.569.57h-.96a.59.59,0,0,1-.57-.57V14.4c0-2.279-1.02-3.389-2.7-3.389a5.906,5.906,0,0,0-3.869,1.71v8.009a.59.59,0,0,1-.57.57h-.93a.589.589,0,0,1-.57-.57Z" fill="#00aeef"/>
    <path d="M270.356,11.1h-1.531a.57.57,0,0,1-.57-.57V9.87a.552.552,0,0,1,.57-.57h1.531V5.97a.589.589,0,0,1,.569-.57l.96-.06a.563.563,0,0,1,.54.57V9.3h3.481a.551.551,0,0,1,.569.57v.66a.569.569,0,0,1-.569.57h-3.481v7.02c0,1.2.3,1.44.99,1.44a5.727,5.727,0,0,0,2.19-.661c.45-.24.57-.06.72.181l.451.75c.21.359.119.539-.21.749a7.843,7.843,0,0,1-3.45,1.02c-2.4,0-2.76-1.44-2.76-3.3Z" fill="#00aeef"/>
    <path d="M286.075,18.149c.15-.18.3-.39.45-.569.3-.391.63-.63,1.05-.27a8.288,8.288,0,0,0,5.069,2.279c2.431,0,4.02-1.529,4.02-3.3,0-2.07-1.8-3.3-5.25-4.74-3.3-1.44-5.28-2.79-5.28-6.21,0-2.04,1.62-5.34,6.391-5.34a9.811,9.811,0,0,1,5.129,1.53.668.668,0,0,1,.18,1.02c-.12.18-.24.39-.36.57a.679.679,0,0,1-1.05.27,8.394,8.394,0,0,0-3.93-1.38c-3.179,0-4.139,2.04-4.139,3.3,0,2.01,1.529,3.18,4.05,4.23,4.049,1.65,6.659,3.18,6.659,6.66,0,3.119-2.97,5.4-6.48,5.4a9.783,9.783,0,0,1-6.33-2.43A.658.658,0,0,1,286.075,18.149Z" fill="#00aeef"/>
    <path d="M304.343,29.729a.589.589,0,0,1-.569.57h-.931a.589.589,0,0,1-.569-.57V9.87a.589.589,0,0,1,.569-.57h.631c.269,0,.359.09.479.39l.21.57A5.353,5.353,0,0,1,307.643,9c3.27,0,5.67,2.88,5.67,6.33,0,3.509-2.46,6.269-5.76,6.269a5.455,5.455,0,0,1-3.21-.99Zm2.94-10.14a4.015,4.015,0,0,0,3.93-4.289c0-2.341-1.38-4.41-3.78-4.41a4.078,4.078,0,0,0-3.06,1.47v6.18A5.031,5.031,0,0,0,307.283,19.589Z" fill="#00aeef"/>
    <path d="M321.713,9a5.3,5.3,0,0,1,5.43,5.49,7.374,7.374,0,0,1-.06.81.552.552,0,0,1-.54.51H317.9a4.211,4.211,0,0,0,4.019,3.9,5.718,5.718,0,0,0,2.97-.9c.42-.241.6-.391.84-.06.18.239.33.449.51.689.21.27.331.45-.12.78a7.449,7.449,0,0,1-4.41,1.38c-3.63,0-5.88-2.849-5.88-6.3C315.833,11.91,318.083,9,321.713,9Zm3.361,5.129a3.467,3.467,0,0,0-3.361-3.3,3.731,3.731,0,0,0-3.78,3.3Z" fill="#00aeef"/>
    <path d="M335.423,9a5.3,5.3,0,0,1,5.43,5.49,7.374,7.374,0,0,1-.06.81.552.552,0,0,1-.54.51h-8.639a4.211,4.211,0,0,0,4.019,3.9,5.718,5.718,0,0,0,2.97-.9c.42-.241.6-.391.84-.06.18.239.33.449.51.689.21.27.33.45-.12.78a7.449,7.449,0,0,1-4.41,1.38c-3.63,0-5.88-2.849-5.88-6.3C329.543,11.91,331.793,9,335.423,9Zm3.36,5.129a3.466,3.466,0,0,0-3.36-3.3,3.729,3.729,0,0,0-3.779,3.3Z" fill="#00aeef"/>
    <path d="M349.013,9a6.424,6.424,0,0,1,3.21.78V.87a.59.59,0,0,1,.57-.57h.93a.59.59,0,0,1,.57.57V20.729a.59.59,0,0,1-.57.57h-.63a.544.544,0,0,1-.51-.48l-.18-.81a5.368,5.368,0,0,1-3.69,1.59c-3.059,0-5.46-2.88-5.46-6.329C343.253,11.76,345.413,9,349.013,9Zm-.09,10.709a4.051,4.051,0,0,0,3.27-1.98v-6a6.454,6.454,0,0,0-2.91-.719c-2.61,0-3.93,1.889-3.93,4.29C345.353,17.64,346.734,19.709,348.923,19.709Z" fill="#00aeef"/>
    <path d="M357.864,19.619c.12-.18.33-.6.419-.749a.556.556,0,0,1,.81-.091,5.058,5.058,0,0,0,2.82,1.051c1.23,0,1.951-.631,1.951-1.44,0-1.051-.9-1.531-2.641-2.4-1.59-.781-3.42-1.83-3.42-3.87,0-1.26,1.021-3.12,3.811-3.12a6.124,6.124,0,0,1,3.329.93.723.723,0,0,1,.18.93l-.24.48a.66.66,0,0,1-.87.27,5.969,5.969,0,0,0-2.4-.72c-1.351,0-1.71.69-1.71,1.2,0,.99.989,1.44,2.219,2.039,2.07.991,3.93,1.92,3.93,4.08,0,1.74-1.68,3.39-4.14,3.39a6.094,6.094,0,0,1-3.9-1.349A.6.6,0,0,1,357.864,19.619Z" fill="#00aeef"/>
  </g>
  <line x1="0.5" y1="33.002" x2="400.5" y2="33.002" fill="none" stroke="#00aeef" stroke-linecap="round" stroke-linejoin="round"/>
</svg>
