<svg id="Layer_1" data-name="Layer 1" xmlns="http://www.w3.org/2000/svg" width="401" height="32.502" viewBox="0 0 401 32.502">
  <g>
    <path d="M54.057.87A.59.59,0,0,1,54.628.3h1.98a.57.57,0,0,1,.57.57V9.24H68.157V.87a.57.57,0,0,1,.57-.57h1.98a.59.59,0,0,1,.57.57V20.729a.59.59,0,0,1-.57.57h-1.98a.57.57,0,0,1-.57-.57V12.06H57.178v8.669a.57.57,0,0,1-.57.57h-1.98a.59.59,0,0,1-.571-.57Z" fill="#00aeef"/>
    <path d="M79.437,13.709a8.612,8.612,0,0,1,2.37.361c.03-1.89-.33-2.64-1.86-2.64a12.748,12.748,0,0,0-3.36.54c-.36.09-.57-.15-.659-.48l-.241-1.11a.539.539,0,0,1,.39-.69A12.375,12.375,0,0,1,80.217,9c3.84,0,4.2,2.34,4.2,5.34v6.389a.59.59,0,0,1-.57.57h-.84c-.27,0-.39-.12-.51-.42l-.3-.81a5.177,5.177,0,0,1-3.69,1.53,3.725,3.725,0,0,1-3.869-4.019C74.638,15.39,76.377,13.709,79.437,13.709Zm-.36,5.76a3.55,3.55,0,0,0,2.7-1.5v-1.92a4.528,4.528,0,0,0-2.1-.48c-1.44,0-2.43.75-2.43,1.98A1.8,1.8,0,0,0,79.077,19.469Z" fill="#00aeef"/>
    <path d="M88.2,9.87a.59.59,0,0,1,.57-.57h.87a.486.486,0,0,1,.48.36l.36,1.02A6.136,6.136,0,0,1,94.677,9c3.659,0,5.009,2.58,5.009,5.7v6.029a.59.59,0,0,1-.569.57h-1.71a.57.57,0,0,1-.571-.57V14.58c0-1.92-.929-2.97-2.49-2.97a3.968,3.968,0,0,0-3.329,1.8v7.319c0,.39-.18.57-.691.57H88.767a.59.59,0,0,1-.57-.57Z" fill="#00aeef"/>
    <path d="M108.476,9a7.225,7.225,0,0,1,2.88.66V.87a.59.59,0,0,1,.57-.57h1.74a.59.59,0,0,1,.57.57V20.729a.59.59,0,0,1-.57.57h-.9c-.27,0-.45-.21-.54-.509l-.24-.871a5.363,5.363,0,0,1-3.809,1.68c-3.181,0-5.61-2.849-5.61-6.3A6.052,6.052,0,0,1,108.476,9Zm.06,10.02a3.228,3.228,0,0,0,2.85-1.8V12.33a4.978,4.978,0,0,0-2.61-.72,3.485,3.485,0,0,0-3.42,3.69C105.356,17.31,106.617,19.02,108.536,19.02Z" fill="#00aeef"/>
    <path d="M117,9.99c-.18-.39,0-.69.42-.69h1.62a.593.593,0,0,1,.54.36l2.01,6.63h.03l3.21-6.99a.566.566,0,0,1,.51-.3h.18a.532.532,0,0,1,.51.3l3.18,7.019h.03l1.98-6.659c.15-.36.6-.36.93-.36h1.17a.45.45,0,0,1,.449.69L130.256,21.3a.534.534,0,0,1-.54.3h-.12a.547.547,0,0,1-.51-.27L125.4,13.32h-.03l-3.66,8.009a.5.5,0,0,1-.48.27h-.15a.517.517,0,0,1-.51-.3Z" fill="#00aeef"/>
    <path d="M136.526,9.87a.59.59,0,0,1,.57-.57h.87a.57.57,0,0,1,.51.42l.33,1.02A4.276,4.276,0,0,1,142.316,9c1.139,0,2.52.3,2.19,1.11l-.721,1.47a.51.51,0,0,1-.719.27,2.745,2.745,0,0,0-1.02-.21,3.16,3.16,0,0,0-2.7,1.47v7.619c0,.51-.33.57-.81.57H137.1a.59.59,0,0,1-.57-.57Z" fill="#00aeef"/>
    <path d="M146.276,2.67A1.723,1.723,0,0,1,147.986.9a1.755,1.755,0,1,1,0,3.51A1.716,1.716,0,0,1,146.276,2.67Zm.33,7.2a.59.59,0,0,1,.57-.57h1.71a.59.59,0,0,1,.57.57V20.729a.59.59,0,0,1-.57.57h-1.71a.59.59,0,0,1-.57-.57Z" fill="#00aeef"/>
    <path d="M154.136,11.79h-1.261a.57.57,0,0,1-.57-.57V9.87a.552.552,0,0,1,.57-.57h1.261V5.97a.59.59,0,0,1,.569-.57l1.71-.03a.564.564,0,0,1,.54.57V9.3h3.06a.552.552,0,0,1,.57.57v1.35a.57.57,0,0,1-.57.57h-3.06v5.939c0,1.021.391,1.2.96,1.2a4.906,4.906,0,0,0,1.83-.539.449.449,0,0,1,.69.269l.54,1.32a.5.5,0,0,1-.27.72,9.2,9.2,0,0,1-3.51.9c-2.37,0-3.059-1.44-3.059-3.57Z" fill="#00aeef"/>
    <path d="M163.406,2.67A1.723,1.723,0,0,1,165.116.9a1.755,1.755,0,1,1,0,3.51A1.716,1.716,0,0,1,163.406,2.67Zm.329,7.2a.59.59,0,0,1,.57-.57h1.71a.59.59,0,0,1,.57.57V20.729a.59.59,0,0,1-.57.57h-1.71a.59.59,0,0,1-.57-.57Z" fill="#00aeef"/>
    <path d="M170.485,9.87a.59.59,0,0,1,.57-.57h.87a.487.487,0,0,1,.48.36l.36,1.02a6.136,6.136,0,0,1,4.2-1.68c3.66,0,5.01,2.58,5.01,5.7v6.029a.59.59,0,0,1-.569.57H179.7a.57.57,0,0,1-.571-.57V14.58c0-1.92-.929-2.97-2.489-2.97a3.966,3.966,0,0,0-3.33,1.8v7.319c0,.39-.181.57-.69.57h-1.56a.59.59,0,0,1-.57-.57Z" fill="#00aeef"/>
    <path d="M186.655,17.16a4.821,4.821,0,0,1-.93-2.91A5.14,5.14,0,0,1,190.884,9h5.25a.552.552,0,0,1,.57.57v.75c0,.21-.12.48-.33.51l-1.65.45a4.015,4.015,0,0,1,1.29,3.21,4.9,4.9,0,0,1-5.1,4.889,8.8,8.8,0,0,1-2.609-.48,1.65,1.65,0,0,0-1.23,1.47,1.279,1.279,0,0,0,1.44,1.23h4.079c2.61,0,4.71,1.41,4.71,4.02,0,2.64-2.4,4.98-6.39,4.98-4.229,0-5.939-2.16-5.939-4.11a3.308,3.308,0,0,1,1.769-2.82v-.09a3.1,3.1,0,0,1-2.219-3A4.135,4.135,0,0,1,186.655,17.16Zm4.229,10.979c1.83,0,3.42-.93,3.42-2.37,0-.48-.3-1.71-2.25-1.71-.869,0-1.77,0-2.64.06-.179.06-1.649.54-1.649,1.89C187.765,27.239,189.054,28.139,190.884,28.139Zm2.58-13.829a2.526,2.526,0,0,0-2.519-2.76,2.6,2.6,0,0,0-2.64,2.76,2.6,2.6,0,0,0,2.64,2.759A2.525,2.525,0,0,0,193.464,14.31Z" fill="#00aeef"/>
    <path d="M199.615,14.58V13.29a.551.551,0,0,1,.57-.57h6.479a.551.551,0,0,1,.57.57v1.29a.546.546,0,0,1-.57.54h-6.479A.546.546,0,0,1,199.615,14.58Z" fill="#00aeef"/>
    <path d="M211.225.87a.589.589,0,0,1,.569-.57h1.71a.59.59,0,0,1,.571.57V20.729a.59.59,0,0,1-.571.57h-1.71a.589.589,0,0,1-.569-.57Z" fill="#00aeef"/>
    <path d="M217.645,2.67A1.723,1.723,0,0,1,219.355.9a1.755,1.755,0,1,1,0,3.51A1.716,1.716,0,0,1,217.645,2.67Zm.33,7.2a.589.589,0,0,1,.569-.57h1.71a.59.59,0,0,1,.571.57V20.729a.59.59,0,0,1-.571.57h-1.71a.589.589,0,0,1-.569-.57Z" fill="#00aeef"/>
    <path d="M224.725.87a.589.589,0,0,1,.569-.57h1.74a.591.591,0,0,1,.571.57V13.859l4.679-4.2a1.187,1.187,0,0,1,.75-.36h2.1a.466.466,0,0,1,.33.81l-4.979,4.53,5.88,5.88a.444.444,0,0,1-.331.779h-2.459a.766.766,0,0,1-.541-.239l-5.429-5.581v5.25a.591.591,0,0,1-.571.57h-1.74a.589.589,0,0,1-.569-.57Z" fill="#00aeef"/>
    <path d="M243.655,9a5.4,5.4,0,0,1,5.519,5.55,7.338,7.338,0,0,1-.06.809.552.552,0,0,1-.54.511h-8.16a3.475,3.475,0,0,0,3.451,3.21,5.105,5.105,0,0,0,2.669-.871c.36-.209.57-.33.81-.029l.84,1.139a.467.467,0,0,1-.06.781,6.9,6.9,0,0,1-4.44,1.5,6,6,0,0,1-6.029-6.3A6.029,6.029,0,0,1,243.655,9Zm2.729,4.979a2.838,2.838,0,0,0-2.76-2.669,3.033,3.033,0,0,0-3.059,2.669Z" fill="#00aeef"/>
    <path d="M259.614.87a.563.563,0,0,1,.54-.57h6.9a10.5,10.5,0,1,1,0,21h-6.9a.563.563,0,0,1-.54-.57Zm7.019,17.579a7.407,7.407,0,0,0,7.619-7.679,7.375,7.375,0,0,0-7.619-7.62h-3.96v15.3Z" fill="#00aeef"/>
    <path d="M285.684,9a5.4,5.4,0,0,1,5.519,5.55,7.338,7.338,0,0,1-.06.809.551.551,0,0,1-.54.511h-8.159a3.474,3.474,0,0,0,3.45,3.21,5.112,5.112,0,0,0,2.67-.871c.359-.209.569-.33.809-.029l.84,1.139a.467.467,0,0,1-.059.781,6.9,6.9,0,0,1-4.441,1.5,6,6,0,0,1-6.029-6.3A6.029,6.029,0,0,1,285.684,9Zm2.729,4.979a2.837,2.837,0,0,0-2.759-2.669,3.034,3.034,0,0,0-3.06,2.669Z" fill="#00aeef"/>
    <path d="M295.013,11.79H293.6a.57.57,0,0,1-.57-.57V9.87a.552.552,0,0,1,.57-.57h1.41V5.58c0-3.72,2.22-5.58,5.1-5.58a5.4,5.4,0,0,1,3.42,1.2.558.558,0,0,1,.12.69l-.75,1.35c-.151.27-.451.3-.75.09a4.082,4.082,0,0,0-1.98-.72c-1.32,0-2.25.96-2.25,2.97V9.3h3.239a.552.552,0,0,1,.571.57v1.35a.57.57,0,0,1-.571.57h-3.239v8.939a.59.59,0,0,1-.57.57h-1.77a.59.59,0,0,1-.57-.57Z" fill="#00aeef"/>
    <path d="M309.263,9a5.4,5.4,0,0,1,5.52,5.55,7.34,7.34,0,0,1-.061.809.551.551,0,0,1-.539.511h-8.16a3.475,3.475,0,0,0,3.45,3.21,5.112,5.112,0,0,0,2.67-.871c.359-.209.569-.33.809-.029l.84,1.139a.467.467,0,0,1-.059.781,6.9,6.9,0,0,1-4.441,1.5,6,6,0,0,1-6.029-6.3A6.029,6.029,0,0,1,309.263,9Zm2.729,4.979a2.837,2.837,0,0,0-2.759-2.669,3.035,3.035,0,0,0-3.06,2.669Z" fill="#00aeef"/>
    <path d="M323.062,9a5.314,5.314,0,0,1,4.349,2.13.586.586,0,0,1-.12.84l-.989.9c-.36.33-.57.089-.81-.12a3.336,3.336,0,0,0-2.4-1.14,3.57,3.57,0,0,0-3.48,3.69,3.476,3.476,0,0,0,6.24,2.34.548.548,0,0,1,.809-.06l.811.659c.3.24.42.54.21.841a5.323,5.323,0,0,1-4.65,2.519,6.247,6.247,0,0,1-6.27-6.269A6.383,6.383,0,0,1,323.062,9Z" fill="#00aeef"/>
    <path d="M331.461,11.79H330.2a.569.569,0,0,1-.569-.57V9.87a.551.551,0,0,1,.569-.57h1.26V5.97a.591.591,0,0,1,.571-.57l1.71-.03a.565.565,0,0,1,.54.57V9.3h3.059a.552.552,0,0,1,.57.57v1.35a.57.57,0,0,1-.57.57h-3.059v5.939c0,1.021.389,1.2.96,1.2a4.918,4.918,0,0,0,1.83-.539.448.448,0,0,1,.689.269l.54,1.32a.5.5,0,0,1-.269.72,9.206,9.206,0,0,1-3.51.9c-2.37,0-3.061-1.44-3.061-3.57Z" fill="#00aeef"/>
    <path d="M340.341,19.739l.631-1.17a.518.518,0,0,1,.75-.15,6.209,6.209,0,0,0,2.789.78c.9,0,1.471-.36,1.471-1.019,0-.81-.66-1.2-2.311-1.951-1.859-.81-3.42-1.949-3.42-3.929,0-1.5,1.231-3.3,4.111-3.3a6.733,6.733,0,0,1,3.54.93.67.67,0,0,1,.239.87l-.54,1.02a.63.63,0,0,1-.779.24,6.864,6.864,0,0,0-2.46-.63c-1.021,0-1.351.45-1.351.9,0,.78.75,1.109,1.92,1.62,2.19.96,3.99,1.889,3.99,4.139,0,1.86-1.769,3.51-4.439,3.51a6.293,6.293,0,0,1-3.96-1.23A.5.5,0,0,1,340.341,19.739Z" fill="#00aeef"/>
  </g>
  <line x1="0.5" y1="32.002" x2="400.5" y2="32.002" fill="none" stroke="#00aeef" stroke-linecap="round" stroke-linejoin="round"/>
</svg>
