<svg id="Layer_1" data-name="Layer 1" xmlns="http://www.w3.org/2000/svg" width="401" height="34.502" viewBox="0 0 401 34.502">
  <g>
    <path d="M7.183,20.52,16.393.33A.7.7,0,0,1,16.9,0h.3a.7.7,0,0,1,.511.33l9.149,20.19a.529.529,0,0,1-.51.779h-1.89a.7.7,0,0,1-.69-.45l-1.86-4.11H12.1c-.6,1.381-1.23,2.73-1.83,4.11a.752.752,0,0,1-.69.45H7.693A.529.529,0,0,1,7.183,20.52Zm13.59-6.36-3.69-8.22h-.15l-3.66,8.22Z" fill="#00aeef"/>
    <path d="M31.722,15.18l-3.78-5.07A.469.469,0,0,1,28.3,9.3h1.949a.866.866,0,0,1,.72.33l2.4,3.45h.03l2.46-3.45a.814.814,0,0,1,.69-.33h1.98c.51,0,.66.39.36.78l-3.78,5.069,3.81,5.371c.27.389.12.779-.36.779h-1.89a.815.815,0,0,1-.63-.36L33.4,17.22h-.03l-2.7,3.84a.579.579,0,0,1-.48.239h-2.01c-.51,0-.629-.39-.359-.779Z" fill="#00aeef"/>
    <path d="M41.472,2.67A1.723,1.723,0,0,1,43.182.9a1.755,1.755,0,1,1,0,3.51A1.716,1.716,0,0,1,41.472,2.67Zm.33,7.2a.59.59,0,0,1,.57-.57h1.71a.59.59,0,0,1,.57.57V20.729a.59.59,0,0,1-.57.57h-1.71a.59.59,0,0,1-.57-.57Z" fill="#00aeef"/>
    <path d="M49.092.87a.564.564,0,0,1,.54-.57h6.9a10.5,10.5,0,1,1,0,21h-6.9a.564.564,0,0,1-.54-.57Zm7.02,17.579a7.408,7.408,0,0,0,7.619-7.679,7.376,7.376,0,0,0-7.619-7.62h-3.96v15.3Z" fill="#00aeef"/>
    <path d="M69.972,9.87a.59.59,0,0,1,.57-.57h.87a.57.57,0,0,1,.51.42l.33,1.02A4.276,4.276,0,0,1,75.762,9c1.14,0,2.52.3,2.19,1.11l-.72,1.47a.512.512,0,0,1-.72.27,2.745,2.745,0,0,0-1.02-.21,3.16,3.16,0,0,0-2.7,1.47v7.619c0,.51-.33.57-.81.57h-1.44a.59.59,0,0,1-.57-.57Z" fill="#00aeef"/>
    <path d="M83.982,13.709a8.612,8.612,0,0,1,2.37.361c.03-1.89-.33-2.64-1.86-2.64a12.748,12.748,0,0,0-3.36.54c-.36.09-.57-.15-.66-.48l-.24-1.11a.539.539,0,0,1,.39-.69A12.375,12.375,0,0,1,84.762,9c3.84,0,4.2,2.34,4.2,5.34v6.389a.59.59,0,0,1-.57.57h-.84c-.27,0-.39-.12-.51-.42l-.3-.81a5.177,5.177,0,0,1-3.69,1.53,3.726,3.726,0,0,1-3.87-4.019C79.182,15.39,80.922,13.709,83.982,13.709Zm-.36,5.76a3.55,3.55,0,0,0,2.7-1.5v-1.92a4.528,4.528,0,0,0-2.1-.48c-1.44,0-2.43.75-2.43,1.98A1.8,1.8,0,0,0,83.622,19.469Z" fill="#00aeef"/>
    <path d="M91.512,9.99c-.18-.39,0-.69.42-.69h1.62a.593.593,0,0,1,.54.36l2.01,6.63h.03l3.21-6.99a.565.565,0,0,1,.509-.3h.181a.529.529,0,0,1,.509.3l3.18,7.019h.03l1.98-6.659c.15-.36.6-.36.93-.36h1.17a.45.45,0,0,1,.45.69L104.771,21.3a.534.534,0,0,1-.54.3h-.119a.547.547,0,0,1-.511-.27l-3.69-8.009h-.029l-3.66,8.009a.5.5,0,0,1-.48.27h-.15a.517.517,0,0,1-.51-.3Z" fill="#00aeef"/>
    <path d="M110.862,10.95A1.946,1.946,0,0,1,112.811,9a1.935,1.935,0,1,1-1.949,1.95Zm1.949,6.779a1.935,1.935,0,1,1-1.949,1.95A1.947,1.947,0,0,1,112.811,17.729Z" fill="#00aeef"/>
    <path d="M128.591.42a.576.576,0,0,1,.54-.42h.48a.569.569,0,0,1,.509.33l5.94,16.529h.15L142.06.33a.572.572,0,0,1,.51-.33h.48a.576.576,0,0,1,.54.42l3.87,20.159c.09.421-.09.72-.54.72h-1.2a.616.616,0,0,1-.54-.42L142.51,5.43h-.12l-5.52,15.84a.61.61,0,0,1-.509.329h-.54a.61.61,0,0,1-.511-.329L129.731,5.43h-.12L127,20.879a.584.584,0,0,1-.54.42h-1.2c-.45,0-.63-.3-.54-.72Z" fill="#00aeef"/>
    <path d="M154.9,13.68a9.859,9.859,0,0,1,2.55.39c.03-2.22-.24-3.24-1.95-3.24a10.55,10.55,0,0,0-3.6.66c-.3.12-.48-.03-.57-.3l-.24-.75a.483.483,0,0,1,.33-.66,11.275,11.275,0,0,1,4.17-.78c3.06,0,3.81,1.56,3.81,5.07v6.659a.59.59,0,0,1-.57.57h-.57c-.33,0-.42-.18-.51-.45l-.24-.809a5.205,5.205,0,0,1-3.72,1.559,3.643,3.643,0,0,1-3.69-3.93C150.1,15.39,151.811,13.68,154.9,13.68Zm-.78,6.119a4.255,4.255,0,0,0,3.3-1.679V15.75a5.37,5.37,0,0,0-2.52-.48c-1.68,0-2.88.839-2.88,2.4A2.023,2.023,0,0,0,154.121,19.8Z" fill="#00aeef"/>
    <path d="M168.851,9a5.179,5.179,0,0,1,4.29,2.1.587.587,0,0,1-.12.839l-.571.481c-.449.42-.6.12-.87-.12a3.7,3.7,0,0,0-2.759-1.26,4.072,4.072,0,0,0-3.99,4.26,4.1,4.1,0,0,0,3.96,4.319,4,4,0,0,0,3.18-1.559c.359-.361.569-.3.9-.06l.33.239a.6.6,0,0,1,.21.841,5.374,5.374,0,0,1-4.589,2.519,6.166,6.166,0,0,1-6.15-6.269A6.321,6.321,0,0,1,168.851,9Z" fill="#00aeef"/>
    <path d="M176.831.87A.59.59,0,0,1,177.4.3h.93a.59.59,0,0,1,.57.57v9.72A6.125,6.125,0,0,1,182.921,9c2.97,0,4.65,1.89,4.65,5.4v6.33a.59.59,0,0,1-.571.57h-.96a.59.59,0,0,1-.569-.57V14.4c0-2.279-1.021-3.389-2.7-3.389a5.856,5.856,0,0,0-3.87,1.679v8.04a.59.59,0,0,1-.57.57h-.93a.59.59,0,0,1-.57-.57Z" fill="#00aeef"/>
    <path d="M191.261,2.34a1.425,1.425,0,1,1,1.41,1.41A1.408,1.408,0,0,1,191.261,2.34Zm.42,7.53a.589.589,0,0,1,.57-.57h.93a.59.59,0,0,1,.57.57V20.729a.59.59,0,0,1-.57.57h-.93a.589.589,0,0,1-.57-.57Z" fill="#00aeef"/>
    <path d="M198.011,9.87a.59.59,0,0,1,.57-.57h.57a.437.437,0,0,1,.48.36l.27.93A6.7,6.7,0,0,1,204.1,9c3.479,0,4.649,2.28,4.649,5.4v6.33a.589.589,0,0,1-.569.57h-.96a.59.59,0,0,1-.57-.57V14.4c0-2.279-1.02-3.389-2.7-3.389a5.906,5.906,0,0,0-3.869,1.71v8.009a.59.59,0,0,1-.57.57h-.93a.59.59,0,0,1-.57-.57Z" fill="#00aeef"/>
    <path d="M217.87,9a5.3,5.3,0,0,1,5.43,5.49,7.626,7.626,0,0,1-.059.81.553.553,0,0,1-.541.51h-8.639a4.211,4.211,0,0,0,4.019,3.9,5.715,5.715,0,0,0,2.97-.9c.42-.241.6-.391.84-.06.181.239.33.449.511.689.21.27.329.45-.12.78a7.453,7.453,0,0,1-4.411,1.38c-3.629,0-5.879-2.849-5.879-6.3C211.991,11.91,214.241,9,217.87,9Zm3.361,5.129a3.467,3.467,0,0,0-3.361-3.3,3.73,3.73,0,0,0-3.779,3.3Z" fill="#00aeef"/>
    <path d="M243.459,0a10.549,10.549,0,0,1,7.26,2.79.58.58,0,0,1,.03.84l-.81.81c-.239.3-.48.27-.78-.03a9.089,9.089,0,0,0-5.73-2.25,8.509,8.509,0,0,0-8.369,8.64,8.5,8.5,0,0,0,8.369,8.609,8.73,8.73,0,0,0,5.73-2.249.566.566,0,0,1,.72-.091l.9.81a.572.572,0,0,1-.03.81,10.3,10.3,0,0,1-7.29,2.91,10.8,10.8,0,1,1,0-21.6Z" fill="#00aeef"/>
    <path d="M259.179,9a6.15,6.15,0,0,1,5.97,6.27,5.98,5.98,0,1,1-11.94,0A6.15,6.15,0,0,1,259.179,9Zm0,10.649a4.13,4.13,0,0,0,3.9-4.379,3.917,3.917,0,1,0-7.8,0A4.13,4.13,0,0,0,259.179,19.649Z" fill="#00aeef"/>
    <path d="M268.539,9.87a.591.591,0,0,1,.571-.57h.569a.436.436,0,0,1,.48.36l.27.93a6.7,6.7,0,0,1,4.2-1.59c3.48,0,4.65,2.28,4.65,5.4v6.33a.59.59,0,0,1-.57.57h-.96a.59.59,0,0,1-.57-.57V14.4c0-2.279-1.02-3.389-2.7-3.389a5.906,5.906,0,0,0-3.869,1.71v8.009a.591.591,0,0,1-.571.57h-.929a.591.591,0,0,1-.571-.57Z" fill="#00aeef"/>
    <path d="M284.349,11.1h-1.83a.569.569,0,0,1-.569-.57V9.87a.551.551,0,0,1,.569-.57h1.83V5.1c0-3.48,2.309-5.1,4.89-5.1a8.408,8.408,0,0,1,4.41,1.41.55.55,0,0,1,.12.69l-.481.81c-.179.3-.45.21-.779.03a7.44,7.44,0,0,0-3.3-1.08c-1.38,0-2.789.93-2.789,3.24V9.3h7.949a.591.591,0,0,1,.571.57V20.729a.591.591,0,0,1-.571.57h-.929a.591.591,0,0,1-.571-.57V11.1h-6.449v9.629a.59.59,0,0,1-.57.57h-.93a.589.589,0,0,1-.57-.57Z" fill="#00aeef"/>
    <path d="M300.008,17.279a5.281,5.281,0,0,1-.96-3A5.054,5.054,0,0,1,304.118,9h5.07a.552.552,0,0,1,.57.57v.51c0,.21-.12.48-.33.51l-1.62.33a4.168,4.168,0,0,1,1.35,3.36,4.933,4.933,0,0,1-5.04,5.1,4.743,4.743,0,0,1-2.849-.75,2.255,2.255,0,0,0-1.32,1.8,1.487,1.487,0,0,0,1.65,1.47h4.319c2.52,0,4.5,1.23,4.5,3.84,0,2.49-2.58,4.86-6.21,4.86-4.019,0-5.759-2.16-5.759-4.14a3.233,3.233,0,0,1,1.74-2.79v-.09A2.893,2.893,0,0,1,298,20.729,4.276,4.276,0,0,1,300.008,17.279Zm4.17,11.37c1.98,0,4.021-1.11,4.021-2.85,0-.39-.181-1.95-2.281-1.95h-3.33s-2.01.54-2.01,2.31C300.578,27.6,302.138,28.649,304.178,28.649Zm2.97-14.429c0-1.98-1.2-3.36-3-3.36A3.132,3.132,0,0,0,301,14.22a3.132,3.132,0,0,0,3.151,3.36C305.949,17.58,307.148,16.2,307.148,14.22Z" fill="#00aeef"/>
    <path d="M312.818,9.87a.59.59,0,0,1,.57-.57h.96a.59.59,0,0,1,.57.57V16.2c0,2.279,1.02,3.389,2.7,3.389a4.746,4.746,0,0,0,3.571-1.71V9.87a.589.589,0,0,1,.57-.57h.93a.59.59,0,0,1,.57.57V20.729a.59.59,0,0,1-.57.57h-.571c-.33,0-.45-.21-.54-.509l-.21-.781a5.471,5.471,0,0,1-3.9,1.59c-3.48,0-4.65-2.249-4.65-5.43Z" fill="#00aeef"/>
    <path d="M327.518,9.87a.59.59,0,0,1,.57-.57h.57a.511.511,0,0,1,.51.42l.24.87a4.437,4.437,0,0,1,3.6-1.59c.9,0,2.4.15,2.1.99l-.361,1.02c-.149.39-.42.39-.719.27a3.094,3.094,0,0,0-1.17-.24,3.853,3.853,0,0,0-3.27,1.68v8.009a.59.59,0,0,1-.57.57h-.93a.59.59,0,0,1-.57-.57Z" fill="#00aeef"/>
    <path d="M341.467,13.68a9.859,9.859,0,0,1,2.55.39c.03-2.22-.239-3.24-1.949-3.24a10.552,10.552,0,0,0-3.6.66c-.3.12-.479-.03-.569-.3l-.24-.75c-.121-.36.059-.54.33-.66a11.269,11.269,0,0,1,4.17-.78c3.059,0,3.809,1.56,3.809,5.07v6.659a.589.589,0,0,1-.57.57h-.57c-.33,0-.419-.18-.51-.45l-.24-.809a5.2,5.2,0,0,1-3.719,1.559,3.644,3.644,0,0,1-3.691-3.93C336.667,15.39,338.377,13.68,341.467,13.68Zm-.78,6.119a4.259,4.259,0,0,0,3.3-1.679V15.75a5.379,5.379,0,0,0-2.521-.48c-1.68,0-2.88.839-2.88,2.4A2.023,2.023,0,0,0,340.687,19.8Z" fill="#00aeef"/>
    <path d="M350.917,11.1h-1.53a.57.57,0,0,1-.57-.57V9.87a.552.552,0,0,1,.57-.57h1.53V5.97a.59.59,0,0,1,.57-.57l.96-.06a.564.564,0,0,1,.54.57V9.3h3.48a.551.551,0,0,1,.569.57v.66a.569.569,0,0,1-.569.57h-3.48v7.02c0,1.2.3,1.44.99,1.44a5.727,5.727,0,0,0,2.19-.661c.45-.24.57-.06.72.181l.45.75c.21.359.119.539-.211.749a7.833,7.833,0,0,1-3.449,1.02c-2.4,0-2.76-1.44-2.76-3.3Z" fill="#00aeef"/>
    <path d="M359.977,2.34a1.425,1.425,0,1,1,1.41,1.41A1.408,1.408,0,0,1,359.977,2.34Zm.42,7.53a.59.59,0,0,1,.57-.57h.93a.59.59,0,0,1,.57.57V20.729a.59.59,0,0,1-.57.57h-.93a.59.59,0,0,1-.57-.57Z" fill="#00aeef"/>
    <path d="M371.826,9a6.15,6.15,0,0,1,5.97,6.27,5.98,5.98,0,1,1-11.939,0A6.15,6.15,0,0,1,371.826,9Zm0,10.649a4.13,4.13,0,0,0,3.9-4.379,3.918,3.918,0,1,0-7.8,0A4.13,4.13,0,0,0,371.826,19.649Z" fill="#00aeef"/>
    <path d="M381.187,9.87a.589.589,0,0,1,.57-.57h.569a.438.438,0,0,1,.481.36l.269.93a6.7,6.7,0,0,1,4.2-1.59c3.479,0,4.649,2.28,4.649,5.4v6.33a.589.589,0,0,1-.569.57h-.96a.591.591,0,0,1-.571-.57V14.4c0-2.279-1.019-3.389-2.7-3.389a5.906,5.906,0,0,0-3.869,1.71v8.009a.59.59,0,0,1-.57.57h-.93a.589.589,0,0,1-.57-.57Z" fill="#00aeef"/>
  </g>
  <line x1="0.5" y1="34.002" x2="400.5" y2="34.002" fill="none" stroke="#00aeef" stroke-linecap="round" stroke-linejoin="round"/>
</svg>
