<?xml version="1.0" encoding="UTF-8"?>
<svg id="Layer_1" data-name="Layer 1" xmlns="http://www.w3.org/2000/svg" width="401" height="34.502" viewBox="0 0 401 34.502">
  <g>
    <path d="M37.918,.87c0-.3,.24-.57,.57-.57h6.839c3.69,0,6.72,3,6.72,6.629,0,3.72-3.03,6.75-6.689,6.75h-4.35v7.05c0,.3-.27,.57-.57,.57h-1.95c-.33,0-.57-.27-.57-.57V.87Zm7.23,9.87c2.07,0,3.81-1.68,3.81-3.84,0-2.04-1.74-3.6-3.81-3.6h-4.14v7.44h4.14Z" fill="#00aeef"/>
    <path d="M54.448,.87c0-.3,.27-.57,.57-.57h1.71c.3,0,.57,.27,.57,.57V20.729c0,.3-.27,.57-.57,.57h-1.71c-.3,0-.57-.27-.57-.57V.87Z" fill="#00aeef"/>
    <path d="M66.358,9c3.36,0,6.06,2.88,6.06,6.27,0,3.45-2.7,6.33-6.06,6.33s-6.06-2.88-6.06-6.33c0-3.39,2.7-6.27,6.06-6.27Zm0,10.02c1.89,0,3.39-1.68,3.39-3.75,0-2.01-1.5-3.66-3.39-3.66s-3.39,1.65-3.39,3.66c0,2.07,1.5,3.75,3.39,3.75Z" fill="#00aeef"/>
    <path d="M76.198,11.79h-1.26c-.33,0-.57-.27-.57-.57v-1.35c0-.33,.24-.57,.57-.57h1.26v-3.33c0-.3,.27-.57,.57-.57l1.71-.03c.3,0,.54,.27,.54,.57v3.36h3.06c.33,0,.57,.24,.57,.57v1.35c0,.3-.24,.57-.57,.57h-3.06v5.94c0,1.02,.39,1.2,.96,1.2,.63,0,1.47-.36,1.83-.54,.39-.18,.57,0,.69,.27l.54,1.32c.15,.33,.03,.57-.27,.72-.3,.18-2.07,.9-3.51,.9-2.37,0-3.06-1.44-3.06-3.57v-6.24Z" fill="#00aeef"/>
    <path d="M85.617,10.95c0-1.08,.87-1.95,1.95-1.95s1.92,.87,1.92,1.95c0,1.05-.84,1.92-1.92,1.92s-1.95-.87-1.95-1.92Zm1.95,6.78c1.08,0,1.92,.87,1.92,1.95,0,1.05-.84,1.92-1.92,1.92s-1.95-.87-1.95-1.92c0-1.08,.87-1.95,1.95-1.95Z" fill="#00aeef"/>
    <path d="M99.627,18.149c.15-.18,.3-.39,.45-.57,.3-.39,.63-.63,1.05-.27,.21,.18,2.4,2.28,5.07,2.28,2.43,0,4.02-1.53,4.02-3.3,0-2.07-1.8-3.3-5.25-4.74-3.3-1.44-5.28-2.79-5.28-6.21,0-2.04,1.62-5.34,6.39-5.34,2.94,0,5.13,1.53,5.13,1.53,.18,.09,.54,.45,.18,1.02-.12,.18-.24,.39-.36,.57-.27,.42-.57,.54-1.05,.27-.21-.12-2.1-1.38-3.93-1.38-3.18,0-4.14,2.04-4.14,3.3,0,2.01,1.53,3.18,4.05,4.23,4.05,1.65,6.66,3.18,6.66,6.66,0,3.12-2.97,5.399-6.479,5.399-3.54,0-5.94-2.07-6.33-2.43-.24-.21-.54-.45-.18-1.02Z" fill="#00aeef"/>
    <path d="M115.407,2.34c0-.81,.63-1.439,1.41-1.439,.81,0,1.44,.63,1.44,1.439,0,.78-.63,1.41-1.44,1.41-.78,0-1.41-.63-1.41-1.41Zm.42,7.53c0-.3,.27-.57,.57-.57h.93c.3,0,.57,.27,.57,.57v10.86c0,.3-.27,.57-.57,.57h-.93c-.3,0-.57-.27-.57-.57V9.87Z" fill="#00aeef"/>
    <path d="M122.157,9.87c0-.3,.27-.57,.57-.57h.57c.27,0,.42,.12,.48,.36l.27,.93s1.71-1.59,4.2-1.59c3.48,0,4.65,2.28,4.65,5.399v6.33c0,.3-.27,.57-.57,.57h-.96c-.3,0-.57-.27-.57-.57v-6.33c0-2.28-1.02-3.39-2.7-3.39-2.25,0-3.87,1.71-3.87,1.71v8.01c0,.3-.27,.57-.57,.57h-.93c-.3,0-.57-.27-.57-.57V9.87Z" fill="#00aeef"/>
    <path d="M137.817,17.279s-.96-1.23-.96-3c0-2.79,1.95-5.28,5.07-5.28h5.07c.33,0,.57,.24,.57,.57v.51c0,.21-.12,.48-.33,.51l-1.62,.33s1.35,.99,1.35,3.36c0,2.729-1.95,5.1-5.04,5.1-1.92,0-2.85-.75-2.85-.75,0,0-1.32,.6-1.32,1.8,0,.75,.54,1.47,1.65,1.47h4.32c2.52,0,4.5,1.23,4.5,3.84,0,2.49-2.58,4.86-6.21,4.86-4.02,0-5.76-2.16-5.76-4.14,0-1.8,1.44-2.61,1.74-2.79v-.09c-.78-.21-2.189-.99-2.189-2.85,0-2.28,2.01-3.45,2.01-3.45Zm4.17,11.37c1.98,0,4.02-1.11,4.02-2.85,0-.39-.18-1.95-2.28-1.95h-3.33s-2.01,.54-2.01,2.31c0,1.44,1.56,2.49,3.6,2.49Zm2.97-14.429c0-1.98-1.2-3.36-3-3.36-1.83,0-3.15,1.38-3.15,3.36s1.32,3.36,3.15,3.36c1.8,0,3-1.38,3-3.36Z" fill="#00aeef"/>
    <path d="M150.807,.87c0-.3,.27-.57,.57-.57h.93c.3,0,.57,.27,.57,.57V20.729c0,.3-.27,.57-.57,.57h-.93c-.3,0-.57-.27-.57-.57V.87Z" fill="#00aeef"/>
    <path d="M162.177,9c3.15,0,5.43,2.34,5.43,5.49,0,.21-.03,.6-.06,.81-.03,.3-.27,.51-.54,.51h-8.64c.12,2.01,1.89,3.9,4.02,3.9,1.26,0,2.28-.48,2.97-.9,.42-.24,.6-.39,.84-.06,.18,.24,.33,.45,.51,.69,.21,.27,.33,.45-.12,.78-.72,.57-2.34,1.38-4.41,1.38-3.63,0-5.88-2.85-5.88-6.299,0-3.39,2.25-6.3,5.88-6.3Zm3.36,5.129c-.09-1.74-1.53-3.3-3.36-3.3-2.01,0-3.57,1.44-3.78,3.3h7.14Z" fill="#00aeef"/>
    <path d="M179.635,29.729c0,.3-.27,.57-.569,.57h-.931c-.3,0-.569-.27-.569-.57V9.87c0-.3,.27-.57,.569-.57h.63c.271,0,.36,.09,.48,.39l.21,.57s1.32-1.26,3.479-1.26c3.271,0,5.67,2.88,5.67,6.33,0,3.51-2.46,6.27-5.76,6.27-1.979,0-3.21-.99-3.21-.99v9.12Zm2.94-10.14c2.31,0,3.93-1.89,3.93-4.29,0-2.34-1.38-4.41-3.78-4.41-1.949,0-3.06,1.47-3.06,1.47v6.18s1.26,1.05,2.91,1.05Z" fill="#00aeef"/>
    <path d="M195.925,13.68c1.29,0,2.55,.39,2.55,.39,.03-2.22-.239-3.24-1.949-3.24-1.65,0-3.061,.45-3.601,.66-.3,.12-.479-.03-.569-.3l-.24-.75c-.12-.36,.06-.54,.33-.66,.18-.09,1.92-.78,4.17-.78,3.06,0,3.81,1.56,3.81,5.07v6.66c0,.3-.27,.57-.57,.57h-.569c-.33,0-.42-.18-.511-.45l-.239-.81c-.63,.63-1.86,1.56-3.72,1.56-2.101,0-3.69-1.53-3.69-3.93,0-2.28,1.71-3.99,4.8-3.99Zm-.779,6.12c1.499,0,2.789-.93,3.3-1.68v-2.37c-.36-.21-1.2-.48-2.521-.48-1.68,0-2.88,.84-2.88,2.4,0,1.2,.811,2.13,2.101,2.13Z" fill="#00aeef"/>
    <path d="M205.405,17.279s-.96-1.23-.96-3c0-2.79,1.95-5.28,5.07-5.28h5.069c.33,0,.57,.24,.57,.57v.51c0,.21-.12,.48-.33,.51l-1.62,.33s1.351,.99,1.351,3.36c0,2.729-1.95,5.1-5.04,5.1-1.92,0-2.85-.75-2.85-.75,0,0-1.32,.6-1.32,1.8,0,.75,.54,1.47,1.65,1.47h4.319c2.52,0,4.5,1.23,4.5,3.84,0,2.49-2.58,4.86-6.21,4.86-4.02,0-5.76-2.16-5.76-4.14,0-1.8,1.44-2.61,1.74-2.79v-.09c-.78-.21-2.19-.99-2.19-2.85,0-2.28,2.01-3.45,2.01-3.45Zm4.17,11.37c1.98,0,4.021-1.11,4.021-2.85,0-.39-.181-1.95-2.28-1.95h-3.33s-2.01,.54-2.01,2.31c0,1.44,1.56,2.49,3.6,2.49Zm2.97-14.429c0-1.98-1.199-3.36-2.999-3.36-1.83,0-3.15,1.38-3.15,3.36s1.32,3.36,3.15,3.36c1.8,0,2.999-1.38,2.999-3.36Z" fill="#00aeef"/>
    <path d="M223.374,9c3.15,0,5.43,2.34,5.43,5.49,0,.21-.03,.6-.06,.81-.03,.3-.271,.51-.54,.51h-8.64c.12,2.01,1.89,3.9,4.02,3.9,1.26,0,2.28-.48,2.97-.9,.42-.24,.601-.39,.84-.06,.181,.24,.33,.45,.511,.69,.21,.27,.329,.45-.12,.78-.721,.57-2.34,1.38-4.41,1.38-3.63,0-5.88-2.85-5.88-6.299,0-3.39,2.25-6.3,5.88-6.3Zm3.36,5.129c-.091-1.74-1.53-3.3-3.36-3.3-2.01,0-3.569,1.44-3.779,3.3h7.14Z" fill="#00aeef"/>
    <path d="M233.304,18.18c.961,0,1.98,.54,1.98,2.7,0,2.49-1.56,4.65-2.52,5.55-.301,.27-.54,.24-.721,.06l-.42-.42c-.149-.15-.12-.45,.181-.72,.3-.27,1.859-1.59,1.859-3.78-.12,.03-.24,.03-.36,.03-.93,0-1.709-.78-1.709-1.71,0-.96,.779-1.709,1.709-1.709Z" fill="#00aeef"/>
    <path d="M255.893,0c5.999,0,10.799,4.83,10.799,10.83s-4.8,10.77-10.799,10.77-10.77-4.77-10.77-10.77,4.77-10.83,10.77-10.83Zm0,19.5c4.77,0,8.699-3.9,8.699-8.67s-3.93-8.729-8.699-8.729-8.67,3.96-8.67,8.729,3.899,8.67,8.67,8.67Z" fill="#00aeef"/>
    <path d="M269.993,9.87c0-.3,.27-.57,.57-.57h.569c.271,0,.42,.12,.48,.36l.27,.93s1.71-1.59,4.2-1.59c3.479,0,4.649,2.28,4.649,5.399v6.33c0,.3-.27,.57-.569,.57h-.96c-.3,0-.57-.27-.57-.57v-6.33c0-2.28-1.02-3.39-2.7-3.39-2.25,0-3.869,1.71-3.869,1.71v8.01c0,.3-.271,.57-.57,.57h-.93c-.301,0-.57-.27-.57-.57V9.87Z" fill="#00aeef"/>
    <path d="M290.123,9c1.8,0,3.209,.72,4.289,2.1,.21,.27,.15,.63-.12,.84l-.569,.48c-.45,.42-.601,.12-.87-.12-.6-.69-1.59-1.26-2.76-1.26-2.25,0-3.99,1.86-3.99,4.26s1.71,4.319,3.96,4.319c1.8,0,2.49-.9,3.18-1.56,.36-.36,.57-.3,.9-.06l.33,.24c.3,.21,.39,.54,.21,.84-.9,1.44-2.55,2.52-4.59,2.52-3.33,0-6.15-2.67-6.15-6.27,0-3.54,2.91-6.33,6.181-6.33Z" fill="#00aeef"/>
    <path d="M303.082,9c3.15,0,5.43,2.34,5.43,5.49,0,.21-.03,.6-.06,.81-.03,.3-.271,.51-.54,.51h-8.64c.12,2.01,1.89,3.9,4.02,3.9,1.26,0,2.28-.48,2.97-.9,.42-.24,.601-.39,.84-.06,.181,.24,.33,.45,.511,.69,.21,.27,.33,.45-.12,.78-.721,.57-2.34,1.38-4.41,1.38-3.63,0-5.88-2.85-5.88-6.299,0-3.39,2.25-6.3,5.88-6.3Zm3.36,5.129c-.091-1.74-1.53-3.3-3.36-3.3-2.01,0-3.569,1.44-3.78,3.3h7.141Z" fill="#00aeef"/>
    <path d="M323.541,9c3.33,0,5.97,2.88,5.97,6.27,0,3.45-2.64,6.33-5.97,6.33s-5.97-2.88-5.97-6.33c0-3.39,2.64-6.27,5.97-6.27Zm0,10.649c2.19,0,3.9-1.95,3.9-4.38,0-2.37-1.71-4.29-3.9-4.29s-3.899,1.92-3.899,4.29c0,2.43,1.71,4.38,3.899,4.38Z" fill="#00aeef"/>
    <path d="M332.902,9.87c0-.3,.27-.57,.57-.57h.569c.271,0,.42,.12,.48,.36l.27,.93s1.71-1.59,4.2-1.59c3.479,0,4.649,2.28,4.649,5.399v6.33c0,.3-.27,.57-.569,.57h-.96c-.3,0-.57-.27-.57-.57v-6.33c0-2.28-1.02-3.39-2.7-3.39-2.25,0-3.869,1.71-3.869,1.71v8.01c0,.3-.271,.57-.57,.57h-.93c-.301,0-.57-.27-.57-.57V9.87Z" fill="#00aeef"/>
    <path d="M347.782,.87c0-.3,.27-.57,.569-.57h.931c.3,0,.569,.27,.569,.57V20.729c0,.3-.27,.57-.569,.57h-.931c-.3,0-.569-.27-.569-.57V.87Z" fill="#00aeef"/>
    <path d="M352.431,9.96c-.18-.39,0-.66,.45-.66h1.319c.24,0,.421,.15,.511,.33l4.439,9.18h.03l4.199-9.18c.091-.18,.301-.33,.511-.33h1.14c.45,0,.66,.3,.45,.69l-9.21,19.949c-.09,.18-.3,.36-.51,.36h-1.11c-.45,0-.689-.33-.479-.75l3.84-8.279-5.58-11.31Z" fill="#00aeef"/>
  </g>
  <line x1=".5" y1="34.002" x2="400.5" y2="34.002" fill="none" stroke="#00aeef" stroke-linecap="round" stroke-linejoin="round"/>
</svg>