<svg id="Layer_1" data-name="Layer 1" xmlns="http://www.w3.org/2000/svg" width="401" height="34.502" viewBox="0 0 401 34.502">
  <g>
    <path d="M74.1,20.52,83.307.33a.7.7,0,0,1,.51-.33h.3a.7.7,0,0,1,.51.33l9.15,20.19a.529.529,0,0,1-.51.779h-1.89a.7.7,0,0,1-.69-.45l-1.86-4.11h-9.81c-.6,1.381-1.23,2.73-1.83,4.11a.751.751,0,0,1-.69.45H74.608A.53.53,0,0,1,74.1,20.52Zm13.59-6.36L84,5.94h-.15l-3.66,8.22Z" fill="#00aeef"/>
    <path d="M98.638,15.18l-3.781-5.07a.469.469,0,0,1,.361-.81h1.949a.869.869,0,0,1,.721.33l2.4,3.45h.03l2.46-3.45a.814.814,0,0,1,.69-.33h1.98c.51,0,.66.39.36.78l-3.78,5.069,3.81,5.371c.27.389.12.779-.36.779h-1.89a.815.815,0,0,1-.63-.36l-2.64-3.719h-.03l-2.7,3.84a.579.579,0,0,1-.48.239H95.1c-.51,0-.629-.39-.359-.779Z" fill="#00aeef"/>
    <path d="M108.388,2.67A1.723,1.723,0,0,1,110.1.9a1.755,1.755,0,1,1,0,3.51A1.716,1.716,0,0,1,108.388,2.67Zm.329,7.2a.59.59,0,0,1,.57-.57H111a.59.59,0,0,1,.57.57V20.729a.59.59,0,0,1-.57.57h-1.71a.59.59,0,0,1-.57-.57Z" fill="#00aeef"/>
    <path d="M116.007.87a.564.564,0,0,1,.54-.57h6.9a10.5,10.5,0,1,1,0,21h-6.9a.564.564,0,0,1-.54-.57Zm7.02,17.579a7.408,7.408,0,0,0,7.619-7.679,7.376,7.376,0,0,0-7.619-7.62h-3.96v15.3Z" fill="#00aeef"/>
    <path d="M136.887,9.87a.59.59,0,0,1,.57-.57h.87a.57.57,0,0,1,.51.42l.33,1.02A4.276,4.276,0,0,1,142.677,9c1.14,0,2.52.3,2.19,1.11l-.72,1.47a.512.512,0,0,1-.72.27,2.745,2.745,0,0,0-1.02-.21,3.16,3.16,0,0,0-2.7,1.47v7.619c0,.51-.33.57-.81.57h-1.44a.59.59,0,0,1-.57-.57Z" fill="#00aeef"/>
    <path d="M150.9,13.709a8.612,8.612,0,0,1,2.37.361c.03-1.89-.33-2.64-1.86-2.64a12.748,12.748,0,0,0-3.36.54c-.36.09-.57-.15-.659-.48l-.241-1.11a.539.539,0,0,1,.39-.69,12.375,12.375,0,0,1,4.14-.69c3.84,0,4.2,2.34,4.2,5.34v6.389a.59.59,0,0,1-.57.57h-.84c-.27,0-.39-.12-.51-.42l-.3-.81a5.177,5.177,0,0,1-3.69,1.53,3.726,3.726,0,0,1-3.87-4.019C146.1,15.39,147.837,13.709,150.9,13.709Zm-.36,5.76a3.55,3.55,0,0,0,2.7-1.5v-1.92a4.528,4.528,0,0,0-2.1-.48c-1.44,0-2.43.75-2.43,1.98A1.8,1.8,0,0,0,150.537,19.469Z" fill="#00aeef"/>
    <path d="M158.427,9.99c-.18-.39,0-.69.42-.69h1.62a.593.593,0,0,1,.54.36l2.01,6.63h.03l3.21-6.99a.565.565,0,0,1,.509-.3h.181a.529.529,0,0,1,.509.3l3.18,7.019h.03l1.981-6.659c.149-.36.6-.36.929-.36h1.17a.451.451,0,0,1,.451.69L171.687,21.3a.535.535,0,0,1-.54.3h-.12a.545.545,0,0,1-.51-.27l-3.691-8.009H166.8l-3.66,8.009a.5.5,0,0,1-.48.27h-.15a.517.517,0,0,1-.51-.3Z" fill="#00aeef"/>
    <path d="M177.777,10.95A1.946,1.946,0,0,1,179.727,9a1.935,1.935,0,1,1-1.95,1.95Zm1.95,6.779a1.935,1.935,0,1,1-1.95,1.95A1.947,1.947,0,0,1,179.727,17.729Z" fill="#00aeef"/>
    <path d="M193.134.87A.57.57,0,0,1,193.7.3h6.57c3.66,0,6.15,2.37,6.15,5.52a5.666,5.666,0,0,1-2.94,4.8,5.306,5.306,0,0,1,3.6,4.89c0,3.36-2.67,5.789-6.54,5.789H193.7a.57.57,0,0,1-.57-.57Zm7.65,18.42a3.7,3.7,0,0,0,3.78-3.811c0-2.129-1.95-3.689-4.29-3.689h-4.949v7.5Zm-.51-9.57a3.471,3.471,0,0,0,3.6-3.75,3.326,3.326,0,0,0-3.6-3.6h-4.89V9.72Z" fill="#00aeef"/>
    <path d="M214.584,13.68a9.859,9.859,0,0,1,2.55.39c.03-2.22-.239-3.24-1.949-3.24a10.552,10.552,0,0,0-3.6.66c-.3.12-.479-.03-.569-.3l-.24-.75a.482.482,0,0,1,.33-.66,11.269,11.269,0,0,1,4.17-.78c3.059,0,3.809,1.56,3.809,5.07v6.659a.589.589,0,0,1-.57.57h-.569c-.33,0-.42-.18-.511-.45l-.239-.809a5.207,5.207,0,0,1-3.72,1.559,3.644,3.644,0,0,1-3.691-3.93C209.784,15.39,211.494,13.68,214.584,13.68ZM213.8,19.8a4.259,4.259,0,0,0,3.3-1.679V15.75a5.376,5.376,0,0,0-2.521-.48c-1.679,0-2.88.839-2.88,2.4A2.023,2.023,0,0,0,213.8,19.8Z" fill="#00aeef"/>
    <path d="M222.534,19.619c.121-.18.331-.6.42-.749a.556.556,0,0,1,.81-.091,5.058,5.058,0,0,0,2.82,1.051c1.23,0,1.95-.631,1.95-1.44,0-1.051-.9-1.531-2.64-2.4-1.59-.781-3.42-1.83-3.42-3.87,0-1.26,1.02-3.12,3.81-3.12a6.126,6.126,0,0,1,3.33.93.723.723,0,0,1,.18.93l-.24.48a.66.66,0,0,1-.87.27,5.97,5.97,0,0,0-2.4-.72c-1.35,0-1.709.69-1.709,1.2,0,.99.989,1.44,2.219,2.039,2.07.991,3.93,1.92,3.93,4.08,0,1.74-1.68,3.39-4.14,3.39a6.094,6.094,0,0,1-3.9-1.349A.6.6,0,0,1,222.534,19.619Z" fill="#00aeef"/>
    <path d="M233.514,2.34a1.425,1.425,0,1,1,1.41,1.41A1.408,1.408,0,0,1,233.514,2.34Zm.42,7.53a.59.59,0,0,1,.57-.57h.93a.59.59,0,0,1,.57.57V20.729a.59.59,0,0,1-.57.57h-.93a.59.59,0,0,1-.57-.57Z" fill="#00aeef"/>
    <path d="M245.544,9a5.177,5.177,0,0,1,4.289,2.1.585.585,0,0,1-.12.839l-.569.481c-.45.42-.6.12-.87-.12a3.7,3.7,0,0,0-2.76-1.26,4.072,4.072,0,0,0-3.99,4.26,4.1,4.1,0,0,0,3.96,4.319,3.993,3.993,0,0,0,3.179-1.559c.361-.361.571-.3.9-.06l.33.239a.606.606,0,0,1,.21.841,5.378,5.378,0,0,1-4.59,2.519,6.166,6.166,0,0,1-6.15-6.269A6.321,6.321,0,0,1,245.544,9Z" fill="#00aeef"/>
    <path d="M259.733,18.149c.15-.18.3-.39.45-.569.3-.391.63-.63,1.05-.27a8.291,8.291,0,0,0,5.069,2.279c2.431,0,4.021-1.529,4.021-3.3,0-2.07-1.8-3.3-5.25-4.74-3.3-1.44-5.281-2.79-5.281-6.21,0-2.04,1.62-5.34,6.391-5.34a9.811,9.811,0,0,1,5.129,1.53.668.668,0,0,1,.18,1.02c-.12.18-.24.39-.36.57a.679.679,0,0,1-1.05.27,8.393,8.393,0,0,0-3.929-1.38c-3.18,0-4.14,2.04-4.14,3.3,0,2.01,1.529,3.18,4.05,4.23,4.05,1.65,6.659,3.18,6.659,6.66,0,3.119-2.97,5.4-6.48,5.4a9.783,9.783,0,0,1-6.33-2.43A.658.658,0,0,1,259.733,18.149Z" fill="#00aeef"/>
    <path d="M281.152,9a5.3,5.3,0,0,1,5.429,5.49,7.626,7.626,0,0,1-.059.81.552.552,0,0,1-.54.51h-8.64a4.212,4.212,0,0,0,4.02,3.9,5.714,5.714,0,0,0,2.969-.9c.42-.241.6-.391.84-.06.181.239.33.449.511.689.21.27.329.45-.12.78a7.452,7.452,0,0,1-4.41,1.38c-3.63,0-5.88-2.849-5.88-6.3C275.272,11.91,277.522,9,281.152,9Zm3.36,5.129a3.467,3.467,0,0,0-3.36-3.3,3.73,3.73,0,0,0-3.78,3.3Z" fill="#00aeef"/>
    <path d="M290.632,11.1H289.1a.57.57,0,0,1-.57-.57V9.87a.552.552,0,0,1,.57-.57h1.53V5.97a.59.59,0,0,1,.569-.57l.96-.06a.563.563,0,0,1,.54.57V9.3h3.481a.551.551,0,0,1,.569.57v.66a.569.569,0,0,1-.569.57H292.7v7.02c0,1.2.3,1.44.991,1.44a5.727,5.727,0,0,0,2.19-.661c.449-.24.569-.06.72.181l.45.75c.21.359.119.539-.211.749a7.833,7.833,0,0,1-3.449,1.02c-2.4,0-2.76-1.44-2.76-3.3Z" fill="#00aeef"/>
    <path d="M299.961,9.87a.591.591,0,0,1,.571-.57h.96a.591.591,0,0,1,.57.57V16.2c0,2.279,1.019,3.389,2.7,3.389a4.746,4.746,0,0,0,3.57-1.71V9.87a.59.59,0,0,1,.571-.57h.929a.591.591,0,0,1,.571.57V20.729a.591.591,0,0,1-.571.57h-.57c-.33,0-.45-.21-.54-.509l-.21-.781a5.473,5.473,0,0,1-3.9,1.59c-3.481,0-4.651-2.249-4.651-5.43Z" fill="#00aeef"/>
    <path d="M316.761,29.729a.589.589,0,0,1-.569.57h-.931a.589.589,0,0,1-.569-.57V9.87a.589.589,0,0,1,.569-.57h.631c.269,0,.359.09.479.39l.21.57A5.353,5.353,0,0,1,320.061,9c3.27,0,5.67,2.88,5.67,6.33,0,3.509-2.46,6.269-5.76,6.269a5.455,5.455,0,0,1-3.21-.99Zm2.94-10.14a4.015,4.015,0,0,0,3.93-4.289c0-2.341-1.38-4.41-3.78-4.41a4.078,4.078,0,0,0-3.06,1.47v6.18A5.031,5.031,0,0,0,319.7,19.589Z" fill="#00aeef"/>
  </g>
  <line x1="0.5" y1="34.002" x2="400.5" y2="34.002" fill="none" stroke="#00aeef" stroke-linecap="round" stroke-linejoin="round"/>
</svg>
